KomeMusicalChords-Regular.ufo
<glyph name="numbersign" format="2">
  <advance width="573"/>
  <unicode hex="0023"/>
  <outline>
    <contour>
      <point x="178" y="1360" type="line"/>
      <point x="178" y="1596" type="line"/>
      <point x="101" y="1576" type="line"/>
      <point x="101" y="1741" type="line"/>
      <point x="178" y="1763" type="line"/>
      <point x="178" y="1981" type="line"/>
      <point x="229" y="1981" type="line"/>
      <point x="229" y="1776" type="line"/>
      <point x="340" y="1800" type="line"/>
      <point x="341" y="2036" type="line"/>
      <point x="392" y="2036" type="line"/>
      <point x="392" y="1814" type="line"/>
      <point x="472" y="1833" type="line"/>
      <point x="472" y="1670" type="line"/>
      <point x="392" y="1647" type="line"/>
      <point x="392" y="1411" type="line"/>
      <point x="472" y="1431" type="line"/>
      <point x="472" y="1261" type="line"/>
      <point x="392" y="1241" type="line"/>
      <point x="392" y="977" type="line"/>
      <point x="341" y="977" type="line"/>
      <point x="341" y="1229" type="line"/>
      <point x="229" y="1200" type="line"/>
      <point x="229" y="922" type="line"/>
      <point x="178" y="922" type="line"/>
      <point x="178" y="1188" type="line"/>
      <point x="101" y="1168" type="line"/>
      <point x="101" y="1337" type="line"/>
    </contour>
    <contour>
      <point x="341" y="1400" type="line"/>
      <point x="341" y="1637" type="line"/>
      <point x="229" y="1610" type="line"/>
      <point x="229" y="1374" type="line"/>
    </contour>
  </outline>
</glyph>
<glyph name="parenleft" format="2">
  <advance width="600"/>
  <unicode hex="0028"/>
  <outline>
    <contour>
      <point x="302" y="1159" type="curve" smooth="yes"/>
      <point x="302" y="1084"/>
      <point x="313" y="1011"/>
      <point x="336" y="940" type="curve" smooth="yes"/>
      <point x="359" y="869"/>
      <point x="393" y="802"/>
      <point x="437" y="737" type="curve" smooth="yes"/>
      <point x="440" y="733"/>
      <point x="441" y="729"/>
      <point x="442" y="726" type="curve" smooth="yes"/>
      <point x="443" y="723"/>
      <point x="444" y="721"/>
      <point x="444" y="718" type="curve" smooth="yes"/>
      <point x="444" y="713"/>
      <point x="442" y="709"/>
      <point x="439" y="706" type="curve" smooth="yes"/>
      <point x="436" y="703"/>
      <point x="433" y="699"/>
      <point x="428" y="697" type="curve" smooth="yes"/>
      <point x="378" y="672" type="line"/>
      <point x="346" y="713"/>
      <point x="319" y="753"/>
      <point x="297" y="793" type="curve" smooth="yes"/>
      <point x="275" y="833"/>
      <point x="256" y="873"/>
      <point x="243" y="913" type="curve" smooth="yes"/>
      <point x="230" y="953"/>
      <point x="220" y="992"/>
      <point x="213" y="1033" type="curve" smooth="yes"/>
      <point x="206" y="1074"/>
      <point x="203" y="1116"/>
      <point x="203" y="1159" type="curve" smooth="yes"/>
      <point x="203" y="1201"/>
      <point x="206" y="1243"/>
      <point x="213" y="1284" type="curve" smooth="yes"/>
      <point x="220" y="1325"/>
      <point x="230" y="1365"/>
      <point x="243" y="1405" type="curve" smooth="yes"/>
      <point x="256" y="1445"/>
      <point x="275" y="1485"/>
      <point x="297" y="1525" type="curve" smooth="yes"/>
      <point x="319" y="1565"/>
      <point x="346" y="1605"/>
      <point x="378" y="1646" type="curve"/>
      <point x="428" y="1620" type="line" smooth="yes"/>
      <point x="433" y="1618"/>
      <point x="436" y="1615"/>
      <point x="439" y="1612" type="curve" smooth="yes"/>
      <point x="442" y="1609"/>
      <point x="444" y="1604"/>
      <point x="444" y="1599" type="curve" smooth="yes"/>
      <point x="444" y="1593"/>
      <point x="441" y="1587"/>
      <point x="437" y="1581" type="curve" smooth="yes"/>
      <point x="393" y="1517"/>
      <point x="359" y="1450"/>
      <point x="336" y="1379" type="curve" smooth="yes"/>
      <point x="313" y="1308"/>
      <point x="302" y="1234"/>
    </contour>
  </outline>
</glyph>
<glyph name="parenright" format="2">
  <advance width="600"/>
  <unicode hex="0029"/>
  <outline>
    <contour>
      <point x="285" y="1161" type="curve" smooth="yes"/>
      <point x="285" y="1236"/>
      <point x="274" y="1310"/>
      <point x="251" y="1381" type="curve" smooth="yes"/>
      <point x="228" y="1452"/>
      <point x="194" y="1519"/>
      <point x="150" y="1583" type="curve" smooth="yes"/>
      <point x="146" y="1589"/>
      <point x="143" y="1595"/>
      <point x="143" y="1601" type="curve" smooth="yes"/>
      <point x="143" y="1606"/>
      <point x="145" y="1611"/>
      <point x="148" y="1614" type="curve" smooth="yes"/>
      <point x="151" y="1617"/>
      <point x="154" y="1620"/>
      <point x="159" y="1622" type="curve" smooth="yes"/>
      <point x="209" y="1648" type="line"/>
      <point x="241" y="1607"/>
      <point x="268" y="1567"/>
      <point x="290" y="1527" type="curve" smooth="yes"/>
      <point x="312" y="1487"/>
      <point x="331" y="1447"/>
      <point x="344" y="1407" type="curve" smooth="yes"/>
      <point x="357" y="1367"/>
      <point x="367" y="1327"/>
      <point x="374" y="1286" type="curve" smooth="yes"/>
      <point x="381" y="1245"/>
      <point x="384" y="1203"/>
      <point x="384" y="1161" type="curve" smooth="yes"/>
      <point x="384" y="1118"/>
      <point x="381" y="1076"/>
      <point x="374" y="1035" type="curve" smooth="yes"/>
      <point x="367" y="994"/>
      <point x="357" y="955"/>
      <point x="344" y="915" type="curve" smooth="yes"/>
      <point x="331" y="875"/>
      <point x="312" y="835"/>
      <point x="290" y="795" type="curve" smooth="yes"/>
      <point x="268" y="755"/>
      <point x="241" y="715"/>
      <point x="209" y="674" type="curve"/>
      <point x="159" y="699" type="line" smooth="yes"/>
      <point x="154" y="701"/>
      <point x="151" y="705"/>
      <point x="148" y="708" type="curve" smooth="yes"/>
      <point x="145" y="711"/>
      <point x="143" y="715"/>
      <point x="143" y="720" type="curve" smooth="yes"/>
      <point x="143" y="723"/>
      <point x="144" y="725"/>
      <point x="145" y="728" type="curve" smooth="yes"/>
      <point x="146" y="731"/>
      <point x="147" y="735"/>
      <point x="150" y="739" type="curve" smooth="yes"/>
      <point x="194" y="804"/>
      <point x="228" y="871"/>
      <point x="251" y="942" type="curve" smooth="yes"/>
      <point x="274" y="1013"/>
      <point x="285" y="1086"/>
    </contour>
  </outline>
</glyph>
<glyph name="plus" format="2">
  <advance width="1250"/>
  <unicode hex="002B"/>
  <outline>
    <contour>
      <point x="730" y="844" type="line"/>
      <point x="730" y="481" type="line"/>
      <point x="1076" y="481" type="line"/>
      <point x="1076" y="366" type="line"/>
      <point x="730" y="366" type="line"/>
      <point x="730" y="0" type="line"/>
      <point x="606" y="0" type="line"/>
      <point x="606" y="366" type="line"/>
      <point x="262" y="366" type="line"/>
      <point x="262" y="481" type="line"/>
      <point x="606" y="481" type="line"/>
      <point x="606" y="844" type="line"/>
    </contour>
  </outline>
</glyph>
<glyph name="comma" format="2">
  <advance width="647"/>
  <unicode hex="002C"/>
  <outline>
    <contour>
      <point x="128" y="605" type="curve" smooth="yes"/>
      <point x="128" y="615"/>
      <point x="129" y="625"/>
      <point x="133" y="634" type="curve" smooth="yes"/>
      <point x="137" y="643"/>
      <point x="142" y="651"/>
      <point x="149" y="658" type="curve" smooth="yes"/>
      <point x="156" y="665"/>
      <point x="165" y="670"/>
      <point x="174" y="674" type="curve" smooth="yes"/>
      <point x="183" y="678"/>
      <point x="195" y="680"/>
      <point x="206" y="680" type="curve" smooth="yes"/>
      <point x="219" y="680"/>
      <point x="231" y="678"/>
      <point x="241" y="673" type="curve" smooth="yes"/>
      <point x="251" y="668"/>
      <point x="260" y="661"/>
      <point x="267" y="652" type="curve" smooth="yes"/>
      <point x="274" y="643"/>
      <point x="279" y="634"/>
      <point x="283" y="623" type="curve" smooth="yes"/>
      <point x="287" y="612"/>
      <point x="288" y="599"/>
      <point x="288" y="586" type="curve" smooth="yes"/>
      <point x="288" y="566"/>
      <point x="285" y="547"/>
      <point x="279" y="525" type="curve" smooth="yes"/>
      <point x="273" y="503"/>
      <point x="266" y="482"/>
      <point x="255" y="461" type="curve" smooth="yes"/>
      <point x="244" y="440"/>
      <point x="232" y="420"/>
      <point x="216" y="400" type="curve" smooth="yes"/>
      <point x="200" y="380"/>
      <point x="182" y="361"/>
      <point x="162" y="345" type="curve"/>
      <point x="143" y="364" type="line" smooth="yes"/>
      <point x="137" y="369"/>
      <point x="134" y="376"/>
      <point x="134" y="383" type="curve" smooth="yes"/>
      <point x="134" y="389"/>
      <point x="136" y="394"/>
      <point x="143" y="401" type="curve" smooth="yes"/>
      <point x="148" y="406"/>
      <point x="153" y="412"/>
      <point x="160" y="420" type="curve" smooth="yes"/>
      <point x="167" y="428"/>
      <point x="174" y="437"/>
      <point x="181" y="448" type="curve" smooth="yes"/>
      <point x="188" y="459"/>
      <point x="195" y="470"/>
      <point x="201" y="483" type="curve" smooth="yes"/>
      <point x="207" y="496"/>
      <point x="210" y="509"/>
      <point x="213" y="524" type="curve"/>
      <point x="205" y="524" type="line" smooth="yes"/>
      <point x="194" y="524"/>
      <point x="183" y="526"/>
      <point x="174" y="530" type="curve" smooth="yes"/>
      <point x="165" y="534"/>
      <point x="156" y="539"/>
      <point x="149" y="546" type="curve" smooth="yes"/>
      <point x="142" y="553"/>
      <point x="137" y="563"/>
      <point x="133" y="573" type="curve" smooth="yes"/>
      <point x="129" y="583"/>
      <point x="128" y="593"/>
    </contour>
  </outline>
</glyph>
<glyph name="hyphen" format="2">
  <advance width="1186"/>
  <unicode hex="002D"/>
  <outline>
    <contour>
      <point x="263" y="481" type="line"/>
      <point x="1002" y="481" type="line"/>
      <point x="1002" y="366" type="line"/>
      <point x="263" y="366" type="line"/>
    </contour>
  </outline>
</glyph>
<glyph name="slash" format="2">
  <advance width="746"/>
  <unicode hex="002F"/>
  <outline>
    <contour>
      <point x="161" y="-21" type="line" smooth="yes"/>
      <point x="152" y="-44"/>
      <point x="138" y="-62"/>
      <point x="120" y="-73" type="curve" smooth="yes"/>
      <point x="102" y="-84"/>
      <point x="82" y="-90"/>
      <point x="63" y="-90" type="curve" smooth="yes"/>
      <point x="-12" y="-90" type="line"/>
      <point x="589" y="1407" type="line" smooth="yes"/>
      <point x="598" y="1428"/>
      <point x="610" y="1445"/>
      <point x="626" y="1456" type="curve" smooth="yes"/>
      <point x="642" y="1467"/>
      <point x="661" y="1473"/>
      <point x="683" y="1473" type="curve" smooth="yes"/>
      <point x="758" y="1473" type="line"/>
    </contour>
  </outline>
</glyph>
<glyph name="zero" format="2">
  <advance width="1160"/>
  <unicode hex="0030"/>
  <outline>
    <contour>
      <point x="1048" y="658" type="curve" smooth="yes"/>
      <point x="1048" y="546"/>
      <point x="1036" y="448"/>
      <point x="1012" y="365" type="curve" smooth="yes"/>
      <point x="988" y="282"/>
      <point x="954" y="214"/>
      <point x="912" y="160" type="curve" smooth="yes"/>
      <point x="870" y="106"/>
      <point x="822" y="66"/>
      <point x="764" y="40" type="curve" smooth="yes"/>
      <point x="706" y="14"/>
      <point x="645" y="0"/>
      <point x="579" y="0" type="curve" smooth="yes"/>
      <point x="513" y="0"/>
      <point x="452" y="14"/>
      <point x="395" y="40" type="curve" smooth="yes"/>
      <point x="338" y="66"/>
      <point x="289" y="106"/>
      <point x="247" y="160" type="curve" smooth="yes"/>
      <point x="205" y="214"/>
      <point x="172" y="282"/>
      <point x="148" y="365" type="curve" smooth="yes"/>
      <point x="124" y="448"/>
      <point x="112" y="546"/>
      <point x="112" y="658" type="curve" smooth="yes"/>
      <point x="112" y="770"/>
      <point x="124" y="869"/>
      <point x="148" y="952" type="curve" smooth="yes"/>
      <point x="172" y="1035"/>
      <point x="205" y="1103"/>
      <point x="247" y="1157" type="curve" smooth="yes"/>
      <point x="289" y="1211"/>
      <point x="338" y="1252"/>
      <point x="395" y="1278" type="curve" smooth="yes"/>
      <point x="452" y="1304"/>
      <point x="513" y="1318"/>
      <point x="579" y="1318" type="curve" smooth="yes"/>
      <point x="645" y="1318"/>
      <point x="706" y="1304"/>
      <point x="764" y="1278" type="curve" smooth="yes"/>
      <point x="822" y="1252"/>
      <point x="870" y="1211"/>
      <point x="912" y="1157" type="curve" smooth="yes"/>
      <point x="954" y="1103"/>
      <point x="988" y="1035"/>
      <point x="1012" y="952" type="curve" smooth="yes"/>
      <point x="1036" y="869"/>
      <point x="1048" y="770"/>
    </contour>
    <contour>
      <point x="866" y="658" type="curve" smooth="yes"/>
      <point x="866" y="751"/>
      <point x="858" y="831"/>
      <point x="843" y="894" type="curve" smooth="yes"/>
      <point x="828" y="957"/>
      <point x="807" y="1009"/>
      <point x="780" y="1047" type="curve" smooth="yes"/>
      <point x="753" y="1085"/>
      <point x="723" y="1113"/>
      <point x="688" y="1130" type="curve" smooth="yes"/>
      <point x="653" y="1147"/>
      <point x="617" y="1156"/>
      <point x="579" y="1156" type="curve" smooth="yes"/>
      <point x="541" y="1156"/>
      <point x="506" y="1147"/>
      <point x="471" y="1130" type="curve" smooth="yes"/>
      <point x="436" y="1113"/>
      <point x="406" y="1085"/>
      <point x="379" y="1047" type="curve" smooth="yes"/>
      <point x="352" y="1009"/>
      <point x="332" y="957"/>
      <point x="317" y="894" type="curve" smooth="yes"/>
      <point x="302" y="831"/>
      <point x="293" y="751"/>
      <point x="293" y="658" type="curve" smooth="yes"/>
      <point x="293" y="565"/>
      <point x="302" y="486"/>
      <point x="317" y="423" type="curve" smooth="yes"/>
      <point x="332" y="360"/>
      <point x="352" y="308"/>
      <point x="379" y="270" type="curve" smooth="yes"/>
      <point x="406" y="232"/>
      <point x="436" y="203"/>
      <point x="471" y="186" type="curve" smooth="yes"/>
      <point x="506" y="169"/>
      <point x="541" y="161"/>
      <point x="579" y="161" type="curve" smooth="yes"/>
      <point x="617" y="161"/>
      <point x="653" y="169"/>
      <point x="688" y="186" type="curve" smooth="yes"/>
      <point x="723" y="203"/>
      <point x="753" y="232"/>
      <point x="780" y="270" type="curve" smooth="yes"/>
      <point x="807" y="308"/>
      <point x="828" y="360"/>
      <point x="843" y="423" type="curve" smooth="yes"/>
      <point x="858" y="486"/>
      <point x="866" y="565"/>
    </contour>
  </outline>
</glyph>
<glyph name="one" format="2">
  <advance width="1160"/>
  <unicode hex="0031"/>
  <outline>
    <contour>
      <point x="321" y="145" type="line"/>
      <point x="585" y="145" type="line"/>
      <point x="585" y="1002" type="line" smooth="yes"/>
      <point x="585" y="1028"/>
      <point x="586" y="1055"/>
      <point x="588" y="1082" type="curve"/>
      <point x="371" y="884" type="line" smooth="yes"/>
      <point x="365" y="880"/>
      <point x="359" y="877"/>
      <point x="353" y="875" type="curve" smooth="yes"/>
      <point x="347" y="873"/>
      <point x="341" y="871"/>
      <point x="336" y="871" type="curve" smooth="yes"/>
      <point x="327" y="871"/>
      <point x="318" y="872"/>
      <point x="311" y="876" type="curve" smooth="yes"/>
      <point x="304" y="880"/>
      <point x="299" y="886"/>
      <point x="295" y="891" type="curve" smooth="yes"/>
      <point x="245" y="960" type="line"/>
      <point x="615" y="1292" type="line"/>
      <point x="759" y="1292" type="line"/>
      <point x="759" y="145" type="line"/>
      <point x="1012" y="145" type="line"/>
      <point x="1012" y="-0" type="line"/>
      <point x="321" y="-0" type="line"/>
    </contour>
  </outline>
</glyph>
<glyph name="two" format="2">
  <advance width="1160"/>
  <unicode hex="0032"/>
  <outline>
    <contour>
      <point x="599" y="1305" type="curve" smooth="yes"/>
      <point x="654" y="1305"/>
      <point x="704" y="1296"/>
      <point x="752" y="1280" type="curve" smooth="yes"/>
      <point x="800" y="1264"/>
      <point x="841" y="1241"/>
      <point x="875" y="1210" type="curve" smooth="yes"/>
      <point x="909" y="1179"/>
      <point x="936" y="1141"/>
      <point x="956" y="1097" type="curve" smooth="yes"/>
      <point x="976" y="1053"/>
      <point x="986" y="1002"/>
      <point x="986" y="945" type="curve" smooth="yes"/>
      <point x="986" y="897"/>
      <point x="978" y="852"/>
      <point x="964" y="812" type="curve" smooth="yes"/>
      <point x="950" y="772"/>
      <point x="930" y="733"/>
      <point x="906" y="695" type="curve" smooth="yes"/>
      <point x="882" y="657"/>
      <point x="853" y="620"/>
      <point x="821" y="585" type="curve" smooth="yes"/>
      <point x="789" y="550"/>
      <point x="755" y="515"/>
      <point x="719" y="478" type="curve" smooth="yes"/>
      <point x="370" y="144" type="line"/>
      <point x="394" y="150"/>
      <point x="428" y="155"/>
      <point x="452" y="159" type="curve" smooth="yes"/>
      <point x="476" y="163"/>
      <point x="502" y="166"/>
      <point x="524" y="166" type="curve" smooth="yes"/>
      <point x="956" y="166" type="line" smooth="yes"/>
      <point x="973" y="166"/>
      <point x="987" y="160"/>
      <point x="997" y="150" type="curve" smooth="yes"/>
      <point x="1007" y="140"/>
      <point x="1012" y="127"/>
      <point x="1012" y="111" type="curve" smooth="yes"/>
      <point x="1012" y="0" type="line"/>
      <point x="152" y="0" type="line"/>
      <point x="159" y="83" type="line" smooth="yes"/>
      <point x="159" y="94"/>
      <point x="161" y="105"/>
      <point x="165" y="116" type="curve" smooth="yes"/>
      <point x="169" y="127"/>
      <point x="177" y="139"/>
      <point x="186" y="148" type="curve" smooth="yes"/>
      <point x="588" y="542" type="line" smooth="yes"/>
      <point x="620" y="575"/>
      <point x="650" y="607"/>
      <point x="677" y="638" type="curve" smooth="yes"/>
      <point x="704" y="669"/>
      <point x="728" y="699"/>
      <point x="747" y="730" type="curve" smooth="yes"/>
      <point x="766" y="761"/>
      <point x="780" y="791"/>
      <point x="790" y="823" type="curve" smooth="yes"/>
      <point x="800" y="855"/>
      <point x="806" y="888"/>
      <point x="806" y="924" type="curve" smooth="yes"/>
      <point x="806" y="960"/>
      <point x="799" y="992"/>
      <point x="788" y="1019" type="curve" smooth="yes"/>
      <point x="777" y="1046"/>
      <point x="761" y="1068"/>
      <point x="741" y="1086" type="curve" smooth="yes"/>
      <point x="721" y="1104"/>
      <point x="698" y="1116"/>
      <point x="671" y="1125" type="curve" smooth="yes"/>
      <point x="644" y="1134"/>
      <point x="616" y="1139"/>
      <point x="585" y="1139" type="curve" smooth="yes"/>
      <point x="554" y="1139"/>
      <point x="526" y="1134"/>
      <point x="499" y="1125" type="curve" smooth="yes"/>
      <point x="472" y="1116"/>
      <point x="451" y="1104"/>
      <point x="430" y="1088" type="curve" smooth="yes"/>
      <point x="409" y="1072"/>
      <point x="393" y="1052"/>
      <point x="379" y="1030" type="curve" smooth="yes"/>
      <point x="365" y="1008"/>
      <point x="355" y="983"/>
      <point x="349" y="956" type="curve" smooth="yes"/>
      <point x="345" y="940"/>
      <point x="337" y="928"/>
      <point x="328" y="920" type="curve" smooth="yes"/>
      <point x="319" y="912"/>
      <point x="308" y="909"/>
      <point x="293" y="909" type="curve" smooth="yes"/>
      <point x="290" y="909"/>
      <point x="286" y="910"/>
      <point x="283" y="910" type="curve" smooth="yes"/>
      <point x="280" y="910"/>
      <point x="277" y="910"/>
      <point x="273" y="911" type="curve" smooth="yes"/>
      <point x="178" y="941" type="line"/>
      <point x="186" y="999"/>
      <point x="202" y="1052"/>
      <point x="226" y="1097" type="curve" smooth="yes"/>
      <point x="250" y="1142"/>
      <point x="280" y="1180"/>
      <point x="317" y="1211" type="curve" smooth="yes"/>
      <point x="354" y="1242"/>
      <point x="397" y="1264"/>
      <point x="445" y="1280" type="curve" smooth="yes"/>
      <point x="493" y="1296"/>
      <point x="544" y="1305"/>
    </contour>
  </outline>
</glyph>
<glyph name="three" format="2">
  <advance width="1160"/>
  <unicode hex="0033"/>
  <outline>
    <contour>
      <point x="617" y="1319" type="curve" smooth="yes"/>
      <point x="672" y="1319"/>
      <point x="722" y="1310"/>
      <point x="768" y="1295" type="curve" smooth="yes"/>
      <point x="814" y="1280"/>
      <point x="854" y="1258"/>
      <point x="887" y="1229" type="curve" smooth="yes"/>
      <point x="920" y="1200"/>
      <point x="946" y="1164"/>
      <point x="965" y="1124" type="curve" smooth="yes"/>
      <point x="984" y="1084"/>
      <point x="993" y="1037"/>
      <point x="993" y="988" type="curve" smooth="yes"/>
      <point x="993" y="948"/>
      <point x="988" y="911"/>
      <point x="977" y="879" type="curve" smooth="yes"/>
      <point x="966" y="847"/>
      <point x="952" y="818"/>
      <point x="932" y="794" type="curve" smooth="yes"/>
      <point x="912" y="770"/>
      <point x="890" y="750"/>
      <point x="862" y="733" type="curve" smooth="yes"/>
      <point x="834" y="716"/>
      <point x="803" y="702"/>
      <point x="769" y="692" type="curve"/>
      <point x="853" y="670"/>
      <point x="917" y="633"/>
      <point x="959" y="581" type="curve" smooth="yes"/>
      <point x="1001" y="529"/>
      <point x="1022" y="463"/>
      <point x="1022" y="385" type="curve" smooth="yes"/>
      <point x="1022" y="326"/>
      <point x="1010" y="272"/>
      <point x="988" y="224" type="curve" smooth="yes"/>
      <point x="966" y="176"/>
      <point x="935" y="136"/>
      <point x="896" y="103" type="curve" smooth="yes"/>
      <point x="857" y="70"/>
      <point x="811" y="45"/>
      <point x="759" y="27" type="curve" smooth="yes"/>
      <point x="707" y="9"/>
      <point x="652" y="0"/>
      <point x="593" y="0" type="curve" smooth="yes"/>
      <point x="525" y="0"/>
      <point x="466" y="8"/>
      <point x="417" y="25" type="curve" smooth="yes"/>
      <point x="368" y="42"/>
      <point x="327" y="67"/>
      <point x="294" y="97" type="curve" smooth="yes"/>
      <point x="261" y="127"/>
      <point x="233" y="163"/>
      <point x="211" y="204" type="curve" smooth="yes"/>
      <point x="189" y="245"/>
      <point x="171" y="289"/>
      <point x="156" y="337" type="curve"/>
      <point x="240" y="366" type="line" smooth="yes"/>
      <point x="252" y="371"/>
      <point x="264" y="374"/>
      <point x="276" y="374" type="curve" smooth="yes"/>
      <point x="287" y="374"/>
      <point x="298" y="371"/>
      <point x="307" y="366" type="curve" smooth="yes"/>
      <point x="316" y="361"/>
      <point x="323" y="354"/>
      <point x="327" y="344" type="curve" smooth="yes"/>
      <point x="328" y="341"/>
      <point x="329" y="340"/>
      <point x="330" y="337" type="curve" smooth="yes"/>
      <point x="331" y="334"/>
      <point x="333" y="332"/>
      <point x="334" y="329" type="curve" smooth="yes"/>
      <point x="342" y="313"/>
      <point x="352" y="293"/>
      <point x="363" y="272" type="curve" smooth="yes"/>
      <point x="374" y="251"/>
      <point x="389" y="232"/>
      <point x="409" y="214" type="curve" smooth="yes"/>
      <point x="429" y="196"/>
      <point x="453" y="181"/>
      <point x="482" y="168" type="curve" smooth="yes"/>
      <point x="511" y="155"/>
      <point x="545" y="149"/>
      <point x="588" y="149" type="curve" smooth="yes"/>
      <point x="631" y="149"/>
      <point x="668" y="156"/>
      <point x="700" y="170" type="curve" smooth="yes"/>
      <point x="732" y="184"/>
      <point x="760" y="202"/>
      <point x="781" y="224" type="curve" smooth="yes"/>
      <point x="802" y="246"/>
      <point x="819" y="272"/>
      <point x="830" y="299" type="curve" smooth="yes"/>
      <point x="841" y="326"/>
      <point x="846" y="353"/>
      <point x="846" y="380" type="curve" smooth="yes"/>
      <point x="846" y="413"/>
      <point x="841" y="444"/>
      <point x="832" y="471" type="curve" smooth="yes"/>
      <point x="823" y="498"/>
      <point x="807" y="522"/>
      <point x="784" y="542" type="curve" smooth="yes"/>
      <point x="761" y="562"/>
      <point x="729" y="578"/>
      <point x="688" y="589" type="curve" smooth="yes"/>
      <point x="647" y="600"/>
      <point x="596" y="606"/>
      <point x="532" y="606" type="curve"/>
      <point x="533" y="745" type="line"/>
      <point x="585" y="746"/>
      <point x="628" y="751"/>
      <point x="665" y="762" type="curve" smooth="yes"/>
      <point x="702" y="773"/>
      <point x="733" y="787"/>
      <point x="756" y="806" type="curve" smooth="yes"/>
      <point x="779" y="825"/>
      <point x="797" y="847"/>
      <point x="807" y="874" type="curve" smooth="yes"/>
      <point x="817" y="901"/>
      <point x="823" y="929"/>
      <point x="823" y="961" type="curve" smooth="yes"/>
      <point x="823" y="996"/>
      <point x="816" y="1027"/>
      <point x="805" y="1054" type="curve" smooth="yes"/>
      <point x="794" y="1081"/>
      <point x="780" y="1102"/>
      <point x="760" y="1119" type="curve" smooth="yes"/>
      <point x="740" y="1136"/>
      <point x="718" y="1148"/>
      <point x="691" y="1157" type="curve" smooth="yes"/>
      <point x="664" y="1166"/>
      <point x="636" y="1170"/>
      <point x="605" y="1170" type="curve" smooth="yes"/>
      <point x="574" y="1170"/>
      <point x="547" y="1165"/>
      <point x="520" y="1156" type="curve" smooth="yes"/>
      <point x="493" y="1147"/>
      <point x="471" y="1135"/>
      <point x="450" y="1119" type="curve" smooth="yes"/>
      <point x="429" y="1103"/>
      <point x="413" y="1082"/>
      <point x="399" y="1060" type="curve" smooth="yes"/>
      <point x="385" y="1038"/>
      <point x="376" y="1014"/>
      <point x="369" y="987" type="curve" smooth="yes"/>
      <point x="365" y="971"/>
      <point x="357" y="959"/>
      <point x="348" y="951" type="curve" smooth="yes"/>
      <point x="339" y="943"/>
      <point x="328" y="940"/>
      <point x="313" y="940" type="curve" smooth="yes"/>
      <point x="310" y="940"/>
      <point x="307" y="941"/>
      <point x="304" y="941" type="curve" smooth="yes"/>
      <point x="301" y="941"/>
      <point x="297" y="941"/>
      <point x="293" y="942" type="curve" smooth="yes"/>
      <point x="196" y="955" type="line"/>
      <point x="204" y="1013"/>
      <point x="220" y="1066"/>
      <point x="244" y="1111" type="curve" smooth="yes"/>
      <point x="268" y="1156"/>
      <point x="299" y="1194"/>
      <point x="336" y="1225" type="curve" smooth="yes"/>
      <point x="373" y="1256"/>
      <point x="414" y="1278"/>
      <point x="462" y="1294" type="curve" smooth="yes"/>
      <point x="510" y="1310"/>
      <point x="562" y="1319"/>
    </contour>
  </outline>
</glyph>
<glyph name="four" format="2">
  <advance width="1160"/>
  <unicode hex="0034"/>
  <outline>
    <contour>
      <point x="871" y="481" type="line"/>
      <point x="1066" y="481" type="line"/>
      <point x="1066" y="373" type="line" smooth="yes"/>
      <point x="1066" y="363"/>
      <point x="1062" y="355"/>
      <point x="1057" y="349" type="curve" smooth="yes"/>
      <point x="1052" y="343"/>
      <point x="1043" y="339"/>
      <point x="1031" y="339" type="curve" smooth="yes"/>
      <point x="871" y="339" type="line"/>
      <point x="871" y="-0" type="line"/>
      <point x="718" y="-0" type="line"/>
      <point x="718" y="339" type="line"/>
      <point x="158" y="339" type="line" smooth="yes"/>
      <point x="146" y="339"/>
      <point x="135" y="342"/>
      <point x="126" y="349" type="curve" smooth="yes"/>
      <point x="117" y="356"/>
      <point x="113" y="365"/>
      <point x="110" y="375" type="curve" smooth="yes"/>
      <point x="94" y="457" type="line"/>
      <point x="721" y="1289" type="line"/>
      <point x="871" y="1289" type="line"/>
    </contour>
    <contour>
      <point x="718" y="986" type="line" smooth="yes"/>
      <point x="718" y="1001"/>
      <point x="719" y="1017"/>
      <point x="720" y="1034" type="curve" smooth="yes"/>
      <point x="721" y="1051"/>
      <point x="722" y="1069"/>
      <point x="725" y="1087" type="curve"/>
      <point x="279" y="481" type="line"/>
      <point x="718" y="481" type="line"/>
    </contour>
  </outline>
</glyph>
<glyph name="five" format="2">
  <advance width="1160"/>
  <unicode hex="0035"/>
  <outline>
    <contour>
      <point x="937" y="1234" type="line" smooth="yes"/>
      <point x="937" y="1212"/>
      <point x="929" y="1192"/>
      <point x="915" y="1178" type="curve" smooth="yes"/>
      <point x="901" y="1164"/>
      <point x="876" y="1156"/>
      <point x="842" y="1156" type="curve" smooth="yes"/>
      <point x="437" y="1156" type="line"/>
      <point x="378" y="818" type="line"/>
      <point x="446" y="832"/>
      <point x="507" y="839"/>
      <point x="564" y="839" type="curve" smooth="yes"/>
      <point x="632" y="839"/>
      <point x="691" y="830"/>
      <point x="742" y="810" type="curve" smooth="yes"/>
      <point x="793" y="790"/>
      <point x="836" y="763"/>
      <point x="871" y="728" type="curve" smooth="yes"/>
      <point x="906" y="693"/>
      <point x="931" y="652"/>
      <point x="949" y="604" type="curve" smooth="yes"/>
      <point x="967" y="556"/>
      <point x="976" y="506"/>
      <point x="976" y="450" type="curve" smooth="yes"/>
      <point x="976" y="382"/>
      <point x="964" y="319"/>
      <point x="940" y="264" type="curve" smooth="yes"/>
      <point x="916" y="209"/>
      <point x="882" y="163"/>
      <point x="841" y="123" type="curve" smooth="yes"/>
      <point x="800" y="83"/>
      <point x="752" y="53"/>
      <point x="695" y="32" type="curve" smooth="yes"/>
      <point x="638" y="11"/>
      <point x="578" y="0"/>
      <point x="512" y="0" type="curve" smooth="yes"/>
      <point x="474" y="0"/>
      <point x="438" y="4"/>
      <point x="403" y="11" type="curve" smooth="yes"/>
      <point x="368" y="18"/>
      <point x="336" y="29"/>
      <point x="306" y="42" type="curve" smooth="yes"/>
      <point x="276" y="55"/>
      <point x="248" y="69"/>
      <point x="222" y="85" type="curve" smooth="yes"/>
      <point x="196" y="101"/>
      <point x="189" y="134"/>
      <point x="170" y="151" type="curve"/>
      <point x="216" y="216" type="line" smooth="yes"/>
      <point x="226" y="231"/>
      <point x="240" y="238"/>
      <point x="257" y="238" type="curve" smooth="yes"/>
      <point x="268" y="238"/>
      <point x="280" y="234"/>
      <point x="295" y="225" type="curve" smooth="yes"/>
      <point x="310" y="216"/>
      <point x="327" y="206"/>
      <point x="348" y="195" type="curve" smooth="yes"/>
      <point x="369" y="184"/>
      <point x="393" y="174"/>
      <point x="420" y="165" type="curve" smooth="yes"/>
      <point x="447" y="156"/>
      <point x="481" y="152"/>
      <point x="519" y="152" type="curve" smooth="yes"/>
      <point x="562" y="152"/>
      <point x="600" y="159"/>
      <point x="634" y="173" type="curve" smooth="yes"/>
      <point x="668" y="187"/>
      <point x="699" y="206"/>
      <point x="723" y="232" type="curve" smooth="yes"/>
      <point x="747" y="258"/>
      <point x="765" y="287"/>
      <point x="778" y="322" type="curve" smooth="yes"/>
      <point x="791" y="357"/>
      <point x="798" y="397"/>
      <point x="798" y="441" type="curve" smooth="yes"/>
      <point x="798" y="479"/>
      <point x="792" y="514"/>
      <point x="781" y="545" type="curve" smooth="yes"/>
      <point x="770" y="576"/>
      <point x="753" y="602"/>
      <point x="731" y="623" type="curve" smooth="yes"/>
      <point x="709" y="644"/>
      <point x="679" y="662"/>
      <point x="646" y="674" type="curve" smooth="yes"/>
      <point x="613" y="686"/>
      <point x="573" y="692"/>
      <point x="528" y="692" type="curve" smooth="yes"/>
      <point x="497" y="692"/>
      <point x="466" y="689"/>
      <point x="433" y="684" type="curve" smooth="yes"/>
      <point x="400" y="679"/>
      <point x="365" y="670"/>
      <point x="330" y="659" type="curve"/>
      <point x="217" y="688" type="line"/>
      <point x="326" y="1318" type="line"/>
      <point x="937" y="1318" type="line"/>
    </contour>
  </outline>
</glyph>
<glyph name="six" format="2">
  <advance width="1150"/>
  <unicode hex="0036"/>
  <outline>
    <contour>
      <point x="684" y="804" type="curve" smooth="yes"/>
      <point x="736" y="804"/>
      <point x="784" y="797"/>
      <point x="831" y="779" type="curve" smooth="yes"/>
      <point x="878" y="761"/>
      <point x="918" y="737"/>
      <point x="952" y="705" type="curve" smooth="yes"/>
      <point x="986" y="673"/>
      <point x="1015" y="632"/>
      <point x="1035" y="584" type="curve" smooth="yes"/>
      <point x="1055" y="536"/>
      <point x="1066" y="481"/>
      <point x="1066" y="420" type="curve" smooth="yes"/>
      <point x="1066" y="361"/>
      <point x="1055" y="306"/>
      <point x="1034" y="255" type="curve" smooth="yes"/>
      <point x="1013" y="204"/>
      <point x="982" y="159"/>
      <point x="943" y="121" type="curve" smooth="yes"/>
      <point x="904" y="83"/>
      <point x="857" y="54"/>
      <point x="803" y="33" type="curve" smooth="yes"/>
      <point x="749" y="12"/>
      <point x="687" y="0"/>
      <point x="622" y="0" type="curve" smooth="yes"/>
      <point x="557" y="0"/>
      <point x="500" y="11"/>
      <point x="447" y="31" type="curve" smooth="yes"/>
      <point x="394" y="51"/>
      <point x="349" y="82"/>
      <point x="312" y="120" type="curve" smooth="yes"/>
      <point x="275" y="158"/>
      <point x="246" y="205"/>
      <point x="227" y="259" type="curve" smooth="yes"/>
      <point x="208" y="313"/>
      <point x="196" y="373"/>
      <point x="196" y="440" type="curve" smooth="yes"/>
      <point x="196" y="496"/>
      <point x="209" y="556"/>
      <point x="234" y="620" type="curve" smooth="yes"/>
      <point x="259" y="684"/>
      <point x="299" y="753"/>
      <point x="353" y="826" type="curve" smooth="yes"/>
      <point x="681" y="1265" type="line" smooth="yes"/>
      <point x="690" y="1276"/>
      <point x="701" y="1285"/>
      <point x="716" y="1293" type="curve" smooth="yes"/>
      <point x="731" y="1301"/>
      <point x="748" y="1304"/>
      <point x="767" y="1304" type="curve" smooth="yes"/>
      <point x="931" y="1304" type="line"/>
      <point x="484" y="738" type="line"/>
      <point x="514" y="758"/>
      <point x="527" y="775"/>
      <point x="564" y="787" type="curve" smooth="yes"/>
      <point x="601" y="799"/>
      <point x="641" y="804"/>
    </contour>
    <contour>
      <point x="381" y="412" type="curve" smooth="yes"/>
      <point x="381" y="375"/>
      <point x="387" y="341"/>
      <point x="398" y="310" type="curve" smooth="yes"/>
      <point x="409" y="279"/>
      <point x="425" y="253"/>
      <point x="446" y="231" type="curve" smooth="yes"/>
      <point x="467" y="209"/>
      <point x="492" y="190"/>
      <point x="522" y="178" type="curve" smooth="yes"/>
      <point x="552" y="166"/>
      <point x="586" y="161"/>
      <point x="624" y="161" type="curve" smooth="yes"/>
      <point x="663" y="161"/>
      <point x="698" y="167"/>
      <point x="729" y="179" type="curve" smooth="yes"/>
      <point x="760" y="191"/>
      <point x="788" y="209"/>
      <point x="810" y="231" type="curve" smooth="yes"/>
      <point x="832" y="253"/>
      <point x="850" y="280"/>
      <point x="862" y="310" type="curve" smooth="yes"/>
      <point x="874" y="340"/>
      <point x="880" y="373"/>
      <point x="880" y="409" type="curve" smooth="yes"/>
      <point x="880" y="447"/>
      <point x="874" y="482"/>
      <point x="862" y="512" type="curve" smooth="yes"/>
      <point x="850" y="542"/>
      <point x="834" y="567"/>
      <point x="812" y="589" type="curve" smooth="yes"/>
      <point x="790" y="611"/>
      <point x="764" y="626"/>
      <point x="734" y="638" type="curve" smooth="yes"/>
      <point x="704" y="650"/>
      <point x="670" y="655"/>
      <point x="634" y="655" type="curve" smooth="yes"/>
      <point x="595" y="655"/>
      <point x="560" y="648"/>
      <point x="529" y="635" type="curve" smooth="yes"/>
      <point x="498" y="622"/>
      <point x="471" y="604"/>
      <point x="449" y="582" type="curve" smooth="yes"/>
      <point x="427" y="560"/>
      <point x="411" y="532"/>
      <point x="399" y="503" type="curve" smooth="yes"/>
      <point x="387" y="474"/>
      <point x="381" y="444"/>
    </contour>
  </outline>
</glyph>
<glyph name="seven" format="2">
  <advance width="1418"/>
  <unicode hex="0037"/>
  <outline>
    <contour>
      <point x="1312" y="1305" type="line"/>
      <point x="1312" y="1217" type="line" smooth="yes"/>
      <point x="1312" y="1197"/>
      <point x="1311" y="1181"/>
      <point x="1306" y="1168" type="curve" smooth="yes"/>
      <point x="1301" y="1155"/>
      <point x="1297" y="1143"/>
      <point x="1291" y="1134" type="curve" smooth="yes"/>
      <point x="757" y="57" type="line" smooth="yes"/>
      <point x="749" y="41"/>
      <point x="739" y="28"/>
      <point x="725" y="17" type="curve" smooth="yes"/>
      <point x="711" y="6"/>
      <point x="692" y="0"/>
      <point x="669" y="0" type="curve" smooth="yes"/>
      <point x="541" y="0" type="line"/>
      <point x="1083" y="1063" type="line" smooth="yes"/>
      <point x="1091" y="1078"/>
      <point x="1100" y="1092"/>
      <point x="1108" y="1105" type="curve" smooth="yes"/>
      <point x="1116" y="1118"/>
      <point x="1125" y="1130"/>
      <point x="1135" y="1141" type="curve"/>
      <point x="475" y="1141" type="line" smooth="yes"/>
      <point x="465" y="1141"/>
      <point x="455" y="1145"/>
      <point x="447" y="1153" type="curve" smooth="yes"/>
      <point x="439" y="1161"/>
      <point x="435" y="1171"/>
      <point x="435" y="1181" type="curve" smooth="yes"/>
      <point x="435" y="1305" type="line"/>
    </contour>
  </outline>
</glyph>
<glyph name="eight" format="2">
  <advance width="1160"/>
  <unicode hex="0038"/>
  <outline>
    <contour>
      <point x="579" y="0" type="curve" smooth="yes"/>
      <point x="515" y="0"/>
      <point x="456" y="8"/>
      <point x="403" y="25" type="curve" smooth="yes"/>
      <point x="350" y="42"/>
      <point x="304" y="67"/>
      <point x="265" y="99" type="curve" smooth="yes"/>
      <point x="226" y="131"/>
      <point x="197" y="169"/>
      <point x="176" y="214" type="curve" smooth="yes"/>
      <point x="155" y="259"/>
      <point x="144" y="310"/>
      <point x="144" y="367" type="curve" smooth="yes"/>
      <point x="144" y="450"/>
      <point x="166" y="519"/>
      <point x="209" y="573" type="curve" smooth="yes"/>
      <point x="252" y="627"/>
      <point x="314" y="665"/>
      <point x="394" y="687" type="curve"/>
      <point x="326" y="712"/>
      <point x="276" y="749"/>
      <point x="242" y="799" type="curve" smooth="yes"/>
      <point x="208" y="849"/>
      <point x="189" y="910"/>
      <point x="189" y="979" type="curve" smooth="yes"/>
      <point x="189" y="1027"/>
      <point x="198" y="1072"/>
      <point x="217" y="1113" type="curve" smooth="yes"/>
      <point x="236" y="1154"/>
      <point x="262" y="1190"/>
      <point x="296" y="1221" type="curve" smooth="yes"/>
      <point x="330" y="1252"/>
      <point x="372" y="1276"/>
      <point x="420" y="1293" type="curve" smooth="yes"/>
      <point x="468" y="1310"/>
      <point x="521" y="1319"/>
      <point x="579" y="1319" type="curve" smooth="yes"/>
      <point x="637" y="1319"/>
      <point x="690" y="1310"/>
      <point x="738" y="1293" type="curve" smooth="yes"/>
      <point x="786" y="1276"/>
      <point x="828" y="1252"/>
      <point x="862" y="1221" type="curve" smooth="yes"/>
      <point x="896" y="1190"/>
      <point x="922" y="1154"/>
      <point x="941" y="1113" type="curve" smooth="yes"/>
      <point x="960" y="1072"/>
      <point x="969" y="1027"/>
      <point x="969" y="979" type="curve" smooth="yes"/>
      <point x="969" y="910"/>
      <point x="951" y="849"/>
      <point x="916" y="799" type="curve" smooth="yes"/>
      <point x="881" y="749"/>
      <point x="832" y="712"/>
      <point x="764" y="687" type="curve"/>
      <point x="844" y="665"/>
      <point x="906" y="627"/>
      <point x="949" y="573" type="curve" smooth="yes"/>
      <point x="992" y="519"/>
      <point x="1014" y="450"/>
      <point x="1014" y="367" type="curve" smooth="yes"/>
      <point x="1014" y="310"/>
      <point x="1003" y="259"/>
      <point x="981" y="214" type="curve" smooth="yes"/>
      <point x="959" y="169"/>
      <point x="931" y="131"/>
      <point x="893" y="99" type="curve" smooth="yes"/>
      <point x="855" y="67"/>
      <point x="808" y="42"/>
      <point x="755" y="25" type="curve" smooth="yes"/>
      <point x="702" y="8"/>
      <point x="643" y="0"/>
    </contour>
    <contour>
      <point x="579" y="140" type="curve" smooth="yes"/>
      <point x="619" y="140"/>
      <point x="654" y="146"/>
      <point x="686" y="157" type="curve" smooth="yes"/>
      <point x="718" y="168"/>
      <point x="744" y="183"/>
      <point x="766" y="204" type="curve" smooth="yes"/>
      <point x="788" y="225"/>
      <point x="806" y="249"/>
      <point x="818" y="277" type="curve" smooth="yes"/>
      <point x="830" y="305"/>
      <point x="835" y="336"/>
      <point x="835" y="370" type="curve" smooth="yes"/>
      <point x="835" y="412"/>
      <point x="828" y="449"/>
      <point x="814" y="479" type="curve" smooth="yes"/>
      <point x="800" y="509"/>
      <point x="782" y="533"/>
      <point x="758" y="552" type="curve" smooth="yes"/>
      <point x="734" y="571"/>
      <point x="707" y="584"/>
      <point x="676" y="593" type="curve" smooth="yes"/>
      <point x="645" y="602"/>
      <point x="612" y="606"/>
      <point x="579" y="606" type="curve" smooth="yes"/>
      <point x="546" y="606"/>
      <point x="513" y="602"/>
      <point x="482" y="593" type="curve" smooth="yes"/>
      <point x="451" y="584"/>
      <point x="424" y="571"/>
      <point x="400" y="552" type="curve" smooth="yes"/>
      <point x="376" y="533"/>
      <point x="358" y="509"/>
      <point x="344" y="479" type="curve" smooth="yes"/>
      <point x="330" y="449"/>
      <point x="323" y="412"/>
      <point x="323" y="370" type="curve" smooth="yes"/>
      <point x="323" y="336"/>
      <point x="328" y="305"/>
      <point x="340" y="277" type="curve" smooth="yes"/>
      <point x="352" y="249"/>
      <point x="370" y="225"/>
      <point x="392" y="204" type="curve" smooth="yes"/>
      <point x="414" y="183"/>
      <point x="440" y="168"/>
      <point x="472" y="157" type="curve" smooth="yes"/>
      <point x="504" y="146"/>
      <point x="539" y="140"/>
    </contour>
    <contour>
      <point x="579" y="758" type="curve" smooth="yes"/>
      <point x="619" y="758"/>
      <point x="653" y="765"/>
      <point x="681" y="777" type="curve" smooth="yes"/>
      <point x="709" y="789"/>
      <point x="732" y="804"/>
      <point x="750" y="825" type="curve" smooth="yes"/>
      <point x="768" y="846"/>
      <point x="780" y="868"/>
      <point x="788" y="895" type="curve" smooth="yes"/>
      <point x="796" y="922"/>
      <point x="800" y="948"/>
      <point x="800" y="976" type="curve" smooth="yes"/>
      <point x="800" y="1004"/>
      <point x="796" y="1031"/>
      <point x="787" y="1056" type="curve" smooth="yes"/>
      <point x="778" y="1081"/>
      <point x="763" y="1103"/>
      <point x="744" y="1122" type="curve" smooth="yes"/>
      <point x="725" y="1141"/>
      <point x="703" y="1156"/>
      <point x="676" y="1167" type="curve" smooth="yes"/>
      <point x="649" y="1178"/>
      <point x="618" y="1195"/>
      <point x="579" y="1195" type="curve" smooth="yes"/>
      <point x="540" y="1195"/>
      <point x="509" y="1178"/>
      <point x="482" y="1167" type="curve" smooth="yes"/>
      <point x="455" y="1156"/>
      <point x="433" y="1141"/>
      <point x="414" y="1122" type="curve" smooth="yes"/>
      <point x="395" y="1103"/>
      <point x="380" y="1081"/>
      <point x="371" y="1056" type="curve" smooth="yes"/>
      <point x="362" y="1031"/>
      <point x="358" y="1004"/>
      <point x="358" y="976" type="curve" smooth="yes"/>
      <point x="358" y="948"/>
      <point x="362" y="922"/>
      <point x="370" y="895" type="curve" smooth="yes"/>
      <point x="378" y="868"/>
      <point x="390" y="846"/>
      <point x="408" y="825" type="curve" smooth="yes"/>
      <point x="426" y="804"/>
      <point x="449" y="789"/>
      <point x="477" y="777" type="curve" smooth="yes"/>
      <point x="505" y="765"/>
      <point x="539" y="758"/>
    </contour>
  </outline>
</glyph>
<glyph name="nine" format="2">
  <advance width="1282"/>
  <unicode hex="0039"/>
  <outline>
    <contour>
      <point x="719" y="529" type="curve" smooth="yes"/>
      <point x="670" y="529"/>
      <point x="625" y="537"/>
      <point x="581" y="554" type="curve" smooth="yes"/>
      <point x="537" y="571"/>
      <point x="499" y="595"/>
      <point x="467" y="626" type="curve" smooth="yes"/>
      <point x="435" y="657"/>
      <point x="407" y="696"/>
      <point x="388" y="742" type="curve" smooth="yes"/>
      <point x="369" y="788"/>
      <point x="359" y="840"/>
      <point x="359" y="899" type="curve" smooth="yes"/>
      <point x="359" y="955"/>
      <point x="370" y="1007"/>
      <point x="390" y="1057" type="curve" smooth="yes"/>
      <point x="410" y="1107"/>
      <point x="440" y="1150"/>
      <point x="478" y="1186" type="curve" smooth="yes"/>
      <point x="516" y="1222"/>
      <point x="560" y="1252"/>
      <point x="613" y="1272" type="curve" smooth="yes"/>
      <point x="666" y="1292"/>
      <point x="723" y="1304"/>
      <point x="785" y="1304" type="curve" smooth="yes"/>
      <point x="847" y="1304"/>
      <point x="902" y="1293"/>
      <point x="953" y="1273" type="curve" smooth="yes"/>
      <point x="1004" y="1253"/>
      <point x="1047" y="1224"/>
      <point x="1083" y="1188" type="curve" smooth="yes"/>
      <point x="1119" y="1152"/>
      <point x="1147" y="1107"/>
      <point x="1166" y="1056" type="curve" smooth="yes"/>
      <point x="1185" y="1005"/>
      <point x="1196" y="949"/>
      <point x="1196" y="887" type="curve" smooth="yes"/>
      <point x="1196" y="850"/>
      <point x="1192" y="815"/>
      <point x="1185" y="782" type="curve" smooth="yes"/>
      <point x="1178" y="749"/>
      <point x="1168" y="715"/>
      <point x="1155" y="684" type="curve" smooth="yes"/>
      <point x="1142" y="653"/>
      <point x="1126" y="621"/>
      <point x="1108" y="590" type="curve" smooth="yes"/>
      <point x="1090" y="559"/>
      <point x="1068" y="524"/>
      <point x="1045" y="491" type="curve" smooth="yes"/>
      <point x="731" y="38" type="line" smooth="yes"/>
      <point x="723" y="27"/>
      <point x="713" y="17"/>
      <point x="698" y="10" type="curve" smooth="yes"/>
      <point x="683" y="3"/>
      <point x="667" y="0"/>
      <point x="648" y="0" type="curve" smooth="yes"/>
      <point x="479" y="0" type="line"/>
      <point x="893" y="514" type="line" smooth="yes"/>
      <point x="906" y="532"/>
      <point x="918" y="547"/>
      <point x="929" y="563" type="curve" smooth="yes"/>
      <point x="940" y="579"/>
      <point x="951" y="594"/>
      <point x="961" y="610" type="curve"/>
      <point x="929" y="583"/>
      <point x="892" y="564"/>
      <point x="851" y="550" type="curve" smooth="yes"/>
      <point x="810" y="536"/>
      <point x="766" y="529"/>
    </contour>
    <contour>
      <point x="1015" y="906" type="curve" smooth="yes"/>
      <point x="1015" y="942"/>
      <point x="1009" y="976"/>
      <point x="997" y="1005" type="curve" smooth="yes"/>
      <point x="985" y="1034"/>
      <point x="970" y="1060"/>
      <point x="950" y="1080" type="curve" smooth="yes"/>
      <point x="930" y="1100"/>
      <point x="905" y="1116"/>
      <point x="877" y="1127" type="curve" smooth="yes"/>
      <point x="849" y="1138"/>
      <point x="816" y="1144"/>
      <point x="782" y="1144" type="curve" smooth="yes"/>
      <point x="746" y="1144"/>
      <point x="714" y="1138"/>
      <point x="685" y="1126" type="curve" smooth="yes"/>
      <point x="656" y="1114"/>
      <point x="631" y="1098"/>
      <point x="610" y="1078" type="curve" smooth="yes"/>
      <point x="589" y="1058"/>
      <point x="574" y="1033"/>
      <point x="562" y="1005" type="curve" smooth="yes"/>
      <point x="550" y="977"/>
      <point x="544" y="944"/>
      <point x="544" y="910" type="curve" smooth="yes"/>
      <point x="544" y="874"/>
      <point x="549" y="841"/>
      <point x="560" y="813" type="curve" smooth="yes"/>
      <point x="571" y="785"/>
      <point x="588" y="759"/>
      <point x="607" y="739" type="curve" smooth="yes"/>
      <point x="626" y="719"/>
      <point x="650" y="704"/>
      <point x="678" y="694" type="curve" smooth="yes"/>
      <point x="706" y="684"/>
      <point x="738" y="678"/>
      <point x="773" y="678" type="curve" smooth="yes"/>
      <point x="812" y="678"/>
      <point x="847" y="684"/>
      <point x="877" y="696" type="curve" smooth="yes"/>
      <point x="907" y="708"/>
      <point x="932" y="727"/>
      <point x="952" y="748" type="curve" smooth="yes"/>
      <point x="972" y="769"/>
      <point x="988" y="794"/>
      <point x="999" y="821" type="curve" smooth="yes"/>
      <point x="1010" y="848"/>
      <point x="1015" y="877"/>
    </contour>
  </outline>
</glyph>
<glyph name="C" format="2">
  <advance width="1418"/>
  <unicode hex="0043"/>
  <outline>
    <contour>
      <point x="1184" y="296" type="curve" smooth="yes"/>
      <point x="1195" y="296"/>
      <point x="1204" y="292"/>
      <point x="1213" y="283" type="curve" smooth="yes"/>
      <point x="1289" y="200" type="line"/>
      <point x="1231" y="132"/>
      <point x="1159" y="79"/>
      <point x="1076" y="41" type="curve" smooth="yes"/>
      <point x="993" y="3"/>
      <point x="891" y="-16"/>
      <point x="773" y="-16" type="curve" smooth="yes"/>
      <point x="670" y="-16"/>
      <point x="576" y="2"/>
      <point x="492" y="37" type="curve" smooth="yes"/>
      <point x="408" y="72"/>
      <point x="337" y="125"/>
      <point x="278" y="188" type="curve" smooth="yes"/>
      <point x="219" y="251"/>
      <point x="172" y="329"/>
      <point x="139" y="419" type="curve" smooth="yes"/>
      <point x="106" y="509"/>
      <point x="90" y="608"/>
      <point x="90" y="716" type="curve" smooth="yes"/>
      <point x="90" y="824"/>
      <point x="108" y="923"/>
      <point x="143" y="1013" type="curve" smooth="yes"/>
      <point x="178" y="1103"/>
      <point x="227" y="1180"/>
      <point x="290" y="1245" type="curve" smooth="yes"/>
      <point x="353" y="1310"/>
      <point x="430" y="1360"/>
      <point x="518" y="1395" type="curve" smooth="yes"/>
      <point x="606" y="1430"/>
      <point x="704" y="1449"/>
      <point x="810" y="1449" type="curve" smooth="yes"/>
      <point x="915" y="1449"/>
      <point x="1005" y="1433"/>
      <point x="1082" y="1400" type="curve" smooth="yes"/>
      <point x="1159" y="1367"/>
      <point x="1227" y="1323"/>
      <point x="1286" y="1267" type="curve"/>
      <point x="1223" y="1178" type="line" smooth="yes"/>
      <point x="1218" y="1171"/>
      <point x="1213" y="1167"/>
      <point x="1207" y="1162" type="curve" smooth="yes"/>
      <point x="1201" y="1157"/>
      <point x="1192" y="1155"/>
      <point x="1181" y="1155" type="curve" smooth="yes"/>
      <point x="1172" y="1155"/>
      <point x="1163" y="1158"/>
      <point x="1153" y="1165" type="curve" smooth="yes"/>
      <point x="1143" y="1172"/>
      <point x="1132" y="1178"/>
      <point x="1119" y="1188" type="curve" smooth="yes"/>
      <point x="1106" y="1198"/>
      <point x="1090" y="1207"/>
      <point x="1072" y="1218" type="curve" smooth="yes"/>
      <point x="1054" y="1229"/>
      <point x="1033" y="1238"/>
      <point x="1008" y="1248" type="curve" smooth="yes"/>
      <point x="983" y="1258"/>
      <point x="955" y="1265"/>
      <point x="922" y="1272" type="curve" smooth="yes"/>
      <point x="889" y="1279"/>
      <point x="852" y="1281"/>
      <point x="809" y="1281" type="curve" smooth="yes"/>
      <point x="732" y="1281"/>
      <point x="661" y="1268"/>
      <point x="598" y="1241" type="curve" smooth="yes"/>
      <point x="535" y="1214"/>
      <point x="480" y="1178"/>
      <point x="434" y="1129" type="curve" smooth="yes"/>
      <point x="388" y="1080"/>
      <point x="352" y="1021"/>
      <point x="326" y="951" type="curve" smooth="yes"/>
      <point x="300" y="881"/>
      <point x="288" y="803"/>
      <point x="288" y="716" type="curve" smooth="yes"/>
      <point x="288" y="627"/>
      <point x="300" y="547"/>
      <point x="326" y="477" type="curve" smooth="yes"/>
      <point x="352" y="407"/>
      <point x="388" y="349"/>
      <point x="432" y="300" type="curve" smooth="yes"/>
      <point x="476" y="251"/>
      <point x="529" y="214"/>
      <point x="589" y="189" type="curve" smooth="yes"/>
      <point x="649" y="164"/>
      <point x="715" y="151"/>
      <point x="785" y="151" type="curve" smooth="yes"/>
      <point x="828" y="151"/>
      <point x="866" y="154"/>
      <point x="900" y="159" type="curve" smooth="yes"/>
      <point x="934" y="164"/>
      <point x="965" y="171"/>
      <point x="994" y="182" type="curve" smooth="yes"/>
      <point x="1023" y="193"/>
      <point x="1051" y="207"/>
      <point x="1076" y="223" type="curve" smooth="yes"/>
      <point x="1101" y="239"/>
      <point x="1126" y="258"/>
      <point x="1151" y="281" type="curve" smooth="yes"/>
      <point x="1162" y="291"/>
      <point x="1173" y="296"/>
    </contour>
  </outline>
</glyph>
<glyph name="D" format="2">
  <advance width="1504"/>
  <unicode hex="0044"/>
  <outline>
    <contour>
      <point x="1416" y="716" type="curve" smooth="yes"/>
      <point x="1416" y="610"/>
      <point x="1399" y="511"/>
      <point x="1365" y="423" type="curve" smooth="yes"/>
      <point x="1331" y="335"/>
      <point x="1283" y="259"/>
      <point x="1221" y="197" type="curve" smooth="yes"/>
      <point x="1159" y="135"/>
      <point x="1085" y="86"/>
      <point x="998" y="52" type="curve" smooth="yes"/>
      <point x="911" y="18"/>
      <point x="815" y="0"/>
      <point x="710" y="0" type="curve" smooth="yes"/>
      <point x="174" y="0" type="line"/>
      <point x="174" y="1433" type="line"/>
      <point x="710" y="1433" type="line" smooth="yes"/>
      <point x="815" y="1433"/>
      <point x="911" y="1416"/>
      <point x="998" y="1382" type="curve" smooth="yes"/>
      <point x="1085" y="1348"/>
      <point x="1159" y="1298"/>
      <point x="1221" y="1235" type="curve" smooth="yes"/>
      <point x="1283" y="1172"/>
      <point x="1331" y="1097"/>
      <point x="1365" y="1009" type="curve" smooth="yes"/>
      <point x="1399" y="921"/>
      <point x="1416" y="822"/>
    </contour>
    <contour>
      <point x="1217" y="716" type="curve" smooth="yes"/>
      <point x="1217" y="804"/>
      <point x="1205" y="883"/>
      <point x="1181" y="952" type="curve" smooth="yes"/>
      <point x="1157" y="1021"/>
      <point x="1123" y="1080"/>
      <point x="1079" y="1128" type="curve" smooth="yes"/>
      <point x="1035" y="1176"/>
      <point x="981" y="1213"/>
      <point x="919" y="1238" type="curve" smooth="yes"/>
      <point x="857" y="1263"/>
      <point x="787" y="1276"/>
      <point x="710" y="1276" type="curve" smooth="yes"/>
      <point x="369" y="1276" type="line"/>
      <point x="369" y="157" type="line"/>
      <point x="710" y="157" type="line" smooth="yes"/>
      <point x="787" y="157"/>
      <point x="857" y="170"/>
      <point x="919" y="195" type="curve" smooth="yes"/>
      <point x="981" y="220"/>
      <point x="1035" y="256"/>
      <point x="1079" y="304" type="curve" smooth="yes"/>
      <point x="1123" y="352"/>
      <point x="1157" y="411"/>
      <point x="1181" y="480" type="curve" smooth="yes"/>
      <point x="1205" y="549"/>
      <point x="1217" y="628"/>
    </contour>
  </outline>
</glyph>
<glyph name="M" format="2">
  <advance width="1640"/>
  <unicode hex="004D"/>
  <outline>
    <contour>
      <point x="832" y="1069" type="line"/>
      <point x="1450" y="0" type="line"/>
      <point x="215" y="0" type="line"/>
    </contour>
    <contour>
      <point x="832" y="760" type="line"/>
      <point x="482" y="154" type="line"/>
      <point x="1182" y="155" type="line"/>
    </contour>
  </outline>
</glyph>
<glyph name="S" format="2">
  <advance width="1060"/>
  <unicode hex="0053"/>
  <outline>
    <contour>
      <point x="908" y="1209" type="line" smooth="yes"/>
      <point x="902" y="1199"/>
      <point x="896" y="1191"/>
      <point x="889" y="1186" type="curve" smooth="yes"/>
      <point x="882" y="1181"/>
      <point x="874" y="1179"/>
      <point x="863" y="1179" type="curve" smooth="yes"/>
      <point x="852" y="1179"/>
      <point x="839" y="1185"/>
      <point x="824" y="1196" type="curve" smooth="yes"/>
      <point x="809" y="1207"/>
      <point x="789" y="1220"/>
      <point x="766" y="1234" type="curve" smooth="yes"/>
      <point x="743" y="1248"/>
      <point x="716" y="1260"/>
      <point x="684" y="1271" type="curve" smooth="yes"/>
      <point x="652" y="1282"/>
      <point x="612" y="1288"/>
      <point x="566" y="1288" type="curve" smooth="yes"/>
      <point x="523" y="1288"/>
      <point x="484" y="1282"/>
      <point x="451" y="1270" type="curve" smooth="yes"/>
      <point x="418" y="1258"/>
      <point x="390" y="1243"/>
      <point x="368" y="1223" type="curve" smooth="yes"/>
      <point x="346" y="1203"/>
      <point x="328" y="1179"/>
      <point x="317" y="1152" type="curve" smooth="yes"/>
      <point x="306" y="1125"/>
      <point x="300" y="1096"/>
      <point x="300" y="1065" type="curve" smooth="yes"/>
      <point x="300" y="1025"/>
      <point x="310" y="992"/>
      <point x="330" y="966" type="curve" smooth="yes"/>
      <point x="350" y="940"/>
      <point x="376" y="917"/>
      <point x="408" y="898" type="curve" smooth="yes"/>
      <point x="440" y="879"/>
      <point x="477" y="864"/>
      <point x="518" y="850" type="curve" smooth="yes"/>
      <point x="559" y="836"/>
      <point x="601" y="822"/>
      <point x="644" y="807" type="curve" smooth="yes"/>
      <point x="687" y="792"/>
      <point x="729" y="776"/>
      <point x="770" y="758" type="curve" smooth="yes"/>
      <point x="811" y="740"/>
      <point x="848" y="716"/>
      <point x="880" y="688" type="curve" smooth="yes"/>
      <point x="912" y="660"/>
      <point x="938" y="626"/>
      <point x="958" y="585" type="curve" smooth="yes"/>
      <point x="978" y="544"/>
      <point x="987" y="494"/>
      <point x="987" y="435" type="curve" smooth="yes"/>
      <point x="987" y="372"/>
      <point x="976" y="313"/>
      <point x="955" y="258" type="curve" smooth="yes"/>
      <point x="934" y="203"/>
      <point x="903" y="156"/>
      <point x="862" y="115" type="curve" smooth="yes"/>
      <point x="821" y="74"/>
      <point x="770" y="42"/>
      <point x="710" y="19" type="curve" smooth="yes"/>
      <point x="650" y="-4"/>
      <point x="583" y="-16"/>
      <point x="507" y="-16" type="curve" smooth="yes"/>
      <point x="414" y="-16"/>
      <point x="330" y="0"/>
      <point x="254" y="34" type="curve" smooth="yes"/>
      <point x="178" y="68"/>
      <point x="112" y="114"/>
      <point x="58" y="171" type="curve"/>
      <point x="114" y="263" type="line" smooth="yes"/>
      <point x="119" y="270"/>
      <point x="126" y="277"/>
      <point x="134" y="282" type="curve" smooth="yes"/>
      <point x="142" y="287"/>
      <point x="150" y="289"/>
      <point x="159" y="289" type="curve" smooth="yes"/>
      <point x="173" y="289"/>
      <point x="189" y="281"/>
      <point x="207" y="266" type="curve" smooth="yes"/>
      <point x="225" y="251"/>
      <point x="247" y="235"/>
      <point x="274" y="217" type="curve" smooth="yes"/>
      <point x="301" y="199"/>
      <point x="334" y="183"/>
      <point x="372" y="168" type="curve" smooth="yes"/>
      <point x="410" y="153"/>
      <point x="458" y="145"/>
      <point x="513" y="145" type="curve" smooth="yes"/>
      <point x="559" y="145"/>
      <point x="600" y="151"/>
      <point x="636" y="164" type="curve" smooth="yes"/>
      <point x="672" y="177"/>
      <point x="703" y="195"/>
      <point x="728" y="218" type="curve" smooth="yes"/>
      <point x="753" y="241"/>
      <point x="772" y="268"/>
      <point x="785" y="300" type="curve" smooth="yes"/>
      <point x="798" y="332"/>
      <point x="805" y="368"/>
      <point x="805" y="407" type="curve" smooth="yes"/>
      <point x="805" y="450"/>
      <point x="796" y="486"/>
      <point x="776" y="514" type="curve" smooth="yes"/>
      <point x="756" y="542"/>
      <point x="730" y="564"/>
      <point x="698" y="583" type="curve" smooth="yes"/>
      <point x="666" y="602"/>
      <point x="629" y="617"/>
      <point x="588" y="630" type="curve" smooth="yes"/>
      <point x="547" y="643"/>
      <point x="505" y="656"/>
      <point x="462" y="670" type="curve" smooth="yes"/>
      <point x="419" y="684"/>
      <point x="377" y="700"/>
      <point x="336" y="718" type="curve" smooth="yes"/>
      <point x="295" y="736"/>
      <point x="259" y="759"/>
      <point x="227" y="788" type="curve" smooth="yes"/>
      <point x="195" y="817"/>
      <point x="170" y="853"/>
      <point x="150" y="896" type="curve" smooth="yes"/>
      <point x="130" y="939"/>
      <point x="120" y="992"/>
      <point x="120" y="1055" type="curve" smooth="yes"/>
      <point x="120" y="1106"/>
      <point x="130" y="1155"/>
      <point x="150" y="1202" type="curve" smooth="yes"/>
      <point x="170" y="1249"/>
      <point x="198" y="1291"/>
      <point x="235" y="1328" type="curve" smooth="yes"/>
      <point x="272" y="1365"/>
      <point x="319" y="1394"/>
      <point x="374" y="1416" type="curve" smooth="yes"/>
      <point x="429" y="1438"/>
      <point x="492" y="1449"/>
      <point x="563" y="1449" type="curve" smooth="yes"/>
      <point x="643" y="1449"/>
      <point x="716" y="1436"/>
      <point x="782" y="1411" type="curve" smooth="yes"/>
      <point x="848" y="1386"/>
      <point x="906" y="1349"/>
      <point x="955" y="1301" type="curve"/>
    </contour>
  </outline>
</glyph>
<glyph name="a" format="2">
  <advance width="1014"/>
  <unicode hex="0061"/>
  <outline>
    <contour>
      <point x="850" y="15" type="line"/>
      <point x="779" y="15" type="line" smooth="yes"/>
      <point x="763" y="15"/>
      <point x="751" y="17"/>
      <point x="741" y="22" type="curve" smooth="yes"/>
      <point x="731" y="27"/>
      <point x="725" y="37"/>
      <point x="722" y="53" type="curve" smooth="yes"/>
      <point x="704" y="137" type="line"/>
      <point x="680" y="115"/>
      <point x="657" y="96"/>
      <point x="634" y="79" type="curve" smooth="yes"/>
      <point x="611" y="62"/>
      <point x="587" y="48"/>
      <point x="562" y="36" type="curve" smooth="yes"/>
      <point x="537" y="24"/>
      <point x="510" y="15"/>
      <point x="482" y="9" type="curve" smooth="yes"/>
      <point x="454" y="3"/>
      <point x="422" y="0"/>
      <point x="387" y="0" type="curve" smooth="yes"/>
      <point x="352" y="0"/>
      <point x="318" y="5"/>
      <point x="287" y="15" type="curve" smooth="yes"/>
      <point x="256" y="25"/>
      <point x="230" y="40"/>
      <point x="207" y="60" type="curve" smooth="yes"/>
      <point x="184" y="80"/>
      <point x="166" y="105"/>
      <point x="152" y="135" type="curve" smooth="yes"/>
      <point x="138" y="165"/>
      <point x="132" y="201"/>
      <point x="132" y="242" type="curve" smooth="yes"/>
      <point x="132" y="278"/>
      <point x="142" y="313"/>
      <point x="162" y="346" type="curve" smooth="yes"/>
      <point x="182" y="379"/>
      <point x="213" y="409"/>
      <point x="257" y="435" type="curve" smooth="yes"/>
      <point x="301" y="461"/>
      <point x="360" y="482"/>
      <point x="431" y="498" type="curve" smooth="yes"/>
      <point x="502" y="514"/>
      <point x="590" y="525"/>
      <point x="693" y="527" type="curve"/>
      <point x="693" y="598" type="line" smooth="yes"/>
      <point x="693" y="669"/>
      <point x="677" y="723"/>
      <point x="647" y="759" type="curve" smooth="yes"/>
      <point x="617" y="795"/>
      <point x="572" y="813"/>
      <point x="513" y="813" type="curve" smooth="yes"/>
      <point x="474" y="813"/>
      <point x="441" y="808"/>
      <point x="414" y="798" type="curve" smooth="yes"/>
      <point x="387" y="788"/>
      <point x="365" y="777"/>
      <point x="345" y="765" type="curve" smooth="yes"/>
      <point x="325" y="753"/>
      <point x="308" y="742"/>
      <point x="294" y="732" type="curve" smooth="yes"/>
      <point x="280" y="722"/>
      <point x="266" y="717"/>
      <point x="252" y="717" type="curve" smooth="yes"/>
      <point x="241" y="717"/>
      <point x="232" y="719"/>
      <point x="224" y="725" type="curve" smooth="yes"/>
      <point x="216" y="731"/>
      <point x="210" y="738"/>
      <point x="205" y="746" type="curve" smooth="yes"/>
      <point x="176" y="798" type="line"/>
      <point x="226" y="847"/>
      <point x="281" y="883"/>
      <point x="339" y="907" type="curve" smooth="yes"/>
      <point x="397" y="931"/>
      <point x="461" y="943"/>
      <point x="532" y="943" type="curve" smooth="yes"/>
      <point x="583" y="943"/>
      <point x="628" y="934"/>
      <point x="668" y="917" type="curve" smooth="yes"/>
      <point x="708" y="900"/>
      <point x="741" y="877"/>
      <point x="768" y="847" type="curve" smooth="yes"/>
      <point x="795" y="817"/>
      <point x="815" y="781"/>
      <point x="829" y="738" type="curve" smooth="yes"/>
      <point x="843" y="695"/>
      <point x="850" y="649"/>
      <point x="850" y="598" type="curve" smooth="yes"/>
    </contour>
    <contour>
      <point x="434" y="113" type="curve" smooth="yes"/>
      <point x="462" y="113"/>
      <point x="489" y="115"/>
      <point x="512" y="121" type="curve" smooth="yes"/>
      <point x="535" y="127"/>
      <point x="557" y="136"/>
      <point x="578" y="146" type="curve" smooth="yes"/>
      <point x="599" y="156"/>
      <point x="618" y="169"/>
      <point x="637" y="184" type="curve" smooth="yes"/>
      <point x="656" y="199"/>
      <point x="675" y="216"/>
      <point x="693" y="235" type="curve"/>
      <point x="693" y="425" type="line"/>
      <point x="619" y="423"/>
      <point x="556" y="417"/>
      <point x="504" y="408" type="curve" smooth="yes"/>
      <point x="452" y="399"/>
      <point x="410" y="386"/>
      <point x="378" y="371" type="curve" smooth="yes"/>
      <point x="346" y="356"/>
      <point x="323" y="338"/>
      <point x="308" y="318" type="curve" smooth="yes"/>
      <point x="293" y="298"/>
      <point x="286" y="275"/>
      <point x="286" y="250" type="curve" smooth="yes"/>
      <point x="286" y="226"/>
      <point x="290" y="205"/>
      <point x="298" y="188" type="curve" smooth="yes"/>
      <point x="306" y="171"/>
      <point x="316" y="156"/>
      <point x="329" y="145" type="curve" smooth="yes"/>
      <point x="342" y="134"/>
      <point x="358" y="125"/>
      <point x="376" y="120" type="curve" smooth="yes"/>
      <point x="394" y="115"/>
      <point x="413" y="113"/>
    </contour>
  </outline>
</glyph>
<glyph name="c" format="2">
  <advance width="934"/>
  <unicode hex="0063"/>
  <outline>
    <contour>
      <point x="837" y="833" type="line" smooth="yes"/>
      <point x="832" y="826"/>
      <point x="826" y="820"/>
      <point x="821" y="816" type="curve" smooth="yes"/>
      <point x="816" y="812"/>
      <point x="808" y="810"/>
      <point x="798" y="810" type="curve" smooth="yes"/>
      <point x="788" y="810"/>
      <point x="778" y="814"/>
      <point x="766" y="822" type="curve" smooth="yes"/>
      <point x="754" y="830"/>
      <point x="739" y="840"/>
      <point x="721" y="850" type="curve" smooth="yes"/>
      <point x="703" y="860"/>
      <point x="682" y="870"/>
      <point x="656" y="878" type="curve" smooth="yes"/>
      <point x="630" y="886"/>
      <point x="598" y="890"/>
      <point x="561" y="890" type="curve" smooth="yes"/>
      <point x="512" y="890"/>
      <point x="468" y="882"/>
      <point x="430" y="864" type="curve" smooth="yes"/>
      <point x="392" y="846"/>
      <point x="360" y="820"/>
      <point x="334" y="787" type="curve" smooth="yes"/>
      <point x="308" y="754"/>
      <point x="289" y="713"/>
      <point x="276" y="666" type="curve" smooth="yes"/>
      <point x="263" y="619"/>
      <point x="257" y="566"/>
      <point x="257" y="507" type="curve" smooth="yes"/>
      <point x="257" y="446"/>
      <point x="264" y="392"/>
      <point x="278" y="344" type="curve" smooth="yes"/>
      <point x="292" y="296"/>
      <point x="312" y="256"/>
      <point x="337" y="224" type="curve" smooth="yes"/>
      <point x="362" y="192"/>
      <point x="394" y="167"/>
      <point x="430" y="150" type="curve" smooth="yes"/>
      <point x="466" y="133"/>
      <point x="507" y="124"/>
      <point x="552" y="124" type="curve" smooth="yes"/>
      <point x="595" y="124"/>
      <point x="631" y="130"/>
      <point x="659" y="140" type="curve" smooth="yes"/>
      <point x="687" y="150"/>
      <point x="710" y="161"/>
      <point x="729" y="174" type="curve" smooth="yes"/>
      <point x="748" y="187"/>
      <point x="763" y="198"/>
      <point x="775" y="208" type="curve" smooth="yes"/>
      <point x="787" y="218"/>
      <point x="799" y="224"/>
      <point x="811" y="224" type="curve" smooth="yes"/>
      <point x="826" y="224"/>
      <point x="838" y="218"/>
      <point x="845" y="207" type="curve" smooth="yes"/>
      <point x="895" y="142" type="line"/>
      <point x="851" y="88"/>
      <point x="796" y="49"/>
      <point x="730" y="24" type="curve" smooth="yes"/>
      <point x="664" y="-1"/>
      <point x="594" y="-14"/>
      <point x="521" y="-14" type="curve" smooth="yes"/>
      <point x="458" y="-14"/>
      <point x="398" y="-2"/>
      <point x="344" y="21" type="curve" smooth="yes"/>
      <point x="290" y="44"/>
      <point x="243" y="78"/>
      <point x="203" y="122" type="curve" smooth="yes"/>
      <point x="163" y="166"/>
      <point x="131" y="221"/>
      <point x="108" y="286" type="curve" smooth="yes"/>
      <point x="85" y="351"/>
      <point x="74" y="424"/>
      <point x="74" y="507" type="curve" smooth="yes"/>
      <point x="74" y="582"/>
      <point x="85" y="652"/>
      <point x="106" y="716" type="curve" smooth="yes"/>
      <point x="127" y="780"/>
      <point x="158" y="836"/>
      <point x="198" y="882" type="curve" smooth="yes"/>
      <point x="238" y="928"/>
      <point x="288" y="964"/>
      <point x="347" y="990" type="curve" smooth="yes"/>
      <point x="406" y="1016"/>
      <point x="474" y="1029"/>
      <point x="551" y="1029" type="curve" smooth="yes"/>
      <point x="622" y="1029"/>
      <point x="684" y="1017"/>
      <point x="739" y="994" type="curve" smooth="yes"/>
      <point x="794" y="971"/>
      <point x="842" y="939"/>
      <point x="884" y="897" type="curve"/>
    </contour>
  </outline>
</glyph>
<glyph name="d" format="2">
  <advance width="1118"/>
  <unicode hex="0064"/>
  <outline>
    <contour>
      <point x="825" y="13" type="line" smooth="yes"/>
      <point x="802" y="13"/>
      <point x="788" y="24"/>
      <point x="782" y="46" type="curve"/>
      <point x="767" y="157" type="line"/>
      <point x="728" y="110"/>
      <point x="684" y="71"/>
      <point x="634" y="43" type="curve" smooth="yes"/>
      <point x="584" y="15"/>
      <point x="526" y="0"/>
      <point x="461" y="0" type="curve" smooth="yes"/>
      <point x="409" y="0"/>
      <point x="362" y="10"/>
      <point x="319" y="30" type="curve" smooth="yes"/>
      <point x="276" y="50"/>
      <point x="240" y="80"/>
      <point x="210" y="119" type="curve" smooth="yes"/>
      <point x="180" y="158"/>
      <point x="157" y="207"/>
      <point x="141" y="265" type="curve" smooth="yes"/>
      <point x="125" y="323"/>
      <point x="117" y="390"/>
      <point x="117" y="466" type="curve" smooth="yes"/>
      <point x="117" y="533"/>
      <point x="126" y="595"/>
      <point x="144" y="653" type="curve" smooth="yes"/>
      <point x="162" y="711"/>
      <point x="188" y="761"/>
      <point x="222" y="804" type="curve" smooth="yes"/>
      <point x="256" y="847"/>
      <point x="296" y="880"/>
      <point x="345" y="904" type="curve" smooth="yes"/>
      <point x="394" y="928"/>
      <point x="449" y="941"/>
      <point x="511" y="941" type="curve" smooth="yes"/>
      <point x="567" y="941"/>
      <point x="614" y="931"/>
      <point x="654" y="912" type="curve" smooth="yes"/>
      <point x="694" y="893"/>
      <point x="729" y="867"/>
      <point x="760" y="833" type="curve"/>
      <point x="760" y="1339" type="line"/>
      <point x="920" y="1339" type="line"/>
      <point x="920" y="13" type="line"/>
    </contour>
    <contour>
      <point x="514" y="130" type="curve" smooth="yes"/>
      <point x="566" y="130"/>
      <point x="613" y="142"/>
      <point x="652" y="166" type="curve" smooth="yes"/>
      <point x="691" y="190"/>
      <point x="727" y="224"/>
      <point x="760" y="268" type="curve"/>
      <point x="760" y="709" type="line"/>
      <point x="731" y="749"/>
      <point x="698" y="776"/>
      <point x="663" y="792" type="curve" smooth="yes"/>
      <point x="628" y="808"/>
      <point x="590" y="816"/>
      <point x="547" y="816" type="curve" smooth="yes"/>
      <point x="462" y="816"/>
      <point x="397" y="786"/>
      <point x="351" y="725" type="curve" smooth="yes"/>
      <point x="305" y="664"/>
      <point x="282" y="578"/>
      <point x="282" y="466" type="curve" smooth="yes"/>
      <point x="282" y="407"/>
      <point x="288" y="355"/>
      <point x="298" y="313" type="curve" smooth="yes"/>
      <point x="308" y="271"/>
      <point x="323" y="236"/>
      <point x="343" y="209" type="curve" smooth="yes"/>
      <point x="363" y="182"/>
      <point x="386" y="162"/>
      <point x="415" y="149" type="curve" smooth="yes"/>
      <point x="444" y="136"/>
      <point x="477" y="130"/>
    </contour>
  </outline>
</glyph>
<glyph name="e" format="2">
  <advance width="1048"/>
  <unicode hex="0065"/>
  <outline>
    <contour>
      <point x="547" y="1029" type="curve" smooth="yes"/>
      <point x="608" y="1029"/>
      <point x="664" y="1018"/>
      <point x="715" y="998" type="curve" smooth="yes"/>
      <point x="766" y="978"/>
      <point x="811" y="948"/>
      <point x="848" y="910" type="curve" smooth="yes"/>
      <point x="885" y="872"/>
      <point x="915" y="824"/>
      <point x="936" y="768" type="curve" smooth="yes"/>
      <point x="957" y="712"/>
      <point x="967" y="648"/>
      <point x="967" y="576" type="curve" smooth="yes"/>
      <point x="967" y="548"/>
      <point x="964" y="529"/>
      <point x="958" y="520" type="curve" smooth="yes"/>
      <point x="952" y="511"/>
      <point x="941" y="506"/>
      <point x="924" y="506" type="curve" smooth="yes"/>
      <point x="250" y="506" type="line"/>
      <point x="251" y="442"/>
      <point x="260" y="386"/>
      <point x="276" y="339" type="curve" smooth="yes"/>
      <point x="292" y="292"/>
      <point x="314" y="252"/>
      <point x="342" y="220" type="curve" smooth="yes"/>
      <point x="370" y="188"/>
      <point x="403" y="166"/>
      <point x="442" y="150" type="curve" smooth="yes"/>
      <point x="481" y="134"/>
      <point x="524" y="126"/>
      <point x="572" y="126" type="curve" smooth="yes"/>
      <point x="617" y="126"/>
      <point x="656" y="132"/>
      <point x="688" y="142" type="curve" smooth="yes"/>
      <point x="720" y="152"/>
      <point x="748" y="163"/>
      <point x="771" y="175" type="curve" smooth="yes"/>
      <point x="794" y="187"/>
      <point x="814" y="198"/>
      <point x="830" y="208" type="curve" smooth="yes"/>
      <point x="846" y="218"/>
      <point x="859" y="224"/>
      <point x="870" y="224" type="curve" smooth="yes"/>
      <point x="885" y="224"/>
      <point x="896" y="218"/>
      <point x="904" y="207" type="curve" smooth="yes"/>
      <point x="954" y="142" type="line"/>
      <point x="932" y="115"/>
      <point x="906" y="92"/>
      <point x="875" y="72" type="curve" smooth="yes"/>
      <point x="844" y="52"/>
      <point x="811" y="37"/>
      <point x="776" y="24" type="curve" smooth="yes"/>
      <point x="741" y="11"/>
      <point x="705" y="2"/>
      <point x="668" y="-4" type="curve" smooth="yes"/>
      <point x="631" y="-10"/>
      <point x="594" y="-14"/>
      <point x="557" y="-14" type="curve" smooth="yes"/>
      <point x="487" y="-14"/>
      <point x="423" y="-2"/>
      <point x="364" y="22" type="curve" smooth="yes"/>
      <point x="305" y="46"/>
      <point x="253" y="80"/>
      <point x="210" y="126" type="curve" smooth="yes"/>
      <point x="167" y="172"/>
      <point x="134" y="228"/>
      <point x="110" y="295" type="curve" smooth="yes"/>
      <point x="86" y="362"/>
      <point x="74" y="440"/>
      <point x="74" y="527" type="curve" smooth="yes"/>
      <point x="74" y="598"/>
      <point x="84" y="664"/>
      <point x="106" y="725" type="curve" smooth="yes"/>
      <point x="128" y="786"/>
      <point x="159" y="839"/>
      <point x="200" y="884" type="curve" smooth="yes"/>
      <point x="241" y="929"/>
      <point x="290" y="964"/>
      <point x="349" y="990" type="curve" smooth="yes"/>
      <point x="408" y="1016"/>
      <point x="474" y="1029"/>
    </contour>
    <contour>
      <point x="551" y="898" type="curve" smooth="yes"/>
      <point x="465" y="898"/>
      <point x="397" y="874"/>
      <point x="348" y="824" type="curve" smooth="yes"/>
      <point x="299" y="774"/>
      <point x="268" y="705"/>
      <point x="256" y="617" type="curve"/>
      <point x="807" y="617" type="line"/>
      <point x="807" y="658"/>
      <point x="801" y="696"/>
      <point x="790" y="730" type="curve" smooth="yes"/>
      <point x="779" y="764"/>
      <point x="762" y="795"/>
      <point x="740" y="820" type="curve" smooth="yes"/>
      <point x="718" y="845"/>
      <point x="692" y="864"/>
      <point x="660" y="878" type="curve" smooth="yes"/>
      <point x="628" y="892"/>
      <point x="592" y="898"/>
    </contour>
  </outline>
</glyph>
<glyph name="f" format="2">
  <advance width="674"/>
  <unicode hex="0066"/>
  <outline>
    <contour>
      <point x="186" y="0" type="line"/>
      <point x="186" y="861" type="line"/>
      <point x="74" y="874" type="line" smooth="yes"/>
      <point x="60" y="877"/>
      <point x="49" y="883"/>
      <point x="40" y="890" type="curve" smooth="yes"/>
      <point x="31" y="897"/>
      <point x="26" y="907"/>
      <point x="26" y="920" type="curve" smooth="yes"/>
      <point x="26" y="993" type="line"/>
      <point x="186" y="993" type="line"/>
      <point x="186" y="1091" type="line" smooth="yes"/>
      <point x="186" y="1149"/>
      <point x="194" y="1201"/>
      <point x="210" y="1246" type="curve" smooth="yes"/>
      <point x="226" y="1291"/>
      <point x="250" y="1329"/>
      <point x="280" y="1360" type="curve" smooth="yes"/>
      <point x="310" y="1391"/>
      <point x="347" y="1414"/>
      <point x="390" y="1430" type="curve" smooth="yes"/>
      <point x="433" y="1446"/>
      <point x="481" y="1454"/>
      <point x="534" y="1454" type="curve" smooth="yes"/>
      <point x="579" y="1454"/>
      <point x="621" y="1447"/>
      <point x="660" y="1434" type="curve"/>
      <point x="656" y="1345" type="line" smooth="yes"/>
      <point x="655" y="1332"/>
      <point x="650" y="1324"/>
      <point x="639" y="1321" type="curve" smooth="yes"/>
      <point x="628" y="1318"/>
      <point x="613" y="1317"/>
      <point x="594" y="1317" type="curve" smooth="yes"/>
      <point x="563" y="1317" type="line" smooth="yes"/>
      <point x="532" y="1317"/>
      <point x="505" y="1313"/>
      <point x="480" y="1305" type="curve" smooth="yes"/>
      <point x="455" y="1297"/>
      <point x="433" y="1284"/>
      <point x="415" y="1266" type="curve" smooth="yes"/>
      <point x="397" y="1248"/>
      <point x="384" y="1224"/>
      <point x="374" y="1195" type="curve" smooth="yes"/>
      <point x="364" y="1166"/>
      <point x="359" y="1129"/>
      <point x="359" y="1086" type="curve" smooth="yes"/>
      <point x="359" y="993" type="line"/>
      <point x="652" y="993" type="line"/>
      <point x="652" y="864" type="line"/>
      <point x="365" y="864" type="line"/>
      <point x="365" y="0" type="line"/>
    </contour>
  </outline>
</glyph>
<glyph name="g" format="2">
  <advance width="1022"/>
  <unicode hex="0067"/>
  <outline>
    <contour>
      <point x="490" y="910" type="curve" smooth="yes"/>
      <point x="530" y="910"/>
      <point x="567" y="906"/>
      <point x="601" y="897" type="curve" smooth="yes"/>
      <point x="635" y="888"/>
      <point x="668" y="876"/>
      <point x="696" y="859" type="curve"/>
      <point x="943" y="859" type="line"/>
      <point x="943" y="800" type="line" smooth="yes"/>
      <point x="943" y="780"/>
      <point x="930" y="767"/>
      <point x="905" y="762" type="curve" smooth="yes"/>
      <point x="802" y="747" type="line"/>
      <point x="822" y="708"/>
      <point x="832" y="665"/>
      <point x="832" y="617" type="curve" smooth="yes"/>
      <point x="832" y="573"/>
      <point x="824" y="532"/>
      <point x="807" y="496" type="curve" smooth="yes"/>
      <point x="790" y="460"/>
      <point x="766" y="429"/>
      <point x="736" y="403" type="curve" smooth="yes"/>
      <point x="706" y="377"/>
      <point x="670" y="357"/>
      <point x="628" y="343" type="curve" smooth="yes"/>
      <point x="586" y="329"/>
      <point x="540" y="323"/>
      <point x="490" y="323" type="curve" smooth="yes"/>
      <point x="447" y="323"/>
      <point x="408" y="328"/>
      <point x="370" y="338" type="curve"/>
      <point x="351" y="326"/>
      <point x="336" y="313"/>
      <point x="326" y="299" type="curve" smooth="yes"/>
      <point x="316" y="285"/>
      <point x="311" y="272"/>
      <point x="311" y="259" type="curve" smooth="yes"/>
      <point x="311" y="237"/>
      <point x="320" y="221"/>
      <point x="337" y="210" type="curve" smooth="yes"/>
      <point x="354" y="199"/>
      <point x="378" y="191"/>
      <point x="407" y="186" type="curve" smooth="yes"/>
      <point x="436" y="181"/>
      <point x="468" y="178"/>
      <point x="505" y="177" type="curve" smooth="yes"/>
      <point x="542" y="176"/>
      <point x="579" y="174"/>
      <point x="617" y="171" type="curve" smooth="yes"/>
      <point x="655" y="168"/>
      <point x="692" y="164"/>
      <point x="729" y="157" type="curve" smooth="yes"/>
      <point x="766" y="150"/>
      <point x="798" y="140"/>
      <point x="827" y="125" type="curve" smooth="yes"/>
      <point x="856" y="110"/>
      <point x="879" y="88"/>
      <point x="896" y="62" type="curve" smooth="yes"/>
      <point x="913" y="36"/>
      <point x="922" y="2"/>
      <point x="922" y="-40" type="curve" smooth="yes"/>
      <point x="922" y="-79"/>
      <point x="913" y="-117"/>
      <point x="893" y="-154" type="curve" smooth="yes"/>
      <point x="873" y="-191"/>
      <point x="846" y="-223"/>
      <point x="809" y="-251" type="curve" smooth="yes"/>
      <point x="772" y="-279"/>
      <point x="728" y="-303"/>
      <point x="675" y="-320" type="curve" smooth="yes"/>
      <point x="622" y="-337"/>
      <point x="563" y="-345"/>
      <point x="496" y="-345" type="curve" smooth="yes"/>
      <point x="429" y="-345"/>
      <point x="371" y="-338"/>
      <point x="321" y="-325" type="curve" smooth="yes"/>
      <point x="271" y="-312"/>
      <point x="229" y="-294"/>
      <point x="196" y="-272" type="curve" smooth="yes"/>
      <point x="163" y="-250"/>
      <point x="138" y="-224"/>
      <point x="122" y="-195" type="curve" smooth="yes"/>
      <point x="106" y="-166"/>
      <point x="97" y="-136"/>
      <point x="97" y="-104" type="curve" smooth="yes"/>
      <point x="97" y="-59"/>
      <point x="112" y="-21"/>
      <point x="140" y="11" type="curve" smooth="yes"/>
      <point x="168" y="43"/>
      <point x="207" y="67"/>
      <point x="257" y="86" type="curve"/>
      <point x="231" y="98"/>
      <point x="211" y="114"/>
      <point x="196" y="134" type="curve" smooth="yes"/>
      <point x="181" y="154"/>
      <point x="173" y="181"/>
      <point x="173" y="215" type="curve" smooth="yes"/>
      <point x="173" y="228"/>
      <point x="175" y="242"/>
      <point x="180" y="256" type="curve" smooth="yes"/>
      <point x="185" y="270"/>
      <point x="192" y="283"/>
      <point x="202" y="297" type="curve" smooth="yes"/>
      <point x="212" y="311"/>
      <point x="224" y="324"/>
      <point x="238" y="337" type="curve" smooth="yes"/>
      <point x="252" y="350"/>
      <point x="270" y="360"/>
      <point x="289" y="370" type="curve"/>
      <point x="244" y="395"/>
      <point x="209" y="429"/>
      <point x="183" y="471" type="curve" smooth="yes"/>
      <point x="157" y="513"/>
      <point x="145" y="561"/>
      <point x="145" y="617" type="curve" smooth="yes"/>
      <point x="145" y="661"/>
      <point x="153" y="702"/>
      <point x="170" y="738" type="curve" smooth="yes"/>
      <point x="187" y="774"/>
      <point x="211" y="805"/>
      <point x="242" y="831" type="curve" smooth="yes"/>
      <point x="273" y="857"/>
      <point x="309" y="876"/>
      <point x="351" y="890" type="curve" smooth="yes"/>
      <point x="393" y="904"/>
      <point x="440" y="910"/>
    </contour>
    <contour>
      <point x="775" y="-66" type="curve" smooth="yes"/>
      <point x="775" y="-43"/>
      <point x="769" y="-25"/>
      <point x="756" y="-11" type="curve" smooth="yes"/>
      <point x="743" y="3"/>
      <point x="726" y="13"/>
      <point x="704" y="21" type="curve" smooth="yes"/>
      <point x="682" y="29"/>
      <point x="658" y="33"/>
      <point x="630" y="37" type="curve" smooth="yes"/>
      <point x="602" y="41"/>
      <point x="572" y="43"/>
      <point x="541" y="45" type="curve" smooth="yes"/>
      <point x="510" y="47"/>
      <point x="477" y="48"/>
      <point x="445" y="50" type="curve" smooth="yes"/>
      <point x="413" y="52"/>
      <point x="382" y="55"/>
      <point x="353" y="60" type="curve"/>
      <point x="319" y="44"/>
      <point x="290" y="23"/>
      <point x="269" y="0" type="curve" smooth="yes"/>
      <point x="248" y="-23"/>
      <point x="237" y="-51"/>
      <point x="237" y="-83" type="curve" smooth="yes"/>
      <point x="237" y="-103"/>
      <point x="243" y="-122"/>
      <point x="253" y="-140" type="curve" smooth="yes"/>
      <point x="263" y="-158"/>
      <point x="279" y="-173"/>
      <point x="301" y="-186" type="curve" smooth="yes"/>
      <point x="323" y="-199"/>
      <point x="350" y="-209"/>
      <point x="383" y="-217" type="curve" smooth="yes"/>
      <point x="416" y="-225"/>
      <point x="454" y="-228"/>
      <point x="498" y="-228" type="curve" smooth="yes"/>
      <point x="541" y="-228"/>
      <point x="580" y="-225"/>
      <point x="614" y="-217" type="curve" smooth="yes"/>
      <point x="648" y="-209"/>
      <point x="677" y="-197"/>
      <point x="701" y="-183" type="curve" smooth="yes"/>
      <point x="725" y="-169"/>
      <point x="743" y="-152"/>
      <point x="756" y="-132" type="curve" smooth="yes"/>
      <point x="769" y="-112"/>
      <point x="775" y="-90"/>
    </contour>
    <contour>
      <point x="490" y="429" type="curve" smooth="yes"/>
      <point x="522" y="429"/>
      <point x="551" y="433"/>
      <point x="576" y="442" type="curve" smooth="yes"/>
      <point x="601" y="451"/>
      <point x="622" y="464"/>
      <point x="639" y="480" type="curve" smooth="yes"/>
      <point x="656" y="496"/>
      <point x="669" y="516"/>
      <point x="677" y="538" type="curve" smooth="yes"/>
      <point x="685" y="560"/>
      <point x="689" y="585"/>
      <point x="689" y="612" type="curve" smooth="yes"/>
      <point x="689" y="668"/>
      <point x="672" y="713"/>
      <point x="638" y="746" type="curve" smooth="yes"/>
      <point x="604" y="779"/>
      <point x="555" y="795"/>
      <point x="490" y="795" type="curve" smooth="yes"/>
      <point x="426" y="795"/>
      <point x="377" y="779"/>
      <point x="343" y="746" type="curve" smooth="yes"/>
      <point x="309" y="713"/>
      <point x="292" y="668"/>
      <point x="292" y="612" type="curve" smooth="yes"/>
      <point x="292" y="585"/>
      <point x="296" y="560"/>
      <point x="305" y="538" type="curve" smooth="yes"/>
      <point x="314" y="516"/>
      <point x="327" y="496"/>
      <point x="344" y="480" type="curve" smooth="yes"/>
      <point x="361" y="464"/>
      <point x="381" y="451"/>
      <point x="406" y="442" type="curve" smooth="yes"/>
      <point x="431" y="433"/>
      <point x="458" y="429"/>
    </contour>
  </outline>
</glyph>
<glyph name="i" format="2">
  <advance width="512"/>
  <unicode hex="0069"/>
  <outline>
    <contour>
      <point x="335" y="912" type="line"/>
      <point x="335" y="-0" type="line"/>
      <point x="175" y="-0" type="line"/>
      <point x="175" y="912" type="line"/>
    </contour>
    <contour>
      <point x="371" y="1198" type="curve" smooth="yes"/>
      <point x="371" y="1182"/>
      <point x="368" y="1168"/>
      <point x="362" y="1154" type="curve" smooth="yes"/>
      <point x="356" y="1140"/>
      <point x="347" y="1128"/>
      <point x="337" y="1118" type="curve" smooth="yes"/>
      <point x="327" y="1108"/>
      <point x="314" y="1099"/>
      <point x="300" y="1093" type="curve" smooth="yes"/>
      <point x="286" y="1087"/>
      <point x="272" y="1084"/>
      <point x="256" y="1084" type="curve" smooth="yes"/>
      <point x="240" y="1084"/>
      <point x="226" y="1087"/>
      <point x="212" y="1093" type="curve" smooth="yes"/>
      <point x="198" y="1099"/>
      <point x="186" y="1108"/>
      <point x="176" y="1118" type="curve" smooth="yes"/>
      <point x="166" y="1128"/>
      <point x="158" y="1140"/>
      <point x="152" y="1154" type="curve" smooth="yes"/>
      <point x="146" y="1168"/>
      <point x="143" y="1182"/>
      <point x="143" y="1198" type="curve" smooth="yes"/>
      <point x="143" y="1214"/>
      <point x="146" y="1228"/>
      <point x="152" y="1242" type="curve" smooth="yes"/>
      <point x="158" y="1256"/>
      <point x="166" y="1269"/>
      <point x="176" y="1279" type="curve" smooth="yes"/>
      <point x="186" y="1289"/>
      <point x="198" y="1298"/>
      <point x="212" y="1304" type="curve" smooth="yes"/>
      <point x="226" y="1310"/>
      <point x="240" y="1313"/>
      <point x="256" y="1313" type="curve" smooth="yes"/>
      <point x="272" y="1313"/>
      <point x="286" y="1310"/>
      <point x="300" y="1304" type="curve" smooth="yes"/>
      <point x="314" y="1298"/>
      <point x="327" y="1289"/>
      <point x="337" y="1279" type="curve" smooth="yes"/>
      <point x="347" y="1269"/>
      <point x="356" y="1256"/>
      <point x="362" y="1242" type="curve" smooth="yes"/>
      <point x="368" y="1228"/>
      <point x="371" y="1214"/>
    </contour>
  </outline>
</glyph>
<glyph name="j" format="2">
  <advance width="508"/>
  <unicode hex="006A"/>
  <outline>
    <contour>
      <point x="326" y="912" type="line"/>
      <point x="326" y="-67" type="line" smooth="yes"/>
      <point x="326" y="-104"/>
      <point x="322" y="-137"/>
      <point x="312" y="-169" type="curve" smooth="yes"/>
      <point x="302" y="-201"/>
      <point x="287" y="-228"/>
      <point x="266" y="-251" type="curve" smooth="yes"/>
      <point x="245" y="-274"/>
      <point x="219" y="-293"/>
      <point x="186" y="-307" type="curve" smooth="yes"/>
      <point x="153" y="-321"/>
      <point x="115" y="-327"/>
      <point x="69" y="-327" type="curve" smooth="yes"/>
      <point x="49" y="-327"/>
      <point x="31" y="-325"/>
      <point x="15" y="-322" type="curve" smooth="yes"/>
      <point x="-1" y="-319"/>
      <point x="-18" y="-315"/>
      <point x="-34" y="-309" type="curve"/>
      <point x="-27" y="-222" type="line" smooth="yes"/>
      <point x="-26" y="-214"/>
      <point x="-23" y="-210"/>
      <point x="-19" y="-208" type="curve" smooth="yes"/>
      <point x="-15" y="-206"/>
      <point x="-8" y="-204"/>
      <point x="1" y="-204" type="curve" smooth="yes"/>
      <point x="6" y="-204"/>
      <point x="11" y="-205"/>
      <point x="16" y="-205" type="curve" smooth="yes"/>
      <point x="21" y="-205"/>
      <point x="28" y="-205"/>
      <point x="36" y="-205" type="curve" smooth="yes"/>
      <point x="83" y="-205"/>
      <point x="116" y="-194"/>
      <point x="136" y="-172" type="curve" smooth="yes"/>
      <point x="156" y="-150"/>
      <point x="166" y="-116"/>
      <point x="166" y="-67" type="curve" smooth="yes"/>
      <point x="166" y="912" type="line"/>
    </contour>
    <contour>
      <point x="362" y="1199" type="curve" smooth="yes"/>
      <point x="362" y="1183"/>
      <point x="359" y="1169"/>
      <point x="353" y="1155" type="curve" smooth="yes"/>
      <point x="347" y="1141"/>
      <point x="337" y="1129"/>
      <point x="327" y="1119" type="curve" smooth="yes"/>
      <point x="317" y="1109"/>
      <point x="305" y="1100"/>
      <point x="291" y="1094" type="curve" smooth="yes"/>
      <point x="277" y="1088"/>
      <point x="263" y="1085"/>
      <point x="247" y="1085" type="curve" smooth="yes"/>
      <point x="231" y="1085"/>
      <point x="217" y="1088"/>
      <point x="203" y="1094" type="curve" smooth="yes"/>
      <point x="189" y="1100"/>
      <point x="177" y="1109"/>
      <point x="167" y="1119" type="curve" smooth="yes"/>
      <point x="157" y="1129"/>
      <point x="148" y="1141"/>
      <point x="142" y="1155" type="curve" smooth="yes"/>
      <point x="136" y="1169"/>
      <point x="133" y="1183"/>
      <point x="133" y="1199" type="curve" smooth="yes"/>
      <point x="133" y="1215"/>
      <point x="136" y="1229"/>
      <point x="142" y="1243" type="curve" smooth="yes"/>
      <point x="148" y="1257"/>
      <point x="157" y="1270"/>
      <point x="167" y="1280" type="curve" smooth="yes"/>
      <point x="177" y="1290"/>
      <point x="189" y="1299"/>
      <point x="203" y="1305" type="curve" smooth="yes"/>
      <point x="217" y="1311"/>
      <point x="231" y="1314"/>
      <point x="247" y="1314" type="curve" smooth="yes"/>
      <point x="263" y="1314"/>
      <point x="277" y="1311"/>
      <point x="291" y="1305" type="curve" smooth="yes"/>
      <point x="305" y="1299"/>
      <point x="317" y="1290"/>
      <point x="327" y="1280" type="curve" smooth="yes"/>
      <point x="337" y="1270"/>
      <point x="347" y="1257"/>
      <point x="353" y="1243" type="curve" smooth="yes"/>
      <point x="359" y="1229"/>
      <point x="362" y="1215"/>
    </contour>
  </outline>
</glyph>
<glyph name="m" format="2">
  <advance width="1552"/>
  <unicode hex="006D"/>
  <outline>
    <contour>
      <point x="215" y="0" type="line"/>
      <point x="215" y="913" type="line"/>
      <point x="310" y="913" type="line" smooth="yes"/>
      <point x="333" y="913"/>
      <point x="347" y="902"/>
      <point x="353" y="879" type="curve"/>
      <point x="365" y="786" type="line"/>
      <point x="399" y="827"/>
      <point x="436" y="860"/>
      <point x="477" y="887" type="curve" smooth="yes"/>
      <point x="518" y="914"/>
      <point x="569" y="927"/>
      <point x="624" y="927" type="curve" smooth="yes"/>
      <point x="686" y="927"/>
      <point x="735" y="910"/>
      <point x="773" y="876" type="curve" smooth="yes"/>
      <point x="811" y="842"/>
      <point x="838" y="794"/>
      <point x="855" y="736" type="curve"/>
      <point x="867" y="769"/>
      <point x="886" y="797"/>
      <point x="906" y="822" type="curve" smooth="yes"/>
      <point x="926" y="847"/>
      <point x="949" y="867"/>
      <point x="975" y="882" type="curve" smooth="yes"/>
      <point x="1001" y="897"/>
      <point x="1027" y="909"/>
      <point x="1057" y="916" type="curve" smooth="yes"/>
      <point x="1087" y="923"/>
      <point x="1116" y="927"/>
      <point x="1146" y="927" type="curve" smooth="yes"/>
      <point x="1194" y="927"/>
      <point x="1236" y="919"/>
      <point x="1274" y="904" type="curve" smooth="yes"/>
      <point x="1312" y="889"/>
      <point x="1344" y="867"/>
      <point x="1370" y="837" type="curve" smooth="yes"/>
      <point x="1396" y="807"/>
      <point x="1417" y="771"/>
      <point x="1430" y="728" type="curve" smooth="yes"/>
      <point x="1443" y="685"/>
      <point x="1450" y="636"/>
      <point x="1450" y="581" type="curve" smooth="yes"/>
      <point x="1450" y="0" type="line"/>
      <point x="1290" y="0" type="line"/>
      <point x="1290" y="581" type="line" smooth="yes"/>
      <point x="1290" y="652"/>
      <point x="1274" y="707"/>
      <point x="1243" y="744" type="curve" smooth="yes"/>
      <point x="1212" y="781"/>
      <point x="1166" y="799"/>
      <point x="1107" y="799" type="curve" smooth="yes"/>
      <point x="1080" y="799"/>
      <point x="1058" y="796"/>
      <point x="1033" y="786" type="curve" smooth="yes"/>
      <point x="1008" y="776"/>
      <point x="988" y="762"/>
      <point x="970" y="744" type="curve" smooth="yes"/>
      <point x="952" y="726"/>
      <point x="938" y="703"/>
      <point x="928" y="675" type="curve" smooth="yes"/>
      <point x="918" y="647"/>
      <point x="911" y="617"/>
      <point x="911" y="581" type="curve" smooth="yes"/>
      <point x="911" y="0" type="line"/>
      <point x="751" y="0" type="line"/>
      <point x="751" y="581" type="line" smooth="yes"/>
      <point x="751" y="654"/>
      <point x="737" y="709"/>
      <point x="707" y="745" type="curve" smooth="yes"/>
      <point x="677" y="781"/>
      <point x="634" y="799"/>
      <point x="579" y="799" type="curve" smooth="yes"/>
      <point x="539" y="799"/>
      <point x="502" y="789"/>
      <point x="468" y="767" type="curve" smooth="yes"/>
      <point x="434" y="745"/>
      <point x="404" y="716"/>
      <point x="375" y="680" type="curve"/>
      <point x="375" y="0" type="line"/>
    </contour>
  </outline>
</glyph>
<glyph name="n" format="2">
  <advance width="1082"/>
  <unicode hex="006E"/>
  <outline>
    <contour>
      <point x="193" y="0" type="line"/>
      <point x="193" y="933" type="line"/>
      <point x="290" y="933" type="line" smooth="yes"/>
      <point x="313" y="933"/>
      <point x="328" y="921"/>
      <point x="334" y="899" type="curve"/>
      <point x="348" y="798" type="line"/>
      <point x="388" y="843"/>
      <point x="434" y="879"/>
      <point x="484" y="907" type="curve" smooth="yes"/>
      <point x="534" y="935"/>
      <point x="592" y="948"/>
      <point x="658" y="948" type="curve" smooth="yes"/>
      <point x="709" y="948"/>
      <point x="754" y="940"/>
      <point x="793" y="923" type="curve" smooth="yes"/>
      <point x="832" y="906"/>
      <point x="864" y="882"/>
      <point x="890" y="851" type="curve" smooth="yes"/>
      <point x="916" y="820"/>
      <point x="935" y="782"/>
      <point x="949" y="739" type="curve" smooth="yes"/>
      <point x="963" y="696"/>
      <point x="970" y="647"/>
      <point x="970" y="594" type="curve" smooth="yes"/>
      <point x="970" y="0" type="line"/>
      <point x="805" y="0" type="line"/>
      <point x="805" y="594" type="line" smooth="yes"/>
      <point x="805" y="665"/>
      <point x="789" y="719"/>
      <point x="757" y="758" type="curve" smooth="yes"/>
      <point x="725" y="797"/>
      <point x="676" y="817"/>
      <point x="609" y="817" type="curve" smooth="yes"/>
      <point x="560" y="817"/>
      <point x="515" y="805"/>
      <point x="473" y="782" type="curve" smooth="yes"/>
      <point x="431" y="759"/>
      <point x="393" y="727"/>
      <point x="357" y="687" type="curve"/>
      <point x="357" y="0" type="line"/>
    </contour>
  </outline>
</glyph>
<glyph name="o" format="2">
  <advance width="1112"/>
  <unicode hex="006F"/>
  <outline>
    <contour>
      <point x="556" y="827" type="curve" smooth="yes"/>
      <point x="621" y="827"/>
      <point x="679" y="817"/>
      <point x="732" y="797" type="curve" smooth="yes"/>
      <point x="785" y="777"/>
      <point x="829" y="750"/>
      <point x="866" y="714" type="curve" smooth="yes"/>
      <point x="903" y="678"/>
      <point x="931" y="635"/>
      <point x="951" y="584" type="curve" smooth="yes"/>
      <point x="971" y="533"/>
      <point x="980" y="476"/>
      <point x="980" y="413" type="curve" smooth="yes"/>
      <point x="980" y="350"/>
      <point x="971" y="293"/>
      <point x="951" y="242" type="curve" smooth="yes"/>
      <point x="931" y="191"/>
      <point x="903" y="148"/>
      <point x="866" y="112" type="curve" smooth="yes"/>
      <point x="829" y="76"/>
      <point x="785" y="48"/>
      <point x="732" y="29" type="curve" smooth="yes"/>
      <point x="679" y="10"/>
      <point x="621" y="0"/>
      <point x="556" y="0" type="curve" smooth="yes"/>
      <point x="491" y="0"/>
      <point x="432" y="10"/>
      <point x="379" y="29" type="curve" smooth="yes"/>
      <point x="326" y="48"/>
      <point x="282" y="76"/>
      <point x="245" y="112" type="curve" smooth="yes"/>
      <point x="208" y="148"/>
      <point x="180" y="191"/>
      <point x="160" y="242" type="curve" smooth="yes"/>
      <point x="140" y="293"/>
      <point x="130" y="350"/>
      <point x="130" y="413" type="curve" smooth="yes"/>
      <point x="130" y="476"/>
      <point x="140" y="533"/>
      <point x="160" y="584" type="curve" smooth="yes"/>
      <point x="180" y="635"/>
      <point x="208" y="678"/>
      <point x="245" y="714" type="curve" smooth="yes"/>
      <point x="282" y="750"/>
      <point x="326" y="777"/>
      <point x="379" y="797" type="curve" smooth="yes"/>
      <point x="432" y="817"/>
      <point x="491" y="827"/>
    </contour>
    <contour>
      <point x="556" y="111" type="curve" smooth="yes"/>
      <point x="644" y="111"/>
      <point x="710" y="137"/>
      <point x="753" y="190" type="curve" smooth="yes"/>
      <point x="796" y="243"/>
      <point x="818" y="317"/>
      <point x="818" y="412" type="curve" smooth="yes"/>
      <point x="818" y="508"/>
      <point x="796" y="583"/>
      <point x="753" y="636" type="curve" smooth="yes"/>
      <point x="710" y="689"/>
      <point x="644" y="716"/>
      <point x="556" y="716" type="curve" smooth="yes"/>
      <point x="511" y="716"/>
      <point x="473" y="709"/>
      <point x="440" y="695" type="curve" smooth="yes"/>
      <point x="407" y="681"/>
      <point x="379" y="662"/>
      <point x="357" y="636" type="curve" smooth="yes"/>
      <point x="335" y="610"/>
      <point x="319" y="578"/>
      <point x="308" y="540" type="curve" smooth="yes"/>
      <point x="297" y="502"/>
      <point x="292" y="460"/>
      <point x="292" y="412" type="curve" smooth="yes"/>
      <point x="292" y="364"/>
      <point x="297" y="322"/>
      <point x="308" y="285" type="curve" smooth="yes"/>
      <point x="319" y="248"/>
      <point x="335" y="216"/>
      <point x="357" y="190" type="curve" smooth="yes"/>
      <point x="379" y="164"/>
      <point x="407" y="145"/>
      <point x="440" y="131" type="curve" smooth="yes"/>
      <point x="473" y="117"/>
      <point x="511" y="111"/>
    </contour>
  </outline>
</glyph>
<glyph name="r" format="2">
  <advance width="806"/>
  <unicode hex="0072"/>
  <outline>
    <contour>
      <point x="146" y="0" type="line"/>
      <point x="146" y="1013" type="line"/>
      <point x="248" y="1013" type="line" smooth="yes"/>
      <point x="267" y="1013"/>
      <point x="281" y="1009"/>
      <point x="288" y="1002" type="curve" smooth="yes"/>
      <point x="295" y="995"/>
      <point x="300" y="982"/>
      <point x="303" y="964" type="curve" smooth="yes"/>
      <point x="315" y="806" type="line"/>
      <point x="350" y="877"/>
      <point x="393" y="932"/>
      <point x="444" y="972" type="curve" smooth="yes"/>
      <point x="495" y="1012"/>
      <point x="554" y="1031"/>
      <point x="623" y="1031" type="curve" smooth="yes"/>
      <point x="651" y="1031"/>
      <point x="676" y="1028"/>
      <point x="699" y="1022" type="curve" smooth="yes"/>
      <point x="722" y="1016"/>
      <point x="743" y="1006"/>
      <point x="762" y="995" type="curve"/>
      <point x="739" y="862" type="line" smooth="yes"/>
      <point x="734" y="845"/>
      <point x="724" y="837"/>
      <point x="708" y="837" type="curve" smooth="yes"/>
      <point x="699" y="837"/>
      <point x="684" y="840"/>
      <point x="665" y="846" type="curve" smooth="yes"/>
      <point x="646" y="852"/>
      <point x="619" y="856"/>
      <point x="584" y="856" type="curve" smooth="yes"/>
      <point x="522" y="856"/>
      <point x="470" y="838"/>
      <point x="428" y="802" type="curve" smooth="yes"/>
      <point x="386" y="766"/>
      <point x="352" y="714"/>
      <point x="324" y="645" type="curve"/>
      <point x="324" y="0" type="line"/>
    </contour>
  </outline>
</glyph>
<glyph name="s" format="2">
  <advance width="868"/>
  <unicode hex="0073"/>
  <outline>
    <contour>
      <point x="696" y="776" type="line" smooth="yes"/>
      <point x="689" y="763"/>
      <point x="677" y="756"/>
      <point x="662" y="756" type="curve" smooth="yes"/>
      <point x="653" y="756"/>
      <point x="643" y="759"/>
      <point x="632" y="766" type="curve" smooth="yes"/>
      <point x="621" y="773"/>
      <point x="606" y="780"/>
      <point x="590" y="788" type="curve" smooth="yes"/>
      <point x="574" y="796"/>
      <point x="554" y="804"/>
      <point x="531" y="811" type="curve" smooth="yes"/>
      <point x="508" y="818"/>
      <point x="481" y="821"/>
      <point x="450" y="821" type="curve" smooth="yes"/>
      <point x="423" y="821"/>
      <point x="399" y="818"/>
      <point x="377" y="811" type="curve" smooth="yes"/>
      <point x="355" y="804"/>
      <point x="337" y="794"/>
      <point x="322" y="782" type="curve" smooth="yes"/>
      <point x="307" y="770"/>
      <point x="295" y="756"/>
      <point x="287" y="740" type="curve" smooth="yes"/>
      <point x="279" y="724"/>
      <point x="274" y="708"/>
      <point x="274" y="689" type="curve" smooth="yes"/>
      <point x="274" y="666"/>
      <point x="281" y="646"/>
      <point x="295" y="630" type="curve" smooth="yes"/>
      <point x="309" y="614"/>
      <point x="326" y="601"/>
      <point x="348" y="590" type="curve" smooth="yes"/>
      <point x="370" y="579"/>
      <point x="396" y="569"/>
      <point x="424" y="560" type="curve" smooth="yes"/>
      <point x="452" y="551"/>
      <point x="481" y="542"/>
      <point x="511" y="532" type="curve" smooth="yes"/>
      <point x="541" y="522"/>
      <point x="570" y="511"/>
      <point x="598" y="499" type="curve" smooth="yes"/>
      <point x="626" y="487"/>
      <point x="651" y="472"/>
      <point x="673" y="454" type="curve" smooth="yes"/>
      <point x="695" y="436"/>
      <point x="713" y="414"/>
      <point x="727" y="388" type="curve" smooth="yes"/>
      <point x="741" y="362"/>
      <point x="747" y="331"/>
      <point x="747" y="294" type="curve" smooth="yes"/>
      <point x="747" y="252"/>
      <point x="739" y="213"/>
      <point x="724" y="177" type="curve" smooth="yes"/>
      <point x="709" y="141"/>
      <point x="687" y="110"/>
      <point x="658" y="84" type="curve" smooth="yes"/>
      <point x="629" y="58"/>
      <point x="593" y="38"/>
      <point x="550" y="23" type="curve" smooth="yes"/>
      <point x="507" y="8"/>
      <point x="458" y="0"/>
      <point x="402" y="0" type="curve" smooth="yes"/>
      <point x="338" y="0"/>
      <point x="281" y="10"/>
      <point x="229" y="31" type="curve" smooth="yes"/>
      <point x="177" y="52"/>
      <point x="134" y="79"/>
      <point x="98" y="111" type="curve"/>
      <point x="136" y="172" type="line" smooth="yes"/>
      <point x="141" y="180"/>
      <point x="146" y="186"/>
      <point x="153" y="190" type="curve" smooth="yes"/>
      <point x="160" y="194"/>
      <point x="168" y="196"/>
      <point x="179" y="196" type="curve" smooth="yes"/>
      <point x="190" y="196"/>
      <point x="201" y="192"/>
      <point x="213" y="184" type="curve" smooth="yes"/>
      <point x="225" y="176"/>
      <point x="240" y="166"/>
      <point x="257" y="156" type="curve" smooth="yes"/>
      <point x="274" y="146"/>
      <point x="295" y="136"/>
      <point x="319" y="128" type="curve" smooth="yes"/>
      <point x="343" y="120"/>
      <point x="373" y="115"/>
      <point x="410" y="115" type="curve" smooth="yes"/>
      <point x="441" y="115"/>
      <point x="469" y="120"/>
      <point x="492" y="128" type="curve" smooth="yes"/>
      <point x="515" y="136"/>
      <point x="535" y="146"/>
      <point x="551" y="160" type="curve" smooth="yes"/>
      <point x="567" y="174"/>
      <point x="577" y="190"/>
      <point x="585" y="208" type="curve" smooth="yes"/>
      <point x="593" y="226"/>
      <point x="597" y="246"/>
      <point x="597" y="266" type="curve" smooth="yes"/>
      <point x="597" y="291"/>
      <point x="590" y="312"/>
      <point x="576" y="328" type="curve" smooth="yes"/>
      <point x="562" y="344"/>
      <point x="545" y="359"/>
      <point x="523" y="371" type="curve" smooth="yes"/>
      <point x="501" y="383"/>
      <point x="475" y="392"/>
      <point x="447" y="401" type="curve" smooth="yes"/>
      <point x="419" y="410"/>
      <point x="390" y="419"/>
      <point x="360" y="429" type="curve" smooth="yes"/>
      <point x="330" y="439"/>
      <point x="300" y="450"/>
      <point x="272" y="462" type="curve" smooth="yes"/>
      <point x="244" y="474"/>
      <point x="218" y="489"/>
      <point x="196" y="508" type="curve" smooth="yes"/>
      <point x="174" y="527"/>
      <point x="157" y="550"/>
      <point x="143" y="577" type="curve" smooth="yes"/>
      <point x="129" y="604"/>
      <point x="122" y="637"/>
      <point x="122" y="676" type="curve" smooth="yes"/>
      <point x="122" y="711"/>
      <point x="130" y="744"/>
      <point x="144" y="776" type="curve" smooth="yes"/>
      <point x="158" y="808"/>
      <point x="179" y="837"/>
      <point x="207" y="861" type="curve" smooth="yes"/>
      <point x="235" y="885"/>
      <point x="269" y="905"/>
      <point x="309" y="919" type="curve" smooth="yes"/>
      <point x="349" y="933"/>
      <point x="394" y="941"/>
      <point x="446" y="941" type="curve" smooth="yes"/>
      <point x="506" y="941"/>
      <point x="560" y="931"/>
      <point x="608" y="912" type="curve" smooth="yes"/>
      <point x="656" y="893"/>
      <point x="697" y="868"/>
      <point x="732" y="835" type="curve"/>
    </contour>
  </outline>
</glyph>
<glyph name="t" format="2">
  <advance width="746"/>
  <unicode hex="0074"/>
  <outline>
    <contour>
      <point x="445" y="-0" type="curve" smooth="yes"/>
      <point x="373" y="0"/>
      <point x="318" y="20"/>
      <point x="279" y="60" type="curve" smooth="yes"/>
      <point x="240" y="100"/>
      <point x="221" y="158"/>
      <point x="221" y="234" type="curve" smooth="yes"/>
      <point x="221" y="792" type="line"/>
      <point x="111" y="792" type="line" smooth="yes"/>
      <point x="101" y="792"/>
      <point x="94" y="794"/>
      <point x="87" y="800" type="curve" smooth="yes"/>
      <point x="80" y="806"/>
      <point x="77" y="815"/>
      <point x="77" y="827" type="curve" smooth="yes"/>
      <point x="77" y="891" type="line"/>
      <point x="226" y="910" type="line"/>
      <point x="263" y="1192" type="line" smooth="yes"/>
      <point x="264" y="1201"/>
      <point x="268" y="1208"/>
      <point x="275" y="1214" type="curve" smooth="yes"/>
      <point x="282" y="1220"/>
      <point x="290" y="1222"/>
      <point x="300" y="1222" type="curve" smooth="yes"/>
      <point x="381" y="1222" type="line"/>
      <point x="381" y="908" type="line"/>
      <point x="642" y="908" type="line"/>
      <point x="642" y="792" type="line"/>
      <point x="381" y="792" type="line"/>
      <point x="381" y="245" type="line" smooth="yes"/>
      <point x="381" y="207"/>
      <point x="390" y="178"/>
      <point x="409" y="159" type="curve" smooth="yes"/>
      <point x="428" y="140"/>
      <point x="452" y="131"/>
      <point x="481" y="131" type="curve" smooth="yes"/>
      <point x="498" y="131"/>
      <point x="512" y="134"/>
      <point x="524" y="138" type="curve" smooth="yes"/>
      <point x="536" y="142"/>
      <point x="547" y="148"/>
      <point x="556" y="153" type="curve" smooth="yes"/>
      <point x="565" y="158"/>
      <point x="573" y="164"/>
      <point x="579" y="168" type="curve" smooth="yes"/>
      <point x="585" y="172"/>
      <point x="591" y="174"/>
      <point x="596" y="174" type="curve" smooth="yes"/>
      <point x="604" y="174"/>
      <point x="611" y="169"/>
      <point x="618" y="159" type="curve" smooth="yes"/>
      <point x="665" y="83" type="line"/>
      <point x="637" y="57"/>
      <point x="604" y="37"/>
      <point x="565" y="22" type="curve" smooth="yes"/>
      <point x="526" y="7"/>
      <point x="486" y="0"/>
    </contour>
  </outline>
</glyph>
<glyph name="u" format="2">
  <advance width="1112"/>
  <unicode hex="0075"/>
  <outline>
    <contour>
      <point x="324" y="927" type="line"/>
      <point x="324" y="345" type="line" smooth="yes"/>
      <point x="324" y="276"/>
      <point x="340" y="223"/>
      <point x="372" y="185" type="curve" smooth="yes"/>
      <point x="404" y="147"/>
      <point x="452" y="128"/>
      <point x="516" y="128" type="curve" smooth="yes"/>
      <point x="563" y="128"/>
      <point x="607" y="140"/>
      <point x="648" y="162" type="curve" smooth="yes"/>
      <point x="689" y="184"/>
      <point x="728" y="214"/>
      <point x="763" y="254" type="curve"/>
      <point x="763" y="927" type="line"/>
      <point x="923" y="927" type="line"/>
      <point x="923" y="15" type="line"/>
      <point x="827" y="15" type="line" smooth="yes"/>
      <point x="804" y="15"/>
      <point x="790" y="26"/>
      <point x="784" y="48" type="curve"/>
      <point x="772" y="146" type="line"/>
      <point x="732" y="102"/>
      <point x="687" y="67"/>
      <point x="638" y="40" type="curve" smooth="yes"/>
      <point x="589" y="13"/>
      <point x="533" y="0"/>
      <point x="469" y="0" type="curve" smooth="yes"/>
      <point x="419" y="0"/>
      <point x="375" y="9"/>
      <point x="337" y="25" type="curve" smooth="yes"/>
      <point x="299" y="41"/>
      <point x="268" y="65"/>
      <point x="242" y="95" type="curve" smooth="yes"/>
      <point x="216" y="125"/>
      <point x="197" y="161"/>
      <point x="184" y="204" type="curve" smooth="yes"/>
      <point x="171" y="247"/>
      <point x="164" y="293"/>
      <point x="164" y="345" type="curve" smooth="yes"/>
      <point x="164" y="927" type="line"/>
    </contour>
  </outline>
</glyph>
<glyph name="A7" format="2">
  <advance width="2401"/>
  <outline>
    <contour>
      <point x="2317" y="1305" type="line"/>
      <point x="2317" y="1217" type="line" smooth="yes"/>
      <point x="2317" y="1197"/>
      <point x="2315" y="1181"/>
      <point x="2310" y="1168" type="curve" smooth="yes"/>
      <point x="2305" y="1155"/>
      <point x="2302" y="1143"/>
      <point x="2296" y="1134" type="curve" smooth="yes"/>
      <point x="1762" y="57" type="line" smooth="yes"/>
      <point x="1754" y="41"/>
      <point x="1744" y="28"/>
      <point x="1730" y="17" type="curve" smooth="yes"/>
      <point x="1716" y="6"/>
      <point x="1696" y="0"/>
      <point x="1673" y="-0" type="curve" smooth="yes"/>
      <point x="1546" y="-0" type="line"/>
      <point x="2088" y="1063" type="line" smooth="yes"/>
      <point x="2096" y="1078"/>
      <point x="2105" y="1092"/>
      <point x="2113" y="1105" type="curve" smooth="yes"/>
      <point x="2121" y="1118"/>
      <point x="2129" y="1130"/>
      <point x="2139" y="1141" type="curve"/>
      <point x="1479" y="1141" type="line" smooth="yes"/>
      <point x="1469" y="1141"/>
      <point x="1459" y="1145"/>
      <point x="1451" y="1153" type="curve" smooth="yes"/>
      <point x="1443" y="1161"/>
      <point x="1439" y="1171"/>
      <point x="1439" y="1181" type="curve" smooth="yes"/>
      <point x="1439" y="1305" type="line"/>
    </contour>
    <contour>
      <point x="1353" y="0" type="line"/>
      <point x="1203" y="0" type="line" smooth="yes"/>
      <point x="1186" y="0"/>
      <point x="1172" y="4"/>
      <point x="1161" y="13" type="curve" smooth="yes"/>
      <point x="1150" y="22"/>
      <point x="1143" y="33"/>
      <point x="1137" y="46" type="curve" smooth="yes"/>
      <point x="1002" y="392" type="line"/>
      <point x="360" y="392" type="line"/>
      <point x="226" y="46" type="line" smooth="yes"/>
      <point x="221" y="34"/>
      <point x="213" y="24"/>
      <point x="202" y="14" type="curve" smooth="yes"/>
      <point x="191" y="4"/>
      <point x="176" y="0"/>
      <point x="160" y="0" type="curve" smooth="yes"/>
      <point x="10" y="0" type="line"/>
      <point x="583" y="1433" type="line"/>
      <point x="780" y="1433" type="line"/>
    </contour>
    <contour>
      <point x="414" y="532" type="line"/>
      <point x="949" y="532" type="line"/>
      <point x="724" y="1115" type="line" smooth="yes"/>
      <point x="710" y="1151"/>
      <point x="695" y="1196"/>
      <point x="681" y="1250" type="curve"/>
      <point x="673" y="1222"/>
      <point x="666" y="1197"/>
      <point x="659" y="1174" type="curve" smooth="yes"/>
      <point x="652" y="1151"/>
      <point x="646" y="1131"/>
      <point x="639" y="1114" type="curve" smooth="yes"/>
    </contour>
  </outline>
</glyph>
<glyph name="A9" format="2">
  <advance width="2401"/>
  <outline>
    <contour>
      <point x="1851" y="529" type="curve" smooth="yes"/>
      <point x="1802" y="529"/>
      <point x="1756" y="537"/>
      <point x="1712" y="554" type="curve" smooth="yes"/>
      <point x="1668" y="571"/>
      <point x="1630" y="595"/>
      <point x="1598" y="626" type="curve" smooth="yes"/>
      <point x="1566" y="657"/>
      <point x="1539" y="696"/>
      <point x="1520" y="742" type="curve" smooth="yes"/>
      <point x="1501" y="788"/>
      <point x="1490" y="840"/>
      <point x="1490" y="899" type="curve" smooth="yes"/>
      <point x="1490" y="955"/>
      <point x="1502" y="1007"/>
      <point x="1522" y="1057" type="curve" smooth="yes"/>
      <point x="1542" y="1107"/>
      <point x="1571" y="1150"/>
      <point x="1609" y="1186" type="curve" smooth="yes"/>
      <point x="1647" y="1222"/>
      <point x="1692" y="1252"/>
      <point x="1745" y="1272" type="curve" smooth="yes"/>
      <point x="1798" y="1292"/>
      <point x="1854" y="1304"/>
      <point x="1916" y="1304" type="curve" smooth="yes"/>
      <point x="1978" y="1304"/>
      <point x="2034" y="1293"/>
      <point x="2085" y="1273" type="curve" smooth="yes"/>
      <point x="2136" y="1253"/>
      <point x="2179" y="1224"/>
      <point x="2215" y="1188" type="curve" smooth="yes"/>
      <point x="2251" y="1152"/>
      <point x="2279" y="1107"/>
      <point x="2298" y="1056" type="curve" smooth="yes"/>
      <point x="2317" y="1005"/>
      <point x="2327" y="949"/>
      <point x="2327" y="887" type="curve" smooth="yes"/>
      <point x="2327" y="850"/>
      <point x="2323" y="815"/>
      <point x="2316" y="782" type="curve" smooth="yes"/>
      <point x="2309" y="749"/>
      <point x="2300" y="715"/>
      <point x="2287" y="684" type="curve" smooth="yes"/>
      <point x="2274" y="653"/>
      <point x="2258" y="621"/>
      <point x="2240" y="590" type="curve" smooth="yes"/>
      <point x="2222" y="559"/>
      <point x="2200" y="524"/>
      <point x="2177" y="491" type="curve" smooth="yes"/>
      <point x="1863" y="38" type="line" smooth="yes"/>
      <point x="1855" y="27"/>
      <point x="1844" y="17"/>
      <point x="1829" y="10" type="curve" smooth="yes"/>
      <point x="1814" y="3"/>
      <point x="1799" y="0"/>
      <point x="1780" y="-0" type="curve" smooth="yes"/>
      <point x="1611" y="-0" type="line"/>
      <point x="2025" y="514" type="line" smooth="yes"/>
      <point x="2038" y="532"/>
      <point x="2050" y="547"/>
      <point x="2061" y="563" type="curve" smooth="yes"/>
      <point x="2072" y="579"/>
      <point x="2083" y="594"/>
      <point x="2093" y="610" type="curve"/>
      <point x="2061" y="583"/>
      <point x="2023" y="564"/>
      <point x="1982" y="550" type="curve" smooth="yes"/>
      <point x="1941" y="536"/>
      <point x="1898" y="529"/>
    </contour>
    <contour>
      <point x="2147" y="906" type="curve" smooth="yes"/>
      <point x="2147" y="942"/>
      <point x="2141" y="976"/>
      <point x="2129" y="1005" type="curve" smooth="yes"/>
      <point x="2117" y="1034"/>
      <point x="2102" y="1060"/>
      <point x="2082" y="1080" type="curve" smooth="yes"/>
      <point x="2062" y="1100"/>
      <point x="2037" y="1116"/>
      <point x="2009" y="1127" type="curve" smooth="yes"/>
      <point x="1981" y="1138"/>
      <point x="1948" y="1144"/>
      <point x="1914" y="1144" type="curve" smooth="yes"/>
      <point x="1878" y="1144"/>
      <point x="1846" y="1138"/>
      <point x="1817" y="1126" type="curve" smooth="yes"/>
      <point x="1788" y="1114"/>
      <point x="1762" y="1098"/>
      <point x="1741" y="1078" type="curve" smooth="yes"/>
      <point x="1720" y="1058"/>
      <point x="1705" y="1033"/>
      <point x="1693" y="1005" type="curve" smooth="yes"/>
      <point x="1681" y="977"/>
      <point x="1676" y="944"/>
      <point x="1676" y="910" type="curve" smooth="yes"/>
      <point x="1676" y="874"/>
      <point x="1681" y="841"/>
      <point x="1692" y="813" type="curve" smooth="yes"/>
      <point x="1703" y="785"/>
      <point x="1719" y="759"/>
      <point x="1738" y="739" type="curve" smooth="yes"/>
      <point x="1757" y="719"/>
      <point x="1781" y="704"/>
      <point x="1809" y="694" type="curve" smooth="yes"/>
      <point x="1837" y="684"/>
      <point x="1870" y="678"/>
      <point x="1905" y="678" type="curve" smooth="yes"/>
      <point x="1944" y="678"/>
      <point x="1979" y="684"/>
      <point x="2009" y="696" type="curve" smooth="yes"/>
      <point x="2039" y="708"/>
      <point x="2064" y="727"/>
      <point x="2084" y="748" type="curve" smooth="yes"/>
      <point x="2104" y="769"/>
      <point x="2119" y="794"/>
      <point x="2130" y="821" type="curve" smooth="yes"/>
      <point x="2141" y="848"/>
      <point x="2147" y="877"/>
    </contour>
    <contour>
      <point x="1353" y="0" type="line"/>
      <point x="1203" y="0" type="line" smooth="yes"/>
      <point x="1186" y="0"/>
      <point x="1172" y="4"/>
      <point x="1161" y="13" type="curve" smooth="yes"/>
      <point x="1150" y="22"/>
      <point x="1143" y="33"/>
      <point x="1137" y="46" type="curve" smooth="yes"/>
      <point x="1002" y="392" type="line"/>
      <point x="360" y="392" type="line"/>
      <point x="226" y="46" type="line" smooth="yes"/>
      <point x="221" y="34"/>
      <point x="213" y="24"/>
      <point x="202" y="14" type="curve" smooth="yes"/>
      <point x="191" y="4"/>
      <point x="176" y="0"/>
      <point x="160" y="0" type="curve" smooth="yes"/>
      <point x="10" y="0" type="line"/>
      <point x="583" y="1433" type="line"/>
      <point x="780" y="1433" type="line"/>
    </contour>
    <contour>
      <point x="414" y="532" type="line"/>
      <point x="949" y="532" type="line"/>
      <point x="724" y="1115" type="line" smooth="yes"/>
      <point x="710" y="1151"/>
      <point x="695" y="1196"/>
      <point x="681" y="1250" type="curve"/>
      <point x="673" y="1222"/>
      <point x="666" y="1197"/>
      <point x="659" y="1174" type="curve" smooth="yes"/>
      <point x="652" y="1151"/>
      <point x="646" y="1131"/>
      <point x="639" y="1114" type="curve" smooth="yes"/>
    </contour>
  </outline>
</glyph>
<glyph name="A_flat" format="2">
  <advance width="1358"/>
  <outline>
    <contour>
      <point x="1267" y="2129" type="line"/>
      <point x="1324" y="2129" type="line"/>
      <point x="1324" y="1421" type="line"/>
      <point x="1369" y="1466"/>
      <point x="1420" y="1488"/>
      <point x="1476" y="1488" type="curve" smooth="yes"/>
      <point x="1514" y="1488"/>
      <point x="1548" y="1476"/>
      <point x="1580" y="1450" type="curve" smooth="yes"/>
      <point x="1612" y="1424"/>
      <point x="1628" y="1386"/>
      <point x="1628" y="1336" type="curve" smooth="yes"/>
      <point x="1628" y="1298"/>
      <point x="1616" y="1261"/>
      <point x="1594" y="1228" type="curve" smooth="yes"/>
      <point x="1572" y="1195"/>
      <point x="1538" y="1163"/>
      <point x="1500" y="1130" type="curve" smooth="yes"/>
      <point x="1375" y="1023" type="line" smooth="yes"/>
      <point x="1353" y="1004"/>
      <point x="1332" y="985"/>
      <point x="1314" y="967" type="curve" smooth="yes"/>
      <point x="1296" y="949"/>
      <point x="1281" y="929"/>
      <point x="1267" y="912" type="curve"/>
    </contour>
    <contour>
      <point x="1324" y="1034" type="line"/>
      <point x="1356" y="1069"/>
      <point x="1381" y="1098"/>
      <point x="1403" y="1127" type="curve" smooth="yes"/>
      <point x="1425" y="1156"/>
      <point x="1441" y="1182"/>
      <point x="1454" y="1204" type="curve" smooth="yes"/>
      <point x="1468" y="1226"/>
      <point x="1478" y="1248"/>
      <point x="1484" y="1267" type="curve" smooth="yes"/>
      <point x="1490" y="1286"/>
      <point x="1494" y="1303"/>
      <point x="1494" y="1320" type="curve" smooth="yes"/>
      <point x="1494" y="1355"/>
      <point x="1485" y="1380"/>
      <point x="1470" y="1395" type="curve" smooth="yes"/>
      <point x="1455" y="1410"/>
      <point x="1438" y="1416"/>
      <point x="1420" y="1416" type="curve" smooth="yes"/>
      <point x="1401" y="1416"/>
      <point x="1381" y="1412"/>
      <point x="1363" y="1397" type="curve" smooth="yes"/>
      <point x="1345" y="1382"/>
      <point x="1332" y="1361"/>
      <point x="1324" y="1338" type="curve"/>
    </contour>
    <contour>
      <point x="1353" y="0" type="line"/>
      <point x="1203" y="0" type="line" smooth="yes"/>
      <point x="1186" y="0"/>
      <point x="1172" y="4"/>
      <point x="1161" y="13" type="curve" smooth="yes"/>
      <point x="1150" y="22"/>
      <point x="1143" y="33"/>
      <point x="1137" y="46" type="curve" smooth="yes"/>
      <point x="1002" y="392" type="line"/>
      <point x="360" y="392" type="line"/>
      <point x="226" y="46" type="line" smooth="yes"/>
      <point x="221" y="34"/>
      <point x="213" y="24"/>
      <point x="202" y="14" type="curve" smooth="yes"/>
      <point x="191" y="4"/>
      <point x="176" y="0"/>
      <point x="160" y="0" type="curve" smooth="yes"/>
      <point x="10" y="0" type="line"/>
      <point x="583" y="1433" type="line"/>
      <point x="780" y="1433" type="line"/>
    </contour>
    <contour>
      <point x="414" y="532" type="line"/>
      <point x="949" y="532" type="line"/>
      <point x="724" y="1115" type="line" smooth="yes"/>
      <point x="710" y="1151"/>
      <point x="695" y="1196"/>
      <point x="681" y="1250" type="curve"/>
      <point x="673" y="1222"/>
      <point x="666" y="1197"/>
      <point x="659" y="1174" type="curve" smooth="yes"/>
      <point x="652" y="1151"/>
      <point x="646" y="1131"/>
      <point x="639" y="1114" type="curve" smooth="yes"/>
    </contour>
  </outline>
</glyph>
<glyph name="Asharp" format="2">
  <advance width="1358"/>
  <outline>
    <contour>
      <point x="1300" y="1360" type="line"/>
      <point x="1300" y="1596" type="line"/>
      <point x="1223" y="1576" type="line"/>
      <point x="1223" y="1741" type="line"/>
      <point x="1300" y="1763" type="line"/>
      <point x="1300" y="1981" type="line"/>
      <point x="1351" y="1981" type="line"/>
      <point x="1351" y="1776" type="line"/>
      <point x="1462" y="1800" type="line"/>
      <point x="1463" y="2036" type="line"/>
      <point x="1514" y="2036" type="line"/>
      <point x="1514" y="1814" type="line"/>
      <point x="1594" y="1833" type="line"/>
      <point x="1594" y="1670" type="line"/>
      <point x="1514" y="1647" type="line"/>
      <point x="1514" y="1411" type="line"/>
      <point x="1594" y="1431" type="line"/>
      <point x="1594" y="1261" type="line"/>
      <point x="1514" y="1241" type="line"/>
      <point x="1514" y="977" type="line"/>
      <point x="1463" y="977" type="line"/>
      <point x="1463" y="1229" type="line"/>
      <point x="1351" y="1200" type="line"/>
      <point x="1351" y="922" type="line"/>
      <point x="1300" y="922" type="line"/>
      <point x="1300" y="1188" type="line"/>
      <point x="1223" y="1168" type="line"/>
      <point x="1223" y="1337" type="line"/>
    </contour>
    <contour>
      <point x="1463" y="1400" type="line"/>
      <point x="1463" y="1637" type="line"/>
      <point x="1351" y="1610" type="line"/>
      <point x="1351" y="1374" type="line"/>
    </contour>
    <contour>
      <point x="1353" y="0" type="line"/>
      <point x="1203" y="0" type="line" smooth="yes"/>
      <point x="1186" y="0"/>
      <point x="1172" y="4"/>
      <point x="1161" y="13" type="curve" smooth="yes"/>
      <point x="1150" y="22"/>
      <point x="1143" y="33"/>
      <point x="1137" y="46" type="curve" smooth="yes"/>
      <point x="1002" y="392" type="line"/>
      <point x="360" y="392" type="line"/>
      <point x="226" y="46" type="line" smooth="yes"/>
      <point x="221" y="34"/>
      <point x="213" y="24"/>
      <point x="202" y="14" type="curve" smooth="yes"/>
      <point x="191" y="4"/>
      <point x="176" y="0"/>
      <point x="160" y="0" type="curve" smooth="yes"/>
      <point x="10" y="0" type="line"/>
      <point x="583" y="1433" type="line"/>
      <point x="780" y="1433" type="line"/>
    </contour>
    <contour>
      <point x="414" y="532" type="line"/>
      <point x="949" y="532" type="line"/>
      <point x="724" y="1115" type="line" smooth="yes"/>
      <point x="710" y="1151"/>
      <point x="695" y="1196"/>
      <point x="681" y="1250" type="curve"/>
      <point x="673" y="1222"/>
      <point x="666" y="1197"/>
      <point x="659" y="1174" type="curve" smooth="yes"/>
      <point x="652" y="1151"/>
      <point x="646" y="1131"/>
      <point x="639" y="1114" type="curve" smooth="yes"/>
    </contour>
  </outline>
</glyph>
<glyph name="B7" format="2">
  <advance width="2332"/>
  <outline>
    <contour>
      <point x="2247" y="1305" type="line"/>
      <point x="2247" y="1217" type="line" smooth="yes"/>
      <point x="2247" y="1197"/>
      <point x="2246" y="1181"/>
      <point x="2241" y="1168" type="curve" smooth="yes"/>
      <point x="2236" y="1155"/>
      <point x="2232" y="1143"/>
      <point x="2226" y="1134" type="curve" smooth="yes"/>
      <point x="1692" y="57" type="line" smooth="yes"/>
      <point x="1684" y="41"/>
      <point x="1674" y="28"/>
      <point x="1660" y="17" type="curve" smooth="yes"/>
      <point x="1646" y="6"/>
      <point x="1627" y="0"/>
      <point x="1604" y="-0" type="curve" smooth="yes"/>
      <point x="1476" y="-0" type="line"/>
      <point x="2018" y="1063" type="line" smooth="yes"/>
      <point x="2026" y="1078"/>
      <point x="2035" y="1092"/>
      <point x="2043" y="1105" type="curve" smooth="yes"/>
      <point x="2051" y="1118"/>
      <point x="2060" y="1130"/>
      <point x="2070" y="1141" type="curve"/>
      <point x="1409" y="1141" type="line" smooth="yes"/>
      <point x="1399" y="1141"/>
      <point x="1390" y="1145"/>
      <point x="1382" y="1153" type="curve" smooth="yes"/>
      <point x="1374" y="1161"/>
      <point x="1370" y="1171"/>
      <point x="1370" y="1181" type="curve" smooth="yes"/>
      <point x="1370" y="1305" type="line"/>
    </contour>
    <contour>
      <point x="174" y="0" type="line"/>
      <point x="174" y="1433" type="line"/>
      <point x="631" y="1433" type="line" smooth="yes"/>
      <point x="719" y="1433"/>
      <point x="795" y="1424"/>
      <point x="858" y="1407" type="curve" smooth="yes"/>
      <point x="921" y="1390"/>
      <point x="974" y="1365"/>
      <point x="1015" y="1333" type="curve" smooth="yes"/>
      <point x="1056" y="1301"/>
      <point x="1086" y="1261"/>
      <point x="1106" y="1215" type="curve" smooth="yes"/>
      <point x="1126" y="1169"/>
      <point x="1136" y="1117"/>
      <point x="1136" y="1059" type="curve" smooth="yes"/>
      <point x="1136" y="1024"/>
      <point x="1131" y="990"/>
      <point x="1120" y="957" type="curve" smooth="yes"/>
      <point x="1109" y="924"/>
      <point x="1092" y="894"/>
      <point x="1070" y="866" type="curve" smooth="yes"/>
      <point x="1048" y="838"/>
      <point x="1019" y="813"/>
      <point x="986" y="791" type="curve" smooth="yes"/>
      <point x="953" y="769"/>
      <point x="912" y="751"/>
      <point x="867" y="737" type="curve"/>
      <point x="971" y="715"/>
      <point x="1050" y="679"/>
      <point x="1104" y="624" type="curve" smooth="yes"/>
      <point x="1158" y="569"/>
      <point x="1184" y="497"/>
      <point x="1184" y="408" type="curve" smooth="yes"/>
      <point x="1184" y="348"/>
      <point x="1172" y="292"/>
      <point x="1150" y="242" type="curve" smooth="yes"/>
      <point x="1128" y="192"/>
      <point x="1096" y="149"/>
      <point x="1053" y="113" type="curve" smooth="yes"/>
      <point x="1010" y="77"/>
      <point x="957" y="50"/>
      <point x="895" y="30" type="curve" smooth="yes"/>
      <point x="833" y="10"/>
      <point x="761" y="0"/>
      <point x="681" y="0" type="curve" smooth="yes"/>
    </contour>
    <contour>
      <point x="368" y="653" type="line"/>
      <point x="368" y="154" type="line"/>
      <point x="678" y="154" type="line" smooth="yes"/>
      <point x="734" y="154"/>
      <point x="781" y="161"/>
      <point x="820" y="173" type="curve" smooth="yes"/>
      <point x="859" y="185"/>
      <point x="893" y="204"/>
      <point x="919" y="227" type="curve" smooth="yes"/>
      <point x="945" y="250"/>
      <point x="963" y="276"/>
      <point x="975" y="308" type="curve" smooth="yes"/>
      <point x="987" y="340"/>
      <point x="993" y="375"/>
      <point x="993" y="413" type="curve" smooth="yes"/>
      <point x="993" y="487"/>
      <point x="968" y="546"/>
      <point x="915" y="589" type="curve" smooth="yes"/>
      <point x="862" y="632"/>
      <point x="783" y="653"/>
      <point x="677" y="653" type="curve" smooth="yes"/>
    </contour>
    <contour>
      <point x="368" y="791" type="line"/>
      <point x="624" y="791" type="line" smooth="yes"/>
      <point x="679" y="791"/>
      <point x="726" y="797"/>
      <point x="766" y="809" type="curve" smooth="yes"/>
      <point x="806" y="821"/>
      <point x="838" y="837"/>
      <point x="865" y="859" type="curve" smooth="yes"/>
      <point x="892" y="881"/>
      <point x="912" y="906"/>
      <point x="924" y="937" type="curve" smooth="yes"/>
      <point x="936" y="968"/>
      <point x="943" y="1000"/>
      <point x="943" y="1036" type="curve" smooth="yes"/>
      <point x="943" y="1120"/>
      <point x="918" y="1182"/>
      <point x="867" y="1221" type="curve" smooth="yes"/>
      <point x="816" y="1260"/>
      <point x="737" y="1280"/>
      <point x="631" y="1280" type="curve" smooth="yes"/>
      <point x="368" y="1280" type="line"/>
    </contour>
  </outline>
</glyph>
<glyph name="B9" format="2">
  <advance width="2363"/>
  <outline>
    <contour>
      <point x="1800" y="529" type="curve" smooth="yes"/>
      <point x="1751" y="529"/>
      <point x="1706" y="537"/>
      <point x="1662" y="554" type="curve" smooth="yes"/>
      <point x="1618" y="571"/>
      <point x="1580" y="595"/>
      <point x="1548" y="626" type="curve" smooth="yes"/>
      <point x="1516" y="657"/>
      <point x="1489" y="696"/>
      <point x="1470" y="742" type="curve" smooth="yes"/>
      <point x="1451" y="788"/>
      <point x="1440" y="840"/>
      <point x="1440" y="899" type="curve" smooth="yes"/>
      <point x="1440" y="955"/>
      <point x="1451" y="1007"/>
      <point x="1471" y="1057" type="curve" smooth="yes"/>
      <point x="1491" y="1107"/>
      <point x="1521" y="1150"/>
      <point x="1559" y="1186" type="curve" smooth="yes"/>
      <point x="1597" y="1222"/>
      <point x="1642" y="1252"/>
      <point x="1695" y="1272" type="curve" smooth="yes"/>
      <point x="1748" y="1292"/>
      <point x="1804" y="1304"/>
      <point x="1866" y="1304" type="curve" smooth="yes"/>
      <point x="1928" y="1304"/>
      <point x="1984" y="1293"/>
      <point x="2035" y="1273" type="curve" smooth="yes"/>
      <point x="2086" y="1253"/>
      <point x="2129" y="1224"/>
      <point x="2165" y="1188" type="curve" smooth="yes"/>
      <point x="2201" y="1152"/>
      <point x="2228" y="1107"/>
      <point x="2247" y="1056" type="curve" smooth="yes"/>
      <point x="2266" y="1005"/>
      <point x="2277" y="949"/>
      <point x="2277" y="887" type="curve" smooth="yes"/>
      <point x="2277" y="850"/>
      <point x="2273" y="815"/>
      <point x="2266" y="782" type="curve" smooth="yes"/>
      <point x="2259" y="749"/>
      <point x="2249" y="715"/>
      <point x="2236" y="684" type="curve" smooth="yes"/>
      <point x="2223" y="653"/>
      <point x="2207" y="621"/>
      <point x="2189" y="590" type="curve" smooth="yes"/>
      <point x="2171" y="559"/>
      <point x="2150" y="524"/>
      <point x="2127" y="491" type="curve" smooth="yes"/>
      <point x="1812" y="38" type="line" smooth="yes"/>
      <point x="1804" y="27"/>
      <point x="1794" y="17"/>
      <point x="1779" y="10" type="curve" smooth="yes"/>
      <point x="1764" y="3"/>
      <point x="1749" y="0"/>
      <point x="1730" y="-0" type="curve" smooth="yes"/>
      <point x="1561" y="-0" type="line"/>
      <point x="1975" y="514" type="line" smooth="yes"/>
      <point x="1988" y="532"/>
      <point x="2000" y="547"/>
      <point x="2011" y="563" type="curve" smooth="yes"/>
      <point x="2022" y="579"/>
      <point x="2033" y="594"/>
      <point x="2043" y="610" type="curve"/>
      <point x="2011" y="583"/>
      <point x="1973" y="564"/>
      <point x="1932" y="550" type="curve" smooth="yes"/>
      <point x="1891" y="536"/>
      <point x="1847" y="529"/>
    </contour>
    <contour>
      <point x="2097" y="906" type="curve" smooth="yes"/>
      <point x="2097" y="942"/>
      <point x="2091" y="976"/>
      <point x="2079" y="1005" type="curve" smooth="yes"/>
      <point x="2067" y="1034"/>
      <point x="2051" y="1060"/>
      <point x="2031" y="1080" type="curve" smooth="yes"/>
      <point x="2011" y="1100"/>
      <point x="1986" y="1116"/>
      <point x="1958" y="1127" type="curve" smooth="yes"/>
      <point x="1930" y="1138"/>
      <point x="1898" y="1144"/>
      <point x="1864" y="1144" type="curve" smooth="yes"/>
      <point x="1828" y="1144"/>
      <point x="1796" y="1138"/>
      <point x="1767" y="1126" type="curve" smooth="yes"/>
      <point x="1738" y="1114"/>
      <point x="1712" y="1098"/>
      <point x="1691" y="1078" type="curve" smooth="yes"/>
      <point x="1670" y="1058"/>
      <point x="1655" y="1033"/>
      <point x="1643" y="1005" type="curve" smooth="yes"/>
      <point x="1631" y="977"/>
      <point x="1626" y="944"/>
      <point x="1626" y="910" type="curve" smooth="yes"/>
      <point x="1626" y="874"/>
      <point x="1631" y="841"/>
      <point x="1642" y="813" type="curve" smooth="yes"/>
      <point x="1653" y="785"/>
      <point x="1669" y="759"/>
      <point x="1688" y="739" type="curve" smooth="yes"/>
      <point x="1707" y="719"/>
      <point x="1731" y="704"/>
      <point x="1759" y="694" type="curve" smooth="yes"/>
      <point x="1787" y="684"/>
      <point x="1820" y="678"/>
      <point x="1855" y="678" type="curve" smooth="yes"/>
      <point x="1894" y="678"/>
      <point x="1928" y="684"/>
      <point x="1958" y="696" type="curve" smooth="yes"/>
      <point x="1988" y="708"/>
      <point x="2014" y="727"/>
      <point x="2034" y="748" type="curve" smooth="yes"/>
      <point x="2054" y="769"/>
      <point x="2069" y="794"/>
      <point x="2080" y="821" type="curve" smooth="yes"/>
      <point x="2091" y="848"/>
      <point x="2097" y="877"/>
    </contour>
    <contour>
      <point x="174" y="0" type="line"/>
      <point x="174" y="1433" type="line"/>
      <point x="631" y="1433" type="line" smooth="yes"/>
      <point x="719" y="1433"/>
      <point x="795" y="1424"/>
      <point x="858" y="1407" type="curve" smooth="yes"/>
      <point x="921" y="1390"/>
      <point x="974" y="1365"/>
      <point x="1015" y="1333" type="curve" smooth="yes"/>
      <point x="1056" y="1301"/>
      <point x="1086" y="1261"/>
      <point x="1106" y="1215" type="curve" smooth="yes"/>
      <point x="1126" y="1169"/>
      <point x="1136" y="1117"/>
      <point x="1136" y="1059" type="curve" smooth="yes"/>
      <point x="1136" y="1024"/>
      <point x="1131" y="990"/>
      <point x="1120" y="957" type="curve" smooth="yes"/>
      <point x="1109" y="924"/>
      <point x="1092" y="894"/>
      <point x="1070" y="866" type="curve" smooth="yes"/>
      <point x="1048" y="838"/>
      <point x="1019" y="813"/>
      <point x="986" y="791" type="curve" smooth="yes"/>
      <point x="953" y="769"/>
      <point x="912" y="751"/>
      <point x="867" y="737" type="curve"/>
      <point x="971" y="715"/>
      <point x="1050" y="679"/>
      <point x="1104" y="624" type="curve" smooth="yes"/>
      <point x="1158" y="569"/>
      <point x="1184" y="497"/>
      <point x="1184" y="408" type="curve" smooth="yes"/>
      <point x="1184" y="348"/>
      <point x="1172" y="292"/>
      <point x="1150" y="242" type="curve" smooth="yes"/>
      <point x="1128" y="192"/>
      <point x="1096" y="149"/>
      <point x="1053" y="113" type="curve" smooth="yes"/>
      <point x="1010" y="77"/>
      <point x="957" y="50"/>
      <point x="895" y="30" type="curve" smooth="yes"/>
      <point x="833" y="10"/>
      <point x="761" y="0"/>
      <point x="681" y="0" type="curve" smooth="yes"/>
    </contour>
    <contour>
      <point x="368" y="653" type="line"/>
      <point x="368" y="154" type="line"/>
      <point x="678" y="154" type="line" smooth="yes"/>
      <point x="734" y="154"/>
      <point x="781" y="161"/>
      <point x="820" y="173" type="curve" smooth="yes"/>
      <point x="859" y="185"/>
      <point x="893" y="204"/>
      <point x="919" y="227" type="curve" smooth="yes"/>
      <point x="945" y="250"/>
      <point x="963" y="276"/>
      <point x="975" y="308" type="curve" smooth="yes"/>
      <point x="987" y="340"/>
      <point x="993" y="375"/>
      <point x="993" y="413" type="curve" smooth="yes"/>
      <point x="993" y="487"/>
      <point x="968" y="546"/>
      <point x="915" y="589" type="curve" smooth="yes"/>
      <point x="862" y="632"/>
      <point x="783" y="653"/>
      <point x="677" y="653" type="curve" smooth="yes"/>
    </contour>
    <contour>
      <point x="368" y="791" type="line"/>
      <point x="624" y="791" type="line" smooth="yes"/>
      <point x="679" y="791"/>
      <point x="726" y="797"/>
      <point x="766" y="809" type="curve" smooth="yes"/>
      <point x="806" y="821"/>
      <point x="838" y="837"/>
      <point x="865" y="859" type="curve" smooth="yes"/>
      <point x="892" y="881"/>
      <point x="912" y="906"/>
      <point x="924" y="937" type="curve" smooth="yes"/>
      <point x="936" y="968"/>
      <point x="943" y="1000"/>
      <point x="943" y="1036" type="curve" smooth="yes"/>
      <point x="943" y="1120"/>
      <point x="918" y="1182"/>
      <point x="867" y="1221" type="curve" smooth="yes"/>
      <point x="816" y="1260"/>
      <point x="737" y="1280"/>
      <point x="631" y="1280" type="curve" smooth="yes"/>
      <point x="368" y="1280" type="line"/>
    </contour>
  </outline>
</glyph>
<glyph name="Bflat" format="2">
  <advance width="1436"/>
  <outline>
    <contour>
      <point x="1349" y="2129" type="line"/>
      <point x="1406" y="2129" type="line"/>
      <point x="1406" y="1421" type="line"/>
      <point x="1451" y="1466"/>
      <point x="1502" y="1488"/>
      <point x="1558" y="1488" type="curve" smooth="yes"/>
      <point x="1596" y="1488"/>
      <point x="1631" y="1476"/>
      <point x="1663" y="1450" type="curve" smooth="yes"/>
      <point x="1695" y="1424"/>
      <point x="1710" y="1386"/>
      <point x="1710" y="1336" type="curve" smooth="yes"/>
      <point x="1710" y="1298"/>
      <point x="1698" y="1261"/>
      <point x="1676" y="1228" type="curve" smooth="yes"/>
      <point x="1654" y="1195"/>
      <point x="1620" y="1163"/>
      <point x="1582" y="1130" type="curve" smooth="yes"/>
      <point x="1457" y="1023" type="line" smooth="yes"/>
      <point x="1435" y="1004"/>
      <point x="1413" y="985"/>
      <point x="1395" y="967" type="curve" smooth="yes"/>
      <point x="1377" y="949"/>
      <point x="1363" y="929"/>
      <point x="1349" y="912" type="curve"/>
    </contour>
    <contour>
      <point x="1406" y="1034" type="line"/>
      <point x="1438" y="1069"/>
      <point x="1463" y="1098"/>
      <point x="1485" y="1127" type="curve" smooth="yes"/>
      <point x="1507" y="1156"/>
      <point x="1523" y="1182"/>
      <point x="1536" y="1204" type="curve" smooth="yes"/>
      <point x="1550" y="1226"/>
      <point x="1560" y="1248"/>
      <point x="1566" y="1267" type="curve" smooth="yes"/>
      <point x="1572" y="1286"/>
      <point x="1576" y="1303"/>
      <point x="1576" y="1320" type="curve" smooth="yes"/>
      <point x="1576" y="1355"/>
      <point x="1568" y="1380"/>
      <point x="1553" y="1395" type="curve" smooth="yes"/>
      <point x="1538" y="1410"/>
      <point x="1520" y="1416"/>
      <point x="1502" y="1416" type="curve" smooth="yes"/>
      <point x="1483" y="1416"/>
      <point x="1463" y="1412"/>
      <point x="1445" y="1397" type="curve" smooth="yes"/>
      <point x="1427" y="1382"/>
      <point x="1414" y="1361"/>
      <point x="1406" y="1338" type="curve"/>
    </contour>
    <contour>
      <point x="174" y="0" type="line"/>
      <point x="174" y="1433" type="line"/>
      <point x="631" y="1433" type="line" smooth="yes"/>
      <point x="719" y="1433"/>
      <point x="795" y="1424"/>
      <point x="858" y="1407" type="curve" smooth="yes"/>
      <point x="921" y="1390"/>
      <point x="974" y="1365"/>
      <point x="1015" y="1333" type="curve" smooth="yes"/>
      <point x="1056" y="1301"/>
      <point x="1086" y="1261"/>
      <point x="1106" y="1215" type="curve" smooth="yes"/>
      <point x="1126" y="1169"/>
      <point x="1136" y="1117"/>
      <point x="1136" y="1059" type="curve" smooth="yes"/>
      <point x="1136" y="1024"/>
      <point x="1131" y="990"/>
      <point x="1120" y="957" type="curve" smooth="yes"/>
      <point x="1109" y="924"/>
      <point x="1092" y="894"/>
      <point x="1070" y="866" type="curve" smooth="yes"/>
      <point x="1048" y="838"/>
      <point x="1019" y="813"/>
      <point x="986" y="791" type="curve" smooth="yes"/>
      <point x="953" y="769"/>
      <point x="912" y="751"/>
      <point x="867" y="737" type="curve"/>
      <point x="971" y="715"/>
      <point x="1050" y="679"/>
      <point x="1104" y="624" type="curve" smooth="yes"/>
      <point x="1158" y="569"/>
      <point x="1184" y="497"/>
      <point x="1184" y="408" type="curve" smooth="yes"/>
      <point x="1184" y="348"/>
      <point x="1172" y="292"/>
      <point x="1150" y="242" type="curve" smooth="yes"/>
      <point x="1128" y="192"/>
      <point x="1096" y="149"/>
      <point x="1053" y="113" type="curve" smooth="yes"/>
      <point x="1010" y="77"/>
      <point x="957" y="50"/>
      <point x="895" y="30" type="curve" smooth="yes"/>
      <point x="833" y="10"/>
      <point x="761" y="0"/>
      <point x="681" y="0" type="curve" smooth="yes"/>
    </contour>
    <contour>
      <point x="368" y="653" type="line"/>
      <point x="368" y="154" type="line"/>
      <point x="678" y="154" type="line" smooth="yes"/>
      <point x="734" y="154"/>
      <point x="781" y="161"/>
      <point x="820" y="173" type="curve" smooth="yes"/>
      <point x="859" y="185"/>
      <point x="893" y="204"/>
      <point x="919" y="227" type="curve" smooth="yes"/>
      <point x="945" y="250"/>
      <point x="963" y="276"/>
      <point x="975" y="308" type="curve" smooth="yes"/>
      <point x="987" y="340"/>
      <point x="993" y="375"/>
      <point x="993" y="413" type="curve" smooth="yes"/>
      <point x="993" y="487"/>
      <point x="968" y="546"/>
      <point x="915" y="589" type="curve" smooth="yes"/>
      <point x="862" y="632"/>
      <point x="783" y="653"/>
      <point x="677" y="653" type="curve" smooth="yes"/>
    </contour>
    <contour>
      <point x="368" y="791" type="line"/>
      <point x="624" y="791" type="line" smooth="yes"/>
      <point x="679" y="791"/>
      <point x="726" y="797"/>
      <point x="766" y="809" type="curve" smooth="yes"/>
      <point x="806" y="821"/>
      <point x="838" y="837"/>
      <point x="865" y="859" type="curve" smooth="yes"/>
      <point x="892" y="881"/>
      <point x="912" y="906"/>
      <point x="924" y="937" type="curve" smooth="yes"/>
      <point x="936" y="968"/>
      <point x="943" y="1000"/>
      <point x="943" y="1036" type="curve" smooth="yes"/>
      <point x="943" y="1120"/>
      <point x="918" y="1182"/>
      <point x="867" y="1221" type="curve" smooth="yes"/>
      <point x="816" y="1260"/>
      <point x="737" y="1280"/>
      <point x="631" y="1280" type="curve" smooth="yes"/>
      <point x="368" y="1280" type="line"/>
    </contour>
  </outline>
</glyph>
<glyph name="Bsharp" format="2">
  <advance width="1460"/>
  <outline>
    <contour>
      <point x="1405" y="1360" type="line"/>
      <point x="1405" y="1596" type="line"/>
      <point x="1327" y="1576" type="line"/>
      <point x="1327" y="1741" type="line"/>
      <point x="1405" y="1763" type="line"/>
      <point x="1405" y="1981" type="line"/>
      <point x="1456" y="1981" type="line"/>
      <point x="1456" y="1776" type="line"/>
      <point x="1566" y="1800" type="line"/>
      <point x="1567" y="2036" type="line"/>
      <point x="1618" y="2036" type="line"/>
      <point x="1618" y="1814" type="line"/>
      <point x="1698" y="1833" type="line"/>
      <point x="1698" y="1670" type="line"/>
      <point x="1618" y="1647" type="line"/>
      <point x="1618" y="1411" type="line"/>
      <point x="1698" y="1431" type="line"/>
      <point x="1698" y="1261" type="line"/>
      <point x="1618" y="1241" type="line"/>
      <point x="1618" y="977" type="line"/>
      <point x="1567" y="977" type="line"/>
      <point x="1567" y="1229" type="line"/>
      <point x="1456" y="1200" type="line"/>
      <point x="1456" y="922" type="line"/>
      <point x="1405" y="922" type="line"/>
      <point x="1405" y="1188" type="line"/>
      <point x="1327" y="1168" type="line"/>
      <point x="1327" y="1337" type="line"/>
    </contour>
    <contour>
      <point x="1567" y="1400" type="line"/>
      <point x="1567" y="1637" type="line"/>
      <point x="1456" y="1610" type="line"/>
      <point x="1456" y="1374" type="line"/>
    </contour>
    <contour>
      <point x="174" y="0" type="line"/>
      <point x="174" y="1433" type="line"/>
      <point x="631" y="1433" type="line" smooth="yes"/>
      <point x="719" y="1433"/>
      <point x="795" y="1424"/>
      <point x="858" y="1407" type="curve" smooth="yes"/>
      <point x="921" y="1390"/>
      <point x="974" y="1365"/>
      <point x="1015" y="1333" type="curve" smooth="yes"/>
      <point x="1056" y="1301"/>
      <point x="1086" y="1261"/>
      <point x="1106" y="1215" type="curve" smooth="yes"/>
      <point x="1126" y="1169"/>
      <point x="1136" y="1118"/>
      <point x="1136" y="1060" type="curve" smooth="yes"/>
      <point x="1136" y="1025"/>
      <point x="1131" y="990"/>
      <point x="1120" y="957" type="curve" smooth="yes"/>
      <point x="1109" y="924"/>
      <point x="1092" y="894"/>
      <point x="1070" y="866" type="curve" smooth="yes"/>
      <point x="1048" y="838"/>
      <point x="1019" y="813"/>
      <point x="986" y="791" type="curve" smooth="yes"/>
      <point x="953" y="769"/>
      <point x="912" y="751"/>
      <point x="867" y="737" type="curve"/>
      <point x="971" y="715"/>
      <point x="1050" y="679"/>
      <point x="1104" y="624" type="curve" smooth="yes"/>
      <point x="1158" y="569"/>
      <point x="1184" y="497"/>
      <point x="1184" y="408" type="curve" smooth="yes"/>
      <point x="1184" y="348"/>
      <point x="1172" y="292"/>
      <point x="1150" y="242" type="curve" smooth="yes"/>
      <point x="1128" y="192"/>
      <point x="1096" y="149"/>
      <point x="1053" y="113" type="curve" smooth="yes"/>
      <point x="1010" y="77"/>
      <point x="957" y="50"/>
      <point x="895" y="30" type="curve" smooth="yes"/>
      <point x="833" y="10"/>
      <point x="761" y="0"/>
      <point x="681" y="0" type="curve" smooth="yes"/>
    </contour>
    <contour>
      <point x="368" y="653" type="line"/>
      <point x="368" y="154" type="line"/>
      <point x="678" y="154" type="line" smooth="yes"/>
      <point x="734" y="154"/>
      <point x="781" y="161"/>
      <point x="820" y="173" type="curve" smooth="yes"/>
      <point x="859" y="185"/>
      <point x="893" y="204"/>
      <point x="919" y="227" type="curve" smooth="yes"/>
      <point x="945" y="250"/>
      <point x="963" y="276"/>
      <point x="975" y="308" type="curve" smooth="yes"/>
      <point x="987" y="340"/>
      <point x="993" y="375"/>
      <point x="993" y="413" type="curve" smooth="yes"/>
      <point x="993" y="487"/>
      <point x="968" y="546"/>
      <point x="915" y="589" type="curve" smooth="yes"/>
      <point x="862" y="632"/>
      <point x="783" y="653"/>
      <point x="677" y="653" type="curve" smooth="yes"/>
    </contour>
    <contour>
      <point x="368" y="791" type="line"/>
      <point x="624" y="791" type="line" smooth="yes"/>
      <point x="679" y="791"/>
      <point x="726" y="797"/>
      <point x="766" y="809" type="curve" smooth="yes"/>
      <point x="806" y="821"/>
      <point x="838" y="837"/>
      <point x="865" y="859" type="curve" smooth="yes"/>
      <point x="892" y="881"/>
      <point x="912" y="906"/>
      <point x="924" y="937" type="curve" smooth="yes"/>
      <point x="936" y="968"/>
      <point x="943" y="1000"/>
      <point x="943" y="1036" type="curve" smooth="yes"/>
      <point x="943" y="1120"/>
      <point x="918" y="1182"/>
      <point x="867" y="1221" type="curve" smooth="yes"/>
      <point x="816" y="1260"/>
      <point x="737" y="1280"/>
      <point x="631" y="1280" type="curve" smooth="yes"/>
      <point x="368" y="1280" type="line"/>
    </contour>
  </outline>
</glyph>
<glyph name="D7" format="2">
  <advance width="2550"/>
  <outline>
    <contour>
      <point x="2465" y="1305" type="line"/>
      <point x="2465" y="1217" type="line" smooth="yes"/>
      <point x="2465" y="1197"/>
      <point x="2464" y="1181"/>
      <point x="2459" y="1168" type="curve" smooth="yes"/>
      <point x="2454" y="1155"/>
      <point x="2450" y="1143"/>
      <point x="2444" y="1134" type="curve" smooth="yes"/>
      <point x="1910" y="57" type="line" smooth="yes"/>
      <point x="1902" y="41"/>
      <point x="1892" y="28"/>
      <point x="1878" y="17" type="curve" smooth="yes"/>
      <point x="1864" y="6"/>
      <point x="1845" y="0"/>
      <point x="1822" y="-0" type="curve" smooth="yes"/>
      <point x="1694" y="-0" type="line"/>
      <point x="2236" y="1063" type="line" smooth="yes"/>
      <point x="2244" y="1078"/>
      <point x="2253" y="1092"/>
      <point x="2261" y="1105" type="curve" smooth="yes"/>
      <point x="2269" y="1118"/>
      <point x="2278" y="1130"/>
      <point x="2288" y="1141" type="curve"/>
      <point x="1627" y="1141" type="line" smooth="yes"/>
      <point x="1617" y="1141"/>
      <point x="1608" y="1145"/>
      <point x="1600" y="1153" type="curve" smooth="yes"/>
      <point x="1592" y="1161"/>
      <point x="1588" y="1171"/>
      <point x="1588" y="1181" type="curve" smooth="yes"/>
      <point x="1588" y="1305" type="line"/>
    </contour>
    <contour>
      <point x="1416" y="716" type="curve" smooth="yes"/>
      <point x="1416" y="610"/>
      <point x="1399" y="511"/>
      <point x="1365" y="423" type="curve" smooth="yes"/>
      <point x="1331" y="335"/>
      <point x="1283" y="259"/>
      <point x="1221" y="197" type="curve" smooth="yes"/>
      <point x="1159" y="135"/>
      <point x="1085" y="86"/>
      <point x="998" y="52" type="curve" smooth="yes"/>
      <point x="911" y="18"/>
      <point x="815" y="0"/>
      <point x="710" y="0" type="curve" smooth="yes"/>
      <point x="174" y="0" type="line"/>
      <point x="174" y="1433" type="line"/>
      <point x="710" y="1433" type="line" smooth="yes"/>
      <point x="815" y="1433"/>
      <point x="911" y="1416"/>
      <point x="998" y="1382" type="curve" smooth="yes"/>
      <point x="1085" y="1348"/>
      <point x="1159" y="1298"/>
      <point x="1221" y="1235" type="curve" smooth="yes"/>
      <point x="1283" y="1172"/>
      <point x="1331" y="1097"/>
      <point x="1365" y="1009" type="curve" smooth="yes"/>
      <point x="1399" y="921"/>
      <point x="1416" y="822"/>
    </contour>
    <contour>
      <point x="1217" y="716" type="curve" smooth="yes"/>
      <point x="1217" y="804"/>
      <point x="1205" y="883"/>
      <point x="1181" y="952" type="curve" smooth="yes"/>
      <point x="1157" y="1021"/>
      <point x="1123" y="1080"/>
      <point x="1079" y="1128" type="curve" smooth="yes"/>
      <point x="1035" y="1176"/>
      <point x="981" y="1213"/>
      <point x="919" y="1238" type="curve" smooth="yes"/>
      <point x="857" y="1263"/>
      <point x="787" y="1276"/>
      <point x="710" y="1276" type="curve" smooth="yes"/>
      <point x="369" y="1276" type="line"/>
      <point x="369" y="157" type="line"/>
      <point x="710" y="157" type="line" smooth="yes"/>
      <point x="787" y="157"/>
      <point x="857" y="170"/>
      <point x="919" y="195" type="curve" smooth="yes"/>
      <point x="981" y="220"/>
      <point x="1035" y="256"/>
      <point x="1079" y="304" type="curve" smooth="yes"/>
      <point x="1123" y="352"/>
      <point x="1157" y="411"/>
      <point x="1181" y="480" type="curve" smooth="yes"/>
      <point x="1205" y="549"/>
      <point x="1217" y="628"/>
    </contour>
  </outline>
</glyph>
<glyph name="D9" format="2">
  <advance width="2550"/>
  <outline>
    <contour>
      <point x="1989" y="529" type="curve" smooth="yes"/>
      <point x="1940" y="529"/>
      <point x="1895" y="537"/>
      <point x="1851" y="554" type="curve" smooth="yes"/>
      <point x="1807" y="571"/>
      <point x="1768" y="595"/>
      <point x="1736" y="626" type="curve" smooth="yes"/>
      <point x="1704" y="657"/>
      <point x="1677" y="696"/>
      <point x="1658" y="742" type="curve" smooth="yes"/>
      <point x="1639" y="788"/>
      <point x="1629" y="840"/>
      <point x="1629" y="899" type="curve" smooth="yes"/>
      <point x="1629" y="955"/>
      <point x="1640" y="1007"/>
      <point x="1660" y="1057" type="curve" smooth="yes"/>
      <point x="1680" y="1107"/>
      <point x="1709" y="1150"/>
      <point x="1747" y="1186" type="curve" smooth="yes"/>
      <point x="1785" y="1222"/>
      <point x="1830" y="1252"/>
      <point x="1883" y="1272" type="curve" smooth="yes"/>
      <point x="1936" y="1292"/>
      <point x="1992" y="1304"/>
      <point x="2054" y="1304" type="curve" smooth="yes"/>
      <point x="2116" y="1304"/>
      <point x="2172" y="1293"/>
      <point x="2223" y="1273" type="curve" smooth="yes"/>
      <point x="2274" y="1253"/>
      <point x="2317" y="1224"/>
      <point x="2353" y="1188" type="curve" smooth="yes"/>
      <point x="2389" y="1152"/>
      <point x="2417" y="1107"/>
      <point x="2436" y="1056" type="curve" smooth="yes"/>
      <point x="2455" y="1005"/>
      <point x="2465" y="949"/>
      <point x="2465" y="887" type="curve" smooth="yes"/>
      <point x="2465" y="850"/>
      <point x="2461" y="815"/>
      <point x="2454" y="782" type="curve" smooth="yes"/>
      <point x="2447" y="749"/>
      <point x="2438" y="715"/>
      <point x="2425" y="684" type="curve" smooth="yes"/>
      <point x="2412" y="653"/>
      <point x="2396" y="621"/>
      <point x="2378" y="590" type="curve" smooth="yes"/>
      <point x="2360" y="559"/>
      <point x="2338" y="524"/>
      <point x="2315" y="491" type="curve" smooth="yes"/>
      <point x="2001" y="38" type="line" smooth="yes"/>
      <point x="1993" y="27"/>
      <point x="1983" y="17"/>
      <point x="1968" y="10" type="curve" smooth="yes"/>
      <point x="1953" y="3"/>
      <point x="1937" y="0"/>
      <point x="1918" y="-0" type="curve" smooth="yes"/>
      <point x="1749" y="-0" type="line"/>
      <point x="2163" y="514" type="line" smooth="yes"/>
      <point x="2176" y="532"/>
      <point x="2188" y="547"/>
      <point x="2199" y="563" type="curve" smooth="yes"/>
      <point x="2210" y="579"/>
      <point x="2221" y="594"/>
      <point x="2231" y="610" type="curve"/>
      <point x="2199" y="583"/>
      <point x="2162" y="564"/>
      <point x="2121" y="550" type="curve" smooth="yes"/>
      <point x="2080" y="536"/>
      <point x="2036" y="529"/>
    </contour>
    <contour>
      <point x="2285" y="906" type="curve" smooth="yes"/>
      <point x="2285" y="942"/>
      <point x="2279" y="976"/>
      <point x="2267" y="1005" type="curve" smooth="yes"/>
      <point x="2255" y="1034"/>
      <point x="2240" y="1060"/>
      <point x="2220" y="1080" type="curve" smooth="yes"/>
      <point x="2200" y="1100"/>
      <point x="2175" y="1116"/>
      <point x="2147" y="1127" type="curve" smooth="yes"/>
      <point x="2119" y="1138"/>
      <point x="2086" y="1144"/>
      <point x="2052" y="1144" type="curve" smooth="yes"/>
      <point x="2016" y="1144"/>
      <point x="1984" y="1138"/>
      <point x="1955" y="1126" type="curve" smooth="yes"/>
      <point x="1926" y="1114"/>
      <point x="1901" y="1098"/>
      <point x="1880" y="1078" type="curve" smooth="yes"/>
      <point x="1859" y="1058"/>
      <point x="1844" y="1033"/>
      <point x="1832" y="1005" type="curve" smooth="yes"/>
      <point x="1820" y="977"/>
      <point x="1814" y="944"/>
      <point x="1814" y="910" type="curve" smooth="yes"/>
      <point x="1814" y="874"/>
      <point x="1819" y="841"/>
      <point x="1830" y="813" type="curve" smooth="yes"/>
      <point x="1841" y="785"/>
      <point x="1857" y="759"/>
      <point x="1876" y="739" type="curve" smooth="yes"/>
      <point x="1895" y="719"/>
      <point x="1920" y="704"/>
      <point x="1948" y="694" type="curve" smooth="yes"/>
      <point x="1976" y="684"/>
      <point x="2008" y="678"/>
      <point x="2043" y="678" type="curve" smooth="yes"/>
      <point x="2082" y="678"/>
      <point x="2117" y="684"/>
      <point x="2147" y="696" type="curve" smooth="yes"/>
      <point x="2177" y="708"/>
      <point x="2202" y="727"/>
      <point x="2222" y="748" type="curve" smooth="yes"/>
      <point x="2242" y="769"/>
      <point x="2258" y="794"/>
      <point x="2269" y="821" type="curve" smooth="yes"/>
      <point x="2280" y="848"/>
      <point x="2285" y="877"/>
    </contour>
    <contour>
      <point x="1416" y="716" type="curve" smooth="yes"/>
      <point x="1416" y="610"/>
      <point x="1399" y="511"/>
      <point x="1365" y="423" type="curve" smooth="yes"/>
      <point x="1331" y="335"/>
      <point x="1283" y="259"/>
      <point x="1221" y="197" type="curve" smooth="yes"/>
      <point x="1159" y="135"/>
      <point x="1085" y="86"/>
      <point x="998" y="52" type="curve" smooth="yes"/>
      <point x="911" y="18"/>
      <point x="815" y="0"/>
      <point x="710" y="0" type="curve" smooth="yes"/>
      <point x="174" y="0" type="line"/>
      <point x="174" y="1433" type="line"/>
      <point x="710" y="1433" type="line" smooth="yes"/>
      <point x="815" y="1433"/>
      <point x="911" y="1416"/>
      <point x="998" y="1382" type="curve" smooth="yes"/>
      <point x="1085" y="1348"/>
      <point x="1159" y="1298"/>
      <point x="1221" y="1235" type="curve" smooth="yes"/>
      <point x="1283" y="1172"/>
      <point x="1331" y="1097"/>
      <point x="1365" y="1009" type="curve" smooth="yes"/>
      <point x="1399" y="921"/>
      <point x="1416" y="822"/>
    </contour>
    <contour>
      <point x="1217" y="716" type="curve" smooth="yes"/>
      <point x="1217" y="804"/>
      <point x="1205" y="883"/>
      <point x="1181" y="952" type="curve" smooth="yes"/>
      <point x="1157" y="1021"/>
      <point x="1123" y="1080"/>
      <point x="1079" y="1128" type="curve" smooth="yes"/>
      <point x="1035" y="1176"/>
      <point x="981" y="1213"/>
      <point x="919" y="1238" type="curve" smooth="yes"/>
      <point x="857" y="1263"/>
      <point x="787" y="1276"/>
      <point x="710" y="1276" type="curve" smooth="yes"/>
      <point x="369" y="1276" type="line"/>
      <point x="369" y="157" type="line"/>
      <point x="710" y="157" type="line" smooth="yes"/>
      <point x="787" y="157"/>
      <point x="857" y="170"/>
      <point x="919" y="195" type="curve" smooth="yes"/>
      <point x="981" y="220"/>
      <point x="1035" y="256"/>
      <point x="1079" y="304" type="curve" smooth="yes"/>
      <point x="1123" y="352"/>
      <point x="1157" y="411"/>
      <point x="1181" y="480" type="curve" smooth="yes"/>
      <point x="1205" y="549"/>
      <point x="1217" y="628"/>
    </contour>
  </outline>
</glyph>
<glyph name="Dflat" format="2">
  <advance width="1644"/>
  <outline>
    <contour>
      <point x="1560" y="2129" type="line"/>
      <point x="1617" y="2129" type="line"/>
      <point x="1617" y="1421" type="line"/>
      <point x="1662" y="1466"/>
      <point x="1713" y="1488"/>
      <point x="1769" y="1488" type="curve" smooth="yes"/>
      <point x="1807" y="1488"/>
      <point x="1842" y="1476"/>
      <point x="1874" y="1450" type="curve" smooth="yes"/>
      <point x="1906" y="1424"/>
      <point x="1921" y="1386"/>
      <point x="1921" y="1336" type="curve" smooth="yes"/>
      <point x="1921" y="1298"/>
      <point x="1909" y="1261"/>
      <point x="1887" y="1228" type="curve" smooth="yes"/>
      <point x="1865" y="1195"/>
      <point x="1831" y="1163"/>
      <point x="1793" y="1130" type="curve" smooth="yes"/>
      <point x="1669" y="1023" type="line" smooth="yes"/>
      <point x="1647" y="1004"/>
      <point x="1624" y="985"/>
      <point x="1606" y="967" type="curve" smooth="yes"/>
      <point x="1588" y="949"/>
      <point x="1574" y="929"/>
      <point x="1560" y="912" type="curve"/>
    </contour>
    <contour>
      <point x="1617" y="1034" type="line"/>
      <point x="1649" y="1069"/>
      <point x="1674" y="1098"/>
      <point x="1696" y="1127" type="curve" smooth="yes"/>
      <point x="1718" y="1156"/>
      <point x="1734" y="1182"/>
      <point x="1747" y="1204" type="curve" smooth="yes"/>
      <point x="1761" y="1226"/>
      <point x="1771" y="1248"/>
      <point x="1777" y="1267" type="curve" smooth="yes"/>
      <point x="1783" y="1286"/>
      <point x="1787" y="1303"/>
      <point x="1787" y="1320" type="curve" smooth="yes"/>
      <point x="1787" y="1355"/>
      <point x="1779" y="1380"/>
      <point x="1764" y="1395" type="curve" smooth="yes"/>
      <point x="1749" y="1410"/>
      <point x="1731" y="1416"/>
      <point x="1713" y="1416" type="curve" smooth="yes"/>
      <point x="1694" y="1416"/>
      <point x="1674" y="1412"/>
      <point x="1656" y="1397" type="curve" smooth="yes"/>
      <point x="1638" y="1382"/>
      <point x="1625" y="1361"/>
      <point x="1617" y="1338" type="curve"/>
    </contour>
    <contour>
      <point x="1416" y="716" type="curve" smooth="yes"/>
      <point x="1416" y="610"/>
      <point x="1399" y="511"/>
      <point x="1365" y="423" type="curve" smooth="yes"/>
      <point x="1331" y="335"/>
      <point x="1283" y="259"/>
      <point x="1221" y="197" type="curve" smooth="yes"/>
      <point x="1159" y="135"/>
      <point x="1085" y="86"/>
      <point x="998" y="52" type="curve" smooth="yes"/>
      <point x="911" y="18"/>
      <point x="815" y="0"/>
      <point x="710" y="0" type="curve" smooth="yes"/>
      <point x="174" y="0" type="line"/>
      <point x="174" y="1433" type="line"/>
      <point x="710" y="1433" type="line" smooth="yes"/>
      <point x="815" y="1433"/>
      <point x="911" y="1416"/>
      <point x="998" y="1382" type="curve" smooth="yes"/>
      <point x="1085" y="1348"/>
      <point x="1159" y="1298"/>
      <point x="1221" y="1235" type="curve" smooth="yes"/>
      <point x="1283" y="1172"/>
      <point x="1331" y="1097"/>
      <point x="1365" y="1009" type="curve" smooth="yes"/>
      <point x="1399" y="921"/>
      <point x="1416" y="822"/>
    </contour>
    <contour>
      <point x="1217" y="716" type="curve" smooth="yes"/>
      <point x="1217" y="804"/>
      <point x="1205" y="883"/>
      <point x="1181" y="952" type="curve" smooth="yes"/>
      <point x="1157" y="1021"/>
      <point x="1123" y="1080"/>
      <point x="1079" y="1128" type="curve" smooth="yes"/>
      <point x="1035" y="1176"/>
      <point x="981" y="1213"/>
      <point x="919" y="1238" type="curve" smooth="yes"/>
      <point x="857" y="1263"/>
      <point x="787" y="1276"/>
      <point x="710" y="1276" type="curve" smooth="yes"/>
      <point x="369" y="1276" type="line"/>
      <point x="369" y="157" type="line"/>
      <point x="710" y="157" type="line" smooth="yes"/>
      <point x="787" y="157"/>
      <point x="857" y="170"/>
      <point x="919" y="195" type="curve" smooth="yes"/>
      <point x="981" y="220"/>
      <point x="1035" y="256"/>
      <point x="1079" y="304" type="curve" smooth="yes"/>
      <point x="1123" y="352"/>
      <point x="1157" y="411"/>
      <point x="1181" y="480" type="curve" smooth="yes"/>
      <point x="1205" y="549"/>
      <point x="1217" y="628"/>
    </contour>
  </outline>
</glyph>
<glyph name="E7" format="2">
  <advance width="2281"/>
  <outline>
    <contour>
      <point x="2197" y="1305" type="line"/>
      <point x="2197" y="1217" type="line" smooth="yes"/>
      <point x="2197" y="1197"/>
      <point x="2195" y="1181"/>
      <point x="2190" y="1168" type="curve" smooth="yes"/>
      <point x="2185" y="1155"/>
      <point x="2182" y="1143"/>
      <point x="2176" y="1134" type="curve" smooth="yes"/>
      <point x="1642" y="57" type="line" smooth="yes"/>
      <point x="1634" y="41"/>
      <point x="1624" y="28"/>
      <point x="1610" y="17" type="curve" smooth="yes"/>
      <point x="1596" y="6"/>
      <point x="1577" y="0"/>
      <point x="1554" y="-0" type="curve" smooth="yes"/>
      <point x="1426" y="-0" type="line"/>
      <point x="1968" y="1063" type="line" smooth="yes"/>
      <point x="1976" y="1078"/>
      <point x="1985" y="1092"/>
      <point x="1993" y="1105" type="curve" smooth="yes"/>
      <point x="2001" y="1118"/>
      <point x="2010" y="1130"/>
      <point x="2020" y="1141" type="curve"/>
      <point x="1359" y="1141" type="line" smooth="yes"/>
      <point x="1349" y="1141"/>
      <point x="1340" y="1145"/>
      <point x="1332" y="1153" type="curve" smooth="yes"/>
      <point x="1324" y="1161"/>
      <point x="1320" y="1171"/>
      <point x="1320" y="1181" type="curve" smooth="yes"/>
      <point x="1320" y="1305" type="line"/>
    </contour>
    <contour>
      <point x="1057" y="1433" type="line"/>
      <point x="1057" y="1275" type="line"/>
      <point x="369" y="1275" type="line"/>
      <point x="369" y="799" type="line"/>
      <point x="926" y="799" type="line"/>
      <point x="926" y="647" type="line"/>
      <point x="369" y="647" type="line"/>
      <point x="369" y="158" type="line"/>
      <point x="1057" y="158" type="line"/>
      <point x="1057" y="0" type="line"/>
      <point x="174" y="0" type="line"/>
      <point x="174" y="1433" type="line"/>
    </contour>
  </outline>
</glyph>
<glyph name="E9" format="2">
  <advance width="2281"/>
  <outline>
    <contour>
      <point x="1720" y="529" type="curve" smooth="yes"/>
      <point x="1671" y="529"/>
      <point x="1625" y="537"/>
      <point x="1581" y="554" type="curve" smooth="yes"/>
      <point x="1537" y="571"/>
      <point x="1499" y="595"/>
      <point x="1467" y="626" type="curve" smooth="yes"/>
      <point x="1435" y="657"/>
      <point x="1408" y="696"/>
      <point x="1389" y="742" type="curve" smooth="yes"/>
      <point x="1370" y="788"/>
      <point x="1359" y="840"/>
      <point x="1359" y="899" type="curve" smooth="yes"/>
      <point x="1359" y="955"/>
      <point x="1371" y="1007"/>
      <point x="1391" y="1057" type="curve" smooth="yes"/>
      <point x="1411" y="1107"/>
      <point x="1440" y="1150"/>
      <point x="1478" y="1186" type="curve" smooth="yes"/>
      <point x="1516" y="1222"/>
      <point x="1561" y="1252"/>
      <point x="1614" y="1272" type="curve" smooth="yes"/>
      <point x="1667" y="1292"/>
      <point x="1723" y="1304"/>
      <point x="1785" y="1304" type="curve" smooth="yes"/>
      <point x="1847" y="1304"/>
      <point x="1903" y="1293"/>
      <point x="1954" y="1273" type="curve" smooth="yes"/>
      <point x="2005" y="1253"/>
      <point x="2048" y="1224"/>
      <point x="2084" y="1188" type="curve" smooth="yes"/>
      <point x="2120" y="1152"/>
      <point x="2148" y="1107"/>
      <point x="2167" y="1056" type="curve" smooth="yes"/>
      <point x="2186" y="1005"/>
      <point x="2196" y="949"/>
      <point x="2196" y="887" type="curve" smooth="yes"/>
      <point x="2196" y="850"/>
      <point x="2192" y="815"/>
      <point x="2185" y="782" type="curve" smooth="yes"/>
      <point x="2178" y="749"/>
      <point x="2169" y="715"/>
      <point x="2156" y="684" type="curve" smooth="yes"/>
      <point x="2143" y="653"/>
      <point x="2127" y="621"/>
      <point x="2109" y="590" type="curve" smooth="yes"/>
      <point x="2091" y="559"/>
      <point x="2069" y="524"/>
      <point x="2046" y="491" type="curve" smooth="yes"/>
      <point x="1732" y="38" type="line" smooth="yes"/>
      <point x="1724" y="27"/>
      <point x="1713" y="17"/>
      <point x="1698" y="10" type="curve" smooth="yes"/>
      <point x="1683" y="3"/>
      <point x="1668" y="0"/>
      <point x="1649" y="-0" type="curve" smooth="yes"/>
      <point x="1480" y="-0" type="line"/>
      <point x="1894" y="514" type="line" smooth="yes"/>
      <point x="1907" y="532"/>
      <point x="1919" y="547"/>
      <point x="1930" y="563" type="curve" smooth="yes"/>
      <point x="1941" y="579"/>
      <point x="1952" y="594"/>
      <point x="1962" y="610" type="curve"/>
      <point x="1930" y="583"/>
      <point x="1892" y="564"/>
      <point x="1851" y="550" type="curve" smooth="yes"/>
      <point x="1810" y="536"/>
      <point x="1767" y="529"/>
    </contour>
    <contour>
      <point x="2016" y="906" type="curve" smooth="yes"/>
      <point x="2016" y="942"/>
      <point x="2010" y="976"/>
      <point x="1998" y="1005" type="curve" smooth="yes"/>
      <point x="1986" y="1034"/>
      <point x="1970" y="1060"/>
      <point x="1950" y="1080" type="curve" smooth="yes"/>
      <point x="1930" y="1100"/>
      <point x="1905" y="1116"/>
      <point x="1877" y="1127" type="curve" smooth="yes"/>
      <point x="1849" y="1138"/>
      <point x="1817" y="1144"/>
      <point x="1783" y="1144" type="curve" smooth="yes"/>
      <point x="1747" y="1144"/>
      <point x="1715" y="1138"/>
      <point x="1686" y="1126" type="curve" smooth="yes"/>
      <point x="1657" y="1114"/>
      <point x="1631" y="1098"/>
      <point x="1610" y="1078" type="curve" smooth="yes"/>
      <point x="1589" y="1058"/>
      <point x="1574" y="1033"/>
      <point x="1562" y="1005" type="curve" smooth="yes"/>
      <point x="1550" y="977"/>
      <point x="1545" y="944"/>
      <point x="1545" y="910" type="curve" smooth="yes"/>
      <point x="1545" y="874"/>
      <point x="1550" y="841"/>
      <point x="1561" y="813" type="curve" smooth="yes"/>
      <point x="1572" y="785"/>
      <point x="1588" y="759"/>
      <point x="1607" y="739" type="curve" smooth="yes"/>
      <point x="1626" y="719"/>
      <point x="1650" y="704"/>
      <point x="1678" y="694" type="curve" smooth="yes"/>
      <point x="1706" y="684"/>
      <point x="1739" y="678"/>
      <point x="1774" y="678" type="curve" smooth="yes"/>
      <point x="1813" y="678"/>
      <point x="1847" y="684"/>
      <point x="1877" y="696" type="curve" smooth="yes"/>
      <point x="1907" y="708"/>
      <point x="1933" y="727"/>
      <point x="1953" y="748" type="curve" smooth="yes"/>
      <point x="1973" y="769"/>
      <point x="1988" y="794"/>
      <point x="1999" y="821" type="curve" smooth="yes"/>
      <point x="2010" y="848"/>
      <point x="2016" y="877"/>
    </contour>
    <contour>
      <point x="1057" y="1433" type="line"/>
      <point x="1057" y="1275" type="line"/>
      <point x="369" y="1275" type="line"/>
      <point x="369" y="799" type="line"/>
      <point x="926" y="799" type="line"/>
      <point x="926" y="647" type="line"/>
      <point x="369" y="647" type="line"/>
      <point x="369" y="158" type="line"/>
      <point x="1057" y="158" type="line"/>
      <point x="1057" y="0" type="line"/>
      <point x="174" y="0" type="line"/>
      <point x="174" y="1433" type="line"/>
    </contour>
  </outline>
</glyph>
<glyph name="Eflat" format="2">
  <advance width="1373"/>
  <outline>
    <contour>
      <point x="1288" y="2129" type="line"/>
      <point x="1344" y="2129" type="line"/>
      <point x="1344" y="1421" type="line"/>
      <point x="1389" y="1466"/>
      <point x="1440" y="1488"/>
      <point x="1496" y="1488" type="curve" smooth="yes"/>
      <point x="1534" y="1488"/>
      <point x="1569" y="1476"/>
      <point x="1601" y="1450" type="curve" smooth="yes"/>
      <point x="1633" y="1424"/>
      <point x="1650" y="1386"/>
      <point x="1650" y="1336" type="curve" smooth="yes"/>
      <point x="1650" y="1298"/>
      <point x="1637" y="1261"/>
      <point x="1615" y="1228" type="curve" smooth="yes"/>
      <point x="1593" y="1195"/>
      <point x="1560" y="1163"/>
      <point x="1522" y="1130" type="curve" smooth="yes"/>
      <point x="1397" y="1023" type="line" smooth="yes"/>
      <point x="1375" y="1004"/>
      <point x="1353" y="985"/>
      <point x="1335" y="967" type="curve" smooth="yes"/>
      <point x="1317" y="949"/>
      <point x="1302" y="929"/>
      <point x="1288" y="912" type="curve"/>
    </contour>
    <contour>
      <point x="1344" y="1034" type="line"/>
      <point x="1376" y="1069"/>
      <point x="1401" y="1098"/>
      <point x="1423" y="1127" type="curve" smooth="yes"/>
      <point x="1445" y="1156"/>
      <point x="1462" y="1182"/>
      <point x="1475" y="1204" type="curve" smooth="yes"/>
      <point x="1489" y="1226"/>
      <point x="1499" y="1248"/>
      <point x="1505" y="1267" type="curve" smooth="yes"/>
      <point x="1511" y="1286"/>
      <point x="1514" y="1303"/>
      <point x="1514" y="1320" type="curve" smooth="yes"/>
      <point x="1514" y="1355"/>
      <point x="1506" y="1380"/>
      <point x="1491" y="1395" type="curve" smooth="yes"/>
      <point x="1476" y="1410"/>
      <point x="1458" y="1416"/>
      <point x="1440" y="1416" type="curve" smooth="yes"/>
      <point x="1421" y="1416"/>
      <point x="1402" y="1412"/>
      <point x="1384" y="1397" type="curve" smooth="yes"/>
      <point x="1366" y="1382"/>
      <point x="1352" y="1361"/>
      <point x="1344" y="1338" type="curve"/>
    </contour>
    <contour>
      <point x="1057" y="1433" type="line"/>
      <point x="1057" y="1275" type="line"/>
      <point x="369" y="1275" type="line"/>
      <point x="369" y="799" type="line"/>
      <point x="926" y="799" type="line"/>
      <point x="926" y="647" type="line"/>
      <point x="369" y="647" type="line"/>
      <point x="369" y="158" type="line"/>
      <point x="1057" y="158" type="line"/>
      <point x="1057" y="0" type="line"/>
      <point x="174" y="0" type="line"/>
      <point x="174" y="1433" type="line"/>
    </contour>
  </outline>
</glyph>
<glyph name="Esharp" format="2">
  <advance width="1394"/>
  <outline>
    <contour>
      <point x="1331" y="1360" type="line"/>
      <point x="1331" y="1596" type="line"/>
      <point x="1254" y="1576" type="line"/>
      <point x="1254" y="1741" type="line"/>
      <point x="1331" y="1763" type="line"/>
      <point x="1331" y="1981" type="line"/>
      <point x="1382" y="1981" type="line"/>
      <point x="1382" y="1776" type="line"/>
      <point x="1493" y="1800" type="line"/>
      <point x="1493" y="2036" type="line"/>
      <point x="1544" y="2036" type="line"/>
      <point x="1544" y="1814" type="line"/>
      <point x="1624" y="1833" type="line"/>
      <point x="1624" y="1670" type="line"/>
      <point x="1544" y="1647" type="line"/>
      <point x="1544" y="1411" type="line"/>
      <point x="1624" y="1431" type="line"/>
      <point x="1624" y="1261" type="line"/>
      <point x="1544" y="1241" type="line"/>
      <point x="1544" y="977" type="line"/>
      <point x="1493" y="977" type="line"/>
      <point x="1493" y="1229" type="line"/>
      <point x="1382" y="1200" type="line"/>
      <point x="1382" y="922" type="line"/>
      <point x="1331" y="922" type="line"/>
      <point x="1331" y="1188" type="line"/>
      <point x="1254" y="1168" type="line"/>
      <point x="1254" y="1337" type="line"/>
    </contour>
    <contour>
      <point x="1493" y="1400" type="line"/>
      <point x="1493" y="1637" type="line"/>
      <point x="1382" y="1610" type="line"/>
      <point x="1382" y="1374" type="line"/>
    </contour>
    <contour>
      <point x="1057" y="1433" type="line"/>
      <point x="1057" y="1275" type="line"/>
      <point x="369" y="1275" type="line"/>
      <point x="369" y="799" type="line"/>
      <point x="926" y="799" type="line"/>
      <point x="926" y="647" type="line"/>
      <point x="369" y="647" type="line"/>
      <point x="369" y="158" type="line"/>
      <point x="1057" y="158" type="line"/>
      <point x="1057" y="0" type="line"/>
      <point x="174" y="0" type="line"/>
      <point x="174" y="1433" type="line"/>
    </contour>
  </outline>
</glyph>
<glyph name="F7" format="2">
  <advance width="2241"/>
  <outline>
    <contour>
      <point x="2156" y="1305" type="line"/>
      <point x="2156" y="1217" type="line" smooth="yes"/>
      <point x="2156" y="1197"/>
      <point x="2154" y="1181"/>
      <point x="2149" y="1168" type="curve" smooth="yes"/>
      <point x="2144" y="1155"/>
      <point x="2141" y="1143"/>
      <point x="2135" y="1134" type="curve" smooth="yes"/>
      <point x="1601" y="57" type="line" smooth="yes"/>
      <point x="1593" y="41"/>
      <point x="1583" y="28"/>
      <point x="1569" y="17" type="curve" smooth="yes"/>
      <point x="1555" y="6"/>
      <point x="1536" y="0"/>
      <point x="1513" y="-0" type="curve" smooth="yes"/>
      <point x="1385" y="-0" type="line"/>
      <point x="1927" y="1063" type="line" smooth="yes"/>
      <point x="1935" y="1078"/>
      <point x="1944" y="1092"/>
      <point x="1952" y="1105" type="curve" smooth="yes"/>
      <point x="1960" y="1118"/>
      <point x="1969" y="1130"/>
      <point x="1979" y="1141" type="curve"/>
      <point x="1318" y="1141" type="line" smooth="yes"/>
      <point x="1308" y="1141"/>
      <point x="1299" y="1145"/>
      <point x="1291" y="1153" type="curve" smooth="yes"/>
      <point x="1283" y="1161"/>
      <point x="1279" y="1171"/>
      <point x="1279" y="1181" type="curve" smooth="yes"/>
      <point x="1279" y="1305" type="line"/>
    </contour>
    <contour>
      <point x="1057" y="1433" type="line"/>
      <point x="1057" y="1275" type="line"/>
      <point x="369" y="1275" type="line"/>
      <point x="369" y="774" type="line"/>
      <point x="957" y="774" type="line"/>
      <point x="957" y="616" type="line"/>
      <point x="369" y="616" type="line"/>
      <point x="369" y="0" type="line"/>
      <point x="174" y="0" type="line"/>
      <point x="174" y="1433" type="line"/>
    </contour>
  </outline>
</glyph>
<glyph name="Fflat" format="2">
  <advance width="1372"/>
  <outline>
    <contour>
      <point x="1287" y="2129" type="line"/>
      <point x="1343" y="2129" type="line"/>
      <point x="1343" y="1421" type="line"/>
      <point x="1388" y="1466"/>
      <point x="1439" y="1488"/>
      <point x="1495" y="1488" type="curve" smooth="yes"/>
      <point x="1533" y="1488"/>
      <point x="1568" y="1476"/>
      <point x="1600" y="1450" type="curve" smooth="yes"/>
      <point x="1632" y="1424"/>
      <point x="1649" y="1386"/>
      <point x="1649" y="1336" type="curve" smooth="yes"/>
      <point x="1649" y="1298"/>
      <point x="1636" y="1261"/>
      <point x="1614" y="1228" type="curve" smooth="yes"/>
      <point x="1592" y="1195"/>
      <point x="1559" y="1163"/>
      <point x="1521" y="1130" type="curve" smooth="yes"/>
      <point x="1396" y="1023" type="line" smooth="yes"/>
      <point x="1374" y="1004"/>
      <point x="1352" y="985"/>
      <point x="1334" y="967" type="curve" smooth="yes"/>
      <point x="1316" y="949"/>
      <point x="1301" y="929"/>
      <point x="1287" y="912" type="curve"/>
    </contour>
    <contour>
      <point x="1343" y="1034" type="line"/>
      <point x="1375" y="1069"/>
      <point x="1400" y="1098"/>
      <point x="1422" y="1127" type="curve" smooth="yes"/>
      <point x="1444" y="1156"/>
      <point x="1461" y="1182"/>
      <point x="1474" y="1204" type="curve" smooth="yes"/>
      <point x="1488" y="1226"/>
      <point x="1498" y="1248"/>
      <point x="1504" y="1267" type="curve" smooth="yes"/>
      <point x="1510" y="1286"/>
      <point x="1513" y="1303"/>
      <point x="1513" y="1320" type="curve" smooth="yes"/>
      <point x="1513" y="1355"/>
      <point x="1505" y="1380"/>
      <point x="1490" y="1395" type="curve" smooth="yes"/>
      <point x="1475" y="1410"/>
      <point x="1457" y="1416"/>
      <point x="1439" y="1416" type="curve" smooth="yes"/>
      <point x="1420" y="1416"/>
      <point x="1401" y="1412"/>
      <point x="1383" y="1397" type="curve" smooth="yes"/>
      <point x="1365" y="1382"/>
      <point x="1351" y="1361"/>
      <point x="1343" y="1338" type="curve"/>
    </contour>
    <contour>
      <point x="1057" y="1433" type="line"/>
      <point x="1057" y="1275" type="line"/>
      <point x="369" y="1275" type="line"/>
      <point x="369" y="774" type="line"/>
      <point x="957" y="774" type="line"/>
      <point x="957" y="616" type="line"/>
      <point x="369" y="616" type="line"/>
      <point x="369" y="0" type="line"/>
      <point x="174" y="0" type="line"/>
      <point x="174" y="1433" type="line"/>
    </contour>
  </outline>
</glyph>
<glyph name="Fsharp" format="2">
  <advance width="1391"/>
  <outline>
    <contour>
      <point x="1332" y="1360" type="line"/>
      <point x="1332" y="1596" type="line"/>
      <point x="1255" y="1576" type="line"/>
      <point x="1255" y="1741" type="line"/>
      <point x="1332" y="1763" type="line"/>
      <point x="1332" y="1981" type="line"/>
      <point x="1383" y="1981" type="line"/>
      <point x="1383" y="1776" type="line"/>
      <point x="1494" y="1800" type="line"/>
      <point x="1494" y="2036" type="line"/>
      <point x="1544" y="2036" type="line"/>
      <point x="1544" y="1814" type="line"/>
      <point x="1625" y="1833" type="line"/>
      <point x="1625" y="1670" type="line"/>
      <point x="1544" y="1647" type="line"/>
      <point x="1544" y="1411" type="line"/>
      <point x="1625" y="1431" type="line"/>
      <point x="1625" y="1261" type="line"/>
      <point x="1544" y="1241" type="line"/>
      <point x="1544" y="977" type="line"/>
      <point x="1494" y="977" type="line"/>
      <point x="1494" y="1229" type="line"/>
      <point x="1383" y="1200" type="line"/>
      <point x="1383" y="922" type="line"/>
      <point x="1332" y="922" type="line"/>
      <point x="1332" y="1188" type="line"/>
      <point x="1255" y="1168" type="line"/>
      <point x="1255" y="1337" type="line"/>
    </contour>
    <contour>
      <point x="1494" y="1400" type="line"/>
      <point x="1494" y="1637" type="line"/>
      <point x="1383" y="1610" type="line"/>
      <point x="1383" y="1374" type="line"/>
    </contour>
    <contour>
      <point x="1057" y="1433" type="line"/>
      <point x="1057" y="1275" type="line"/>
      <point x="369" y="1275" type="line"/>
      <point x="369" y="774" type="line"/>
      <point x="957" y="774" type="line"/>
      <point x="957" y="616" type="line"/>
      <point x="369" y="616" type="line"/>
      <point x="369" y="0" type="line"/>
      <point x="174" y="0" type="line"/>
      <point x="174" y="1433" type="line"/>
    </contour>
  </outline>
</glyph>
<glyph name="G7" format="2">
  <advance width="2539"/>
  <outline>
    <contour>
      <point x="2422" y="1305" type="line"/>
      <point x="2422" y="1217" type="line" smooth="yes"/>
      <point x="2422" y="1197"/>
      <point x="2421" y="1181"/>
      <point x="2416" y="1168" type="curve" smooth="yes"/>
      <point x="2411" y="1155"/>
      <point x="2407" y="1143"/>
      <point x="2401" y="1134" type="curve" smooth="yes"/>
      <point x="1867" y="57" type="line" smooth="yes"/>
      <point x="1859" y="41"/>
      <point x="1849" y="28"/>
      <point x="1835" y="17" type="curve" smooth="yes"/>
      <point x="1821" y="6"/>
      <point x="1802" y="0"/>
      <point x="1779" y="-0" type="curve" smooth="yes"/>
      <point x="1651" y="-0" type="line"/>
      <point x="2193" y="1063" type="line" smooth="yes"/>
      <point x="2201" y="1078"/>
      <point x="2210" y="1092"/>
      <point x="2218" y="1105" type="curve" smooth="yes"/>
      <point x="2226" y="1118"/>
      <point x="2235" y="1130"/>
      <point x="2245" y="1141" type="curve"/>
      <point x="1584" y="1141" type="line" smooth="yes"/>
      <point x="1574" y="1141"/>
      <point x="1565" y="1145"/>
      <point x="1557" y="1153" type="curve" smooth="yes"/>
      <point x="1549" y="1161"/>
      <point x="1545" y="1171"/>
      <point x="1545" y="1181" type="curve" smooth="yes"/>
      <point x="1545" y="1305" type="line"/>
    </contour>
    <contour>
      <point x="813" y="141" type="curve" smooth="yes"/>
      <point x="851" y="141"/>
      <point x="887" y="142"/>
      <point x="920" y="146" type="curve" smooth="yes"/>
      <point x="953" y="150"/>
      <point x="982" y="155"/>
      <point x="1011" y="163" type="curve" smooth="yes"/>
      <point x="1040" y="171"/>
      <point x="1067" y="178"/>
      <point x="1092" y="189" type="curve" smooth="yes"/>
      <point x="1117" y="200"/>
      <point x="1143" y="212"/>
      <point x="1168" y="225" type="curve"/>
      <point x="1168" y="541" type="line"/>
      <point x="946" y="541" type="line" smooth="yes"/>
      <point x="934" y="541"/>
      <point x="924" y="544"/>
      <point x="916" y="552" type="curve" smooth="yes"/>
      <point x="908" y="560"/>
      <point x="904" y="568"/>
      <point x="904" y="579" type="curve" smooth="yes"/>
      <point x="904" y="689" type="line"/>
      <point x="1343" y="689" type="line"/>
      <point x="1343" y="139" type="line"/>
      <point x="1307" y="113"/>
      <point x="1271" y="90"/>
      <point x="1232" y="71" type="curve" smooth="yes"/>
      <point x="1193" y="52"/>
      <point x="1150" y="36"/>
      <point x="1106" y="23" type="curve" smooth="yes"/>
      <point x="1062" y="10"/>
      <point x="1015" y="0"/>
      <point x="964" y="-7" type="curve" smooth="yes"/>
      <point x="913" y="-14"/>
      <point x="858" y="-16"/>
      <point x="799" y="-16" type="curve" smooth="yes"/>
      <point x="695" y="-16"/>
      <point x="600" y="2"/>
      <point x="513" y="37" type="curve" smooth="yes"/>
      <point x="426" y="72"/>
      <point x="351" y="125"/>
      <point x="289" y="188" type="curve" smooth="yes"/>
      <point x="227" y="251"/>
      <point x="178" y="329"/>
      <point x="143" y="419" type="curve" smooth="yes"/>
      <point x="108" y="509"/>
      <point x="90" y="608"/>
      <point x="90" y="716" type="curve" smooth="yes"/>
      <point x="90" y="825"/>
      <point x="108" y="925"/>
      <point x="142" y="1015" type="curve" smooth="yes"/>
      <point x="176" y="1105"/>
      <point x="225" y="1184"/>
      <point x="288" y="1247" type="curve" smooth="yes"/>
      <point x="351" y="1310"/>
      <point x="430" y="1361"/>
      <point x="520" y="1396" type="curve" smooth="yes"/>
      <point x="610" y="1431"/>
      <point x="711" y="1449"/>
      <point x="823" y="1449" type="curve" smooth="yes"/>
      <point x="879" y="1449"/>
      <point x="932" y="1445"/>
      <point x="981" y="1436" type="curve" smooth="yes"/>
      <point x="1030" y="1427"/>
      <point x="1075" y="1416"/>
      <point x="1117" y="1401" type="curve" smooth="yes"/>
      <point x="1159" y="1386"/>
      <point x="1197" y="1365"/>
      <point x="1232" y="1343" type="curve" smooth="yes"/>
      <point x="1267" y="1321"/>
      <point x="1300" y="1296"/>
      <point x="1331" y="1268" type="curve"/>
      <point x="1276" y="1180" type="line" smooth="yes"/>
      <point x="1265" y="1162"/>
      <point x="1250" y="1153"/>
      <point x="1232" y="1153" type="curve" smooth="yes"/>
      <point x="1221" y="1153"/>
      <point x="1209" y="1156"/>
      <point x="1197" y="1164" type="curve" smooth="yes"/>
      <point x="1181" y="1174"/>
      <point x="1163" y="1185"/>
      <point x="1141" y="1198" type="curve" smooth="yes"/>
      <point x="1119" y="1211"/>
      <point x="1095" y="1224"/>
      <point x="1065" y="1236" type="curve" smooth="yes"/>
      <point x="1035" y="1248"/>
      <point x="1001" y="1259"/>
      <point x="961" y="1268" type="curve" smooth="yes"/>
      <point x="921" y="1277"/>
      <point x="873" y="1281"/>
      <point x="817" y="1281" type="curve" smooth="yes"/>
      <point x="737" y="1281"/>
      <point x="663" y="1268"/>
      <point x="598" y="1241" type="curve" smooth="yes"/>
      <point x="533" y="1214"/>
      <point x="477" y="1177"/>
      <point x="431" y="1128" type="curve" smooth="yes"/>
      <point x="385" y="1079"/>
      <point x="350" y="1020"/>
      <point x="325" y="950" type="curve" smooth="yes"/>
      <point x="300" y="880"/>
      <point x="288" y="803"/>
      <point x="288" y="716" type="curve" smooth="yes"/>
      <point x="288" y="625"/>
      <point x="300" y="545"/>
      <point x="326" y="474" type="curve" smooth="yes"/>
      <point x="352" y="403"/>
      <point x="388" y="343"/>
      <point x="435" y="293" type="curve" smooth="yes"/>
      <point x="482" y="243"/>
      <point x="538" y="206"/>
      <point x="601" y="180" type="curve" smooth="yes"/>
      <point x="664" y="154"/>
      <point x="735" y="141"/>
    </contour>
  </outline>
</glyph>
